<?xml version="1.0" standalone="no"?>
<!DOCTYPE svg PUBLIC "-//W3C//DTD SVG 20010904//EN"
 "http://www.w3.org/TR/2001/REC-SVG-20010904/DTD/svg10.dtd">
<svg version="1.0" xmlns="http://www.w3.org/2000/svg"
 width="1254.000000pt" height="1254.000000pt" viewBox="0 0 1254.000000 1254.000000"
 preserveAspectRatio="xMidYMid meet">

<g transform="translate(0.000000,1254.000000) scale(0.100000,-0.100000)"
fill="#000000" stroke="none">
<path d="M3990 8830 c-8 -5 -15 -13 -15 -18 0 -10 -31 -42 -40 -42 -3 0 -3 6
1 13 4 6 -1 4 -12 -5 -10 -9 -27 -32 -37 -50 -13 -23 -13 -27 -3 -14 9 11 16
15 16 8 0 -6 22 10 49 36 27 26 45 49 40 51 -6 1 -2 9 8 17 21 15 16 18 -7 4z
m-70 -80 c-6 -11 -13 -20 -16 -20 -2 0 0 9 6 20 6 11 13 20 16 20 2 0 0 -9 -6
-20z"/>
<path d="M3962 8570 c0 -19 2 -27 5 -17 2 9 2 25 0 35 -3 9 -5 1 -5 -18z"/>
<path d="M3963 8240 c0 -25 2 -35 4 -22 2 12 2 32 0 45 -2 12 -4 2 -4 -23z"/>
<path d="M4675 8239 c-4 -6 -5 -12 -2 -15 2 -3 7 2 10 11 7 17 1 20 -8 4z"/>
<path d="M5175 8080 c-10 -11 -16 -22 -14 -24 2 -2 12 7 22 20 22 29 17 32 -8
4z"/>
<path d="M5282 8028 c-7 -7 -11 -23 -11 -37 l2 -26 4 25 c3 14 10 31 15 38 13
15 6 16 -10 0z"/>
<path d="M3963 7935 c0 -33 2 -45 4 -27 2 18 2 45 0 60 -2 15 -4 0 -4 -33z"/>
<path d="M4911 7964 c0 -11 3 -14 6 -6 3 7 2 16 -1 19 -3 4 -6 -2 -5 -13z"/>
<path d="M3843 7790 c-1 -25 2 -36 4 -26 4 15 7 16 14 5 6 -10 9 -3 8 21 0 28
-2 31 -8 15 -8 -19 -9 -18 -13 5 -3 15 -5 7 -5 -20z"/>
<path d="M5282 7792 c-11 -25 -11 -25 4 -10 9 9 15 21 13 27 -2 6 -10 -2 -17
-17z"/>
<path d="M3955 7488 c-3 -18 -1 -46 4 -63 8 -26 9 -22 10 33 1 68 -5 81 -14
30z"/>
<path d="M4728 7423 c6 -2 18 -2 25 0 6 3 1 5 -13 5 -14 0 -19 -2 -12 -5z"/>
<path d="M4778 7423 c6 -2 18 -2 25 0 6 3 1 5 -13 5 -14 0 -19 -2 -12 -5z"/>
<path d="M4883 7423 c20 -2 54 -2 75 0 20 2 3 4 -38 4 -41 0 -58 -2 -37 -4z"/>
<path d="M4483 7381 c-39 -28 -92 -115 -79 -128 3 -4 6 -1 6 5 0 7 7 12 15 12
8 0 15 8 15 17 0 9 3 13 7 10 6 -6 35 45 37 66 1 4 15 16 31 27 17 11 25 20
19 20 -6 0 -29 -13 -51 -29z"/>
<path d="M5173 7394 c28 -15 38 -30 13 -21 -8 3 -17 0 -20 -8 -3 -9 5 -16 24
-20 16 -4 31 -5 33 -3 2 2 12 -4 22 -12 17 -14 17 -14 6 7 -12 24 -78 73 -96
73 -5 -1 2 -8 18 -16z m51 -40 c5 -14 4 -15 -9 -4 -17 14 -19 20 -6 20 5 0 12
-7 15 -16z"/>
<path d="M5873 7364 l-28 -26 33 22 c29 20 39 30 28 30 -3 0 -18 -12 -33 -26z"/>
<path d="M3956 7321 c-3 -22 -2 -50 3 -63 8 -18 10 -10 10 40 1 34 -1 62 -3
62 -2 0 -6 -18 -10 -39z"/>
<path d="M3843 7255 c-1 -51 1 -62 7 -40 7 28 8 28 9 5 1 -22 3 -23 12 -7 6
11 8 35 3 60 -5 33 -8 38 -14 22 -7 -19 -8 -18 -12 5 -3 14 -5 -6 -5 -45z"/>
<path d="M4574 7296 c-13 -10 -23 -11 -31 -4 -9 7 -13 7 -13 -1 0 -6 5 -11 11
-11 5 0 7 -6 3 -12 -4 -7 1 -5 12 4 11 9 31 21 44 27 14 5 18 10 9 10 -8 1
-24 -5 -35 -13z"/>
<path d="M5090 7300 c8 -5 20 -10 25 -10 6 0 3 5 -5 10 -8 5 -19 10 -25 10 -5
0 -3 -5 5 -10z"/>
<path d="M5969 7283 c-13 -17 -13 -17 6 -3 11 8 22 16 24 17 2 2 0 3 -6 3 -6
0 -17 -8 -24 -17z"/>
<path d="M5173 7145 c0 -44 2 -62 4 -41 3 29 7 36 14 25 6 -10 9 -1 9 29 0 24
-4 41 -9 37 -5 -3 -12 3 -14 12 -3 10 -4 -18 -4 -62z"/>
<path d="M4474 7193 c-17 -17 -17 -16 -2 -48 6 -14 17 -24 24 -21 7 3 15 -3
17 -12 3 -9 5 8 6 39 1 45 -2 56 -15 56 -9 0 -22 -7 -30 -14z"/>
<path d="M5282 7175 c0 -16 2 -22 5 -12 2 9 2 23 0 30 -3 6 -5 -1 -5 -18z"/>
<path d="M5900 7176 c0 -24 17 -28 23 -6 3 13 0 20 -9 20 -8 0 -14 -6 -14 -14z"/>
<path d="M3843 7115 c0 -33 2 -50 4 -37 2 12 9 20 14 17 5 -4 9 9 9 27 0 23
-3 29 -9 19 -7 -11 -10 -9 -14 10 -2 13 -4 -3 -4 -36z"/>
<path d="M3956 7085 c-4 -38 -10 -93 -11 -121 -2 -29 -10 -63 -19 -76 -18 -27
-11 -44 11 -27 7 6 13 10 13 8 13 -104 12 -127 -14 -167 -14 -23 -26 -52 -26
-65 0 -19 -5 -23 -30 -22 l-30 0 -2 85 c-2 47 -5 -336 -8 -850 l-5 -935 -63
-6 c-132 -13 -241 -96 -288 -222 -21 -58 -25 -192 -6 -239 11 -26 9 -28 -44
-58 -58 -32 -109 -94 -131 -157 -46 -132 -9 -291 111 -469 25 -38 46 -73 46
-79 0 -6 -12 -16 -28 -22 -42 -19 -98 -78 -122 -131 -17 -35 -24 -71 -27 -147
-4 -90 -2 -104 19 -144 13 -25 34 -53 49 -63 30 -22 -149 -21 3154 -17 1194 2
1981 6 1750 9 -231 3 -393 7 -360 10 l60 5 1 33 c0 18 -4 36 -10 40 -6 4 23
12 64 18 62 9 1 11 -360 11 -239 0 -425 -2 -412 -4 23 -5 31 -22 10 -24 -7 -1
-23 -3 -35 -4 -15 -1 -28 7 -39 23 -9 13 -11 22 -6 18 6 -3 14 -1 18 5 4 8 9
7 15 -2 5 -8 9 45 9 129 l0 142 443 2 442 3 -435 5 c-239 3 -427 6 -417 8 17
2 17 4 -4 33 -12 17 -31 35 -43 40 -12 6 -27 23 -34 39 -13 28 -12 81 1 80 4
0 13 0 21 0 10 0 16 -13 19 -37 2 -21 4 134 3 345 -1 378 -1 383 19 378 11 -3
40 -7 65 -10 l45 -6 -42 13 c-23 6 -50 20 -60 30 -11 9 -24 17 -29 17 -16 0
-55 40 -49 51 4 5 -5 9 -19 9 -19 0 -25 -5 -24 -22 2 -30 16 -48 37 -48 14 0
17 -11 16 -70 0 -60 2 -70 18 -70 15 0 17 -10 17 -80 0 -60 -3 -80 -13 -80
-34 0 -48 -107 -19 -141 12 -14 18 -15 24 -6 4 7 8 -9 8 -35 0 -37 -3 -46 -14
-42 -19 7 -33 -36 -15 -47 8 -5 17 -3 21 4 4 7 8 -14 8 -45 0 -51 -2 -58 -20
-58 -13 0 -20 7 -20 20 0 16 -26 40 -44 40 -2 0 -7 -12 -9 -27 -4 -25 -4 -24
-6 7 -2 19 -7 46 -11 60 -4 14 -8 -125 -9 -307 l-1 -333 -380 0 -380 0 2 638
3 637 315 0 c237 0 321 -3 337 -13 19 -11 22 -10 17 3 -5 12 3 15 44 15 56 0
91 22 72 44 -5 7 -7 15 -5 18 7 6 -96 45 -140 53 -20 4 -24 3 -12 -3 30 -13
-1 -32 -70 -43 -32 -5 -73 -12 -92 -15 -23 -5 -36 -2 -42 7 -11 18 -11 32 0
25 5 -3 11 1 15 9 3 9 -1 16 -12 17 -9 1 24 5 73 8 50 4 -218 6 -595 6 l-685
-1 -100 -41 c-122 -51 -198 -74 -242 -74 -39 0 -39 3 -13 74 27 72 88 139 158
173 l57 28 830 5 c457 3 821 6 810 8 -15 2 -17 4 -7 11 8 4 14 11 15 15 3 13
-47 35 -58 26 -6 -5 -35 -11 -65 -14 -94 -9 -133 -18 -118 -27 7 -5 -34 -8
-97 -7 -60 1 -95 3 -77 5 30 4 39 18 33 56 0 4 6 7 15 7 8 0 22 7 30 15 14 13
13 15 -3 17 -10 1 7 4 37 8 30 4 -253 7 -630 8 -745 2 -741 2 -851 -54 -147
-74 -263 -293 -216 -406 25 -59 68 -80 152 -75 39 3 77 6 85 8 9 3 15 -3 14
-13 0 -10 -1 -182 -2 -383 l-2 -365 -390 0 c-214 0 -390 3 -390 6 0 4 10 39
22 78 29 93 31 254 4 336 -24 71 -71 154 -115 204 -48 53 -140 111 -201 127
l-50 13 0 51 c0 61 -23 155 -51 210 -24 47 -81 108 -126 136 l-33 21 -2 1136
c-2 701 -6 1110 -12 1067z m4 -651 c0 -15 -22 -44 -31 -39 -11 7 7 45 21 45 6
0 10 -3 10 -6z m1523 -1461 c-7 -2 -19 -2 -25 0 -7 3 -2 5 12 5 14 0 19 -2 13
-5z m297 -7 c-14 -8 -29 -11 -35 -8 -5 4 -35 10 -65 13 -48 5 -44 6 35 7 81 1
88 0 65 -12z m538 7 c-43 -2 -78 -7 -78 -11 0 -4 -8 -8 -17 -9 -61 -5 -108
-14 -117 -23 -6 -6 -20 -1 -41 14 -17 14 -45 26 -61 29 -16 2 66 4 181 3 116
0 175 -2 133 -3z m342 0 c-19 -3 -39 -11 -43 -19 -10 -17 -33 -18 -40 -1 -6
15 -87 21 -87 5 0 -6 -7 -7 -17 -3 -10 4 -31 11 -48 15 -18 5 31 8 120 7 83 0
134 -2 115 -4z m-2752 -212 c50 -26 86 -66 114 -126 20 -44 23 -63 21 -157 -3
-102 -2 -108 20 -122 12 -7 44 -16 70 -20 111 -14 208 -89 264 -205 49 -103
43 -272 -13 -383 l-24 -48 -369 0 -369 0 -47 62 c-136 181 -189 331 -151 423
28 67 67 97 155 120 27 7 52 21 64 37 l20 27 -31 58 c-54 105 -52 189 9 272
17 25 48 50 72 62 56 25 146 25 195 0z m1910 -78 c-10 -2 -28 -2 -40 0 -13 2
-5 4 17 4 22 1 32 -1 23 -4z m455 0 c-7 -2 -21 -2 -30 0 -10 3 -4 5 12 5 17 0
24 -2 18 -5z m230 0 c-13 -2 -35 -2 -50 0 -16 2 -5 4 22 4 28 0 40 -2 28 -4z
m-1285 -120 c-10 -2 -26 -2 -35 0 -10 3 -2 5 17 5 19 0 27 -2 18 -5z m972
-633 l0 -640 -377 2 -378 3 -3 553 c-2 387 1 565 9 595 14 54 66 103 122 115
23 5 174 10 335 11 l292 1 0 -640z m-1102 590 c5 0 9 -7 9 -15 0 -8 -4 -15 -8
-15 -12 0 -29 35 -28 57 0 15 2 14 9 -4 5 -13 13 -23 18 -23z m329 -267 c-3
-10 -5 -2 -5 17 0 19 2 27 5 18 2 -10 2 -26 0 -35z m1698 -631 l-7 -27 -10 28
c-6 15 -7 35 -3 45 6 16 7 16 17 -1 5 -10 7 -30 3 -45z m-1817 -189 l-3 -138
-938 -3 -939 -2 4 94 c3 93 4 96 38 131 19 19 48 40 65 44 16 5 423 10 903 10
l873 1 -3 -137z m1902 50 c-1 -25 -2 -26 -14 -10 -18 23 -25 22 -19 -3 4 -16
2 -19 -12 -14 -16 6 -17 3 -11 -21 6 -25 5 -27 -8 -16 -11 9 -16 10 -16 2 0
-6 -4 -11 -10 -11 -5 0 -10 21 -10 46 0 40 2 45 19 39 11 -3 22 -1 26 5 3 5
17 10 31 10 20 0 24 -5 24 -27z m460 -212 c0 -6 -5 -13 -11 -16 -6 -4 -8 -13
-5 -21 3 -7 0 -16 -7 -20 -7 -4 -9 -4 -5 1 9 10 -12 30 -40 39 -12 4 -20 12
-17 17 8 12 85 12 85 0z m178 0 c10 -6 4 -10 -20 -16 -18 -4 -39 -7 -45 -6 -7
1 -13 -2 -13 -7 0 -14 -34 -9 -43 6 -4 6 -16 12 -25 12 -15 0 -15 2 -2 10 18
12 130 13 148 1z m-153 -41 c-3 -5 -10 -10 -16 -10 -5 0 -9 5 -9 10 0 6 7 10
16 10 8 0 12 -4 9 -10z m-562 -57 c-7 -2 -21 -2 -30 0 -10 3 -4 5 12 5 17 0
24 -2 18 -5z m520 0 c-7 -2 -21 -2 -30 0 -10 3 -4 5 12 5 17 0 24 -2 18 -5z"/>
<path d="M5975 4108 c-11 -6 -23 -16 -27 -22 -4 -6 -8 -84 -8 -173 0 -150 2
-165 20 -183 23 -23 58 -26 86 -6 17 13 19 30 22 178 3 147 1 166 -15 185 -23
27 -53 35 -78 21z"/>
<path d="M4392 7060 c0 -47 2 -79 5 -72 2 6 14 12 26 12 16 0 18 3 9 12 -7 7
-12 21 -12 33 0 12 -4 25 -9 31 -5 5 -11 23 -14 39 -2 17 -4 -8 -5 -55z"/>
<path d="M5173 6975 c0 -44 2 -61 4 -37 2 23 2 59 0 80 -2 20 -4 1 -4 -43z"/>
<path d="M5284 6905 c0 -60 1 -84 3 -52 2 32 2 81 0 110 -2 29 -3 3 -3 -58z"/>
<path d="M3843 6905 c-1 -33 1 -52 4 -42 3 10 9 14 16 10 37 -23 51 12 21 52
-12 16 -16 17 -23 6 -7 -11 -10 -9 -14 10 -2 13 -4 -3 -4 -36z"/>
<path d="M5901 6896 c-12 -22 -10 -52 5 -109 10 -34 24 -5 24 51 0 71 -11 92
-29 58z"/>
<path d="M5259 6883 c-1 -5 -1 -11 0 -15 0 -5 -3 -8 -7 -8 -13 0 -9 -39 5 -44
9 -4 13 6 13 34 0 22 -2 40 -5 40 -3 0 -6 -3 -6 -7z"/>
<path d="M5174 6785 c0 -55 1 -76 3 -47 2 29 2 74 0 100 -2 26 -3 2 -3 -53z"/>
<path d="M5192 6800 c0 -14 2 -19 5 -12 2 6 2 18 0 25 -3 6 -5 1 -5 -13z"/>
<path d="M4511 6750 c-1 -36 -5 -59 -8 -52 -7 18 -23 15 -23 -4 0 -9 8 -23 18
-30 19 -15 56 -19 47 -5 -3 5 3 12 12 14 12 3 8 5 -9 6 -26 1 -27 3 -31 69
l-3 67 -3 -65z"/>
<path d="M5802 6760 c0 -19 2 -27 5 -17 2 9 2 25 0 35 -3 9 -5 1 -5 -18z"/>
<path d="M4486 6762 c-4 -13 -5 -26 -2 -29 10 -11 18 4 14 29 l-4 23 -8 -23z"/>
<path d="M4391 6723 c-1 -32 -6 -43 -21 -48 -31 -10 -52 -48 -44 -80 4 -17 9
-23 14 -15 4 6 10 11 14 11 20 -3 26 0 21 9 -7 12 23 80 36 80 5 0 9 7 9 15 0
8 -4 15 -9 15 -5 0 -12 12 -14 28 -3 19 -4 15 -6 -15z"/>
<path d="M3862 6709 c1 -13 8 -23 13 -21 15 3 12 35 -3 40 -9 3 -13 -3 -10
-19z"/>
<path d="M4797 6673 c18 -2 50 -2 70 0 21 2 7 4 -32 4 -38 0 -55 -2 -38 -4z"/>
<path d="M5138 6673 c6 -2 18 -2 25 0 6 3 1 5 -13 5 -14 0 -19 -2 -12 -5z"/>
<path d="M8140 6640 c0 -5 7 -10 16 -10 8 0 12 5 9 10 -3 6 -10 10 -16 10 -5
0 -9 -4 -9 -10z"/>
<path d="M4640 6571 c0 -17 13 -18 80 -5 l65 12 -72 1 c-40 0 -73 -3 -73 -8z"/>
<path d="M4838 6573 c7 -3 16 -2 19 1 4 3 -2 6 -13 5 -11 0 -14 -3 -6 -6z"/>
<path d="M5248 6573 c7 -3 16 -2 19 1 4 3 -2 6 -13 5 -11 0 -14 -3 -6 -6z"/>
<path d="M4560 6148 c-34 -10 -34 -11 -12 -21 13 -6 22 -19 22 -33 0 -12 6
-25 13 -27 6 -3 2 -6 -10 -6 -17 -1 -21 3 -16 17 6 15 5 15 -10 3 -14 -11 -20
-11 -32 -1 -8 7 -13 16 -10 20 3 5 1 11 -4 15 -6 3 -26 -10 -45 -30 -59 -59
-66 -101 -66 -407 0 -208 -3 -268 -12 -268 -22 -1 -46 -25 -53 -53 -5 -20 -1
-32 19 -51 l25 -26 468 0 c356 0 474 3 493 13 32 16 40 77 13 97 -15 12 -16
12 -5 0 18 -20 15 -29 -8 -25 -35 7 -45 17 -29 29 13 9 12 13 -3 29 -14 13
-18 14 -18 3 0 -9 -7 -12 -20 -9 -11 3 -20 9 -20 14 0 5 -6 6 -14 3 -8 -3 -17
0 -22 7 -5 9 -9 7 -15 -7 -5 -13 -8 -7 -8 23 -1 42 -1 42 25 33 19 -8 31 -7
42 2 22 19 26 16 33 -17 4 -22 8 -10 13 48 9 80 -2 270 -13 229 -3 -13 -10
-23 -16 -24 -26 -2 -33 -13 -39 -56 -4 -29 -14 -54 -26 -65 -20 -17 -20 -16
-20 109 0 72 4 123 9 120 5 -4 20 -2 32 3 21 7 24 15 24 62 0 38 4 53 13 51 6
-1 12 4 13 10 0 7 5 4 10 -7 7 -15 8 -9 5 24 -5 44 -48 120 -73 129 -18 5 -17
-53 2 -82 24 -37 9 -59 -40 -59 -6 0 -9 -98 -7 -279 l3 -278 -326 0 -325 0 0
266 c0 377 -20 357 341 352 l245 -3 3 33 c1 24 -5 39 -20 53 -26 22 -24 22
-69 9 -22 -7 -42 -7 -55 -1 -11 5 -29 12 -40 16 l-20 7 20 8 c29 12 -323 10
-365 -2z m138 -5 c-10 -2 -28 -2 -40 0 -13 2 -5 4 17 4 22 1 32 -1 23 -4z
m-68 -97 c0 -2 -9 -6 -20 -9 -11 -3 -18 -1 -14 4 5 9 34 13 34 5z m317 -2 c-3
-3 -12 -4 -19 -1 -8 3 -5 6 6 6 11 1 17 -2 13 -5z m-329 -651 c-10 -2 -28 -2
-40 0 -13 2 -5 4 17 4 22 1 32 -1 23 -4z m210 0 c-10 -2 -28 -2 -40 0 -13 2
-5 4 17 4 22 1 32 -1 23 -4z m203 -4 c-24 -5 -66 -5 -95 0 -46 8 -42 9 44 9
80 0 88 -2 51 -9z m309 -79 c0 -5 -5 -10 -11 -10 -5 0 -7 5 -4 10 3 6 8 10 11
10 2 0 4 -4 4 -10z m-147 -17 c-7 -2 -19 -2 -25 0 -7 3 -2 5 12 5 14 0 19 -2
13 -5z"/>
<path d="M5068 6153 c7 -3 16 -2 19 1 4 3 -2 6 -13 5 -11 0 -14 -3 -6 -6z"/>
<path d="M6028 6153 c17 -2 47 -2 65 0 17 2 3 4 -33 4 -36 0 -50 -2 -32 -4z"/>
<path d="M6420 6150 c18 -6 20 -8 7 -9 -10 -1 -15 -5 -12 -11 9 -15 35 -12 35
4 0 8 12 17 28 19 15 2 2 4 -28 5 -41 0 -49 -2 -30 -8z"/>
<path d="M5890 6105 c-16 -19 -11 -23 19 -16 20 6 22 8 9 19 -12 10 -18 9 -28
-3z"/>
<path d="M7262 6069 c-7 -12 -12 -23 -10 -25 8 -7 48 28 43 37 -9 14 -19 11
-33 -12z"/>
<path d="M6330 6065 c-7 -8 -9 -16 -4 -16 5 -1 -4 -5 -21 -9 -20 -5 -1 -8 60
-7 50 0 79 2 65 5 -23 4 -24 5 -5 12 18 7 18 9 -8 19 -39 15 -72 14 -87 -4z"/>
<path d="M6090 6060 c0 -5 14 -10 31 -10 17 0 28 4 24 10 -3 6 -17 10 -31 10
-13 0 -24 -4 -24 -10z"/>
<path d="M5949 6033 c-8 -9 -9 -14 -2 -10 6 4 13 1 15 -7 3 -13 6 -13 28 0 15
9 17 13 6 9 -16 -5 -17 -3 -6 10 10 13 9 15 -8 15 -11 0 -26 -8 -33 -17z"/>
<path d="M5818 6018 c-9 -16 -13 -73 -14 -178 -1 -105 1 -136 6 -95 3 33 7 54
8 47 3 -20 42 5 42 27 0 28 -21 82 -30 76 -4 -3 -10 2 -14 10 -3 10 1 15 13
15 10 0 21 7 25 15 11 29 25 15 19 -20 -5 -30 -2 -36 18 -44 34 -12 39 -6 39
45 0 42 -1 44 -30 44 -23 0 -33 6 -40 25 -5 14 -15 25 -21 25 -6 0 -9 7 -5 15
8 23 -2 18 -16 -7z"/>
<path d="M6113 6033 c9 -2 25 -2 35 0 9 3 1 5 -18 5 -19 0 -27 -2 -17 -5z"/>
<path d="M6672 6000 c-15 -24 -15 -40 -2 -40 6 0 10 10 11 23 0 21 1 21 9 2 6
-13 9 -15 9 -5 1 29 -14 40 -27 20z"/>
<path d="M6590 5910 c-13 -24 -5 -74 10 -65 14 9 23 66 12 77 -7 7 -14 3 -22
-12z"/>
<path d="M5283 5850 c0 -25 2 -35 4 -22 2 12 2 32 0 45 -2 12 -4 2 -4 -23z"/>
<path d="M7994 5795 c0 -49 1 -71 3 -48 2 23 2 64 0 90 -2 26 -3 8 -3 -42z"/>
<path d="M7221 5704 c0 -11 3 -14 6 -6 3 7 2 16 -1 19 -3 4 -6 -2 -5 -13z"/>
<path d="M6700 5664 c0 -8 -4 -12 -10 -9 -5 3 -10 2 -10 -4 0 -5 -3 -16 -6
-25 -4 -11 0 -14 15 -13 17 1 21 8 21 34 0 18 -2 33 -5 33 -3 0 -5 -7 -5 -16z"/>
<path d="M5893 5650 c-25 -10 -43 -62 -25 -68 14 -4 16 -52 3 -52 -5 0 -11 7
-15 15 -3 8 -14 15 -25 15 -11 0 -22 6 -24 13 -3 6 -6 -26 -6 -73 -1 -84 -2
-85 -31 -102 -24 -14 -30 -24 -30 -51 0 -33 15 -57 35 -57 5 0 2 5 -7 11 -22
12 -24 31 -3 23 8 -4 15 -1 15 6 0 6 5 8 10 5 6 -3 10 5 10 19 0 15 8 30 19
36 11 5 79 10 153 9 90 0 126 -3 111 -9 -23 -9 -32 -30 -13 -30 6 0 10 -5 10
-11 0 -6 -9 -8 -20 -4 -17 5 -19 2 -16 -24 l3 -30 -131 -4 c-72 -1 74 -3 324
-3 250 -1 444 1 431 3 -29 6 -72 32 -84 50 -5 8 -13 11 -18 7 -6 -3 -13 4 -16
16 -4 13 -17 23 -37 28 -29 6 -28 7 19 13 28 3 -97 7 -277 7 l-328 2 0 125 c0
69 -3 125 -7 124 -5 0 -18 -4 -30 -9z m557 -257 c-8 -2 -21 -6 -28 -9 -10 -3
-8 -11 8 -31 20 -26 20 -28 3 -34 -32 -11 -48 2 -22 18 22 13 11 12 -24 -2 -7
-3 -31 7 -53 22 -29 20 -56 29 -104 34 -46 4 -21 6 85 7 83 0 143 -2 135 -5z
m-167 -100 c-13 -2 -35 -2 -50 0 -16 2 -5 4 22 4 28 0 40 -2 28 -4z m145 0
c-10 -2 -28 -2 -40 0 -13 2 -5 4 17 4 22 1 32 -1 23 -4z"/>
<path d="M6587 5564 c-9 -9 -9 -47 -1 -68 10 -27 34 -19 34 12 0 31 -21 67
-33 56z"/>
<path d="M6701 5499 c0 -9 -9 -16 -18 -15 -22 1 -27 -50 -7 -58 8 -3 14 1 14
8 0 8 5 16 11 18 6 2 9 17 6 33 -2 17 -5 23 -6 14z"/>
<path d="M7448 5403 c29 -2 74 -2 100 0 26 2 2 3 -53 3 -55 0 -76 -1 -47 -3z"/>
<path d="M7663 5403 c9 -2 25 -2 35 0 9 3 1 5 -18 5 -19 0 -27 -2 -17 -5z"/>
<path d="M7888 5403 c12 -2 30 -2 40 0 9 3 -1 5 -23 4 -22 0 -30 -2 -17 -4z"/>
<path d="M7468 5383 c7 -3 16 -2 19 1 4 3 -2 6 -13 5 -11 0 -14 -3 -6 -6z"/>
<path d="M6752 5312 c-11 -25 -11 -25 4 -10 9 9 15 21 13 27 -2 6 -10 -2 -17
-17z"/>
<path d="M5840 5308 c0 -4 16 -8 35 -8 19 0 35 2 35 4 0 2 -16 6 -35 8 -19 2
-35 0 -35 -4z"/>
<path d="M7293 5283 c9 -2 25 -2 35 0 9 3 1 5 -18 5 -19 0 -27 -2 -17 -5z"/>
<path d="M7397 5283 c18 -2 50 -2 70 0 21 2 7 4 -32 4 -38 0 -55 -2 -38 -4z"/>
<path d="M7633 5283 c15 -2 39 -2 55 0 15 2 2 4 -28 4 -30 0 -43 -2 -27 -4z"/>
<path d="M7103 4973 c9 -2 23 -2 30 0 6 3 -1 5 -18 5 -16 0 -22 -2 -12 -5z"/>
<path d="M7158 4963 c7 -3 16 -2 19 1 4 3 -2 6 -13 5 -11 0 -14 -3 -6 -6z"/>
<path d="M7095 4950 c-3 -6 1 -7 9 -4 18 7 21 14 7 14 -6 0 -13 -4 -16 -10z"/>
<path d="M7325 4873 c4 -8 -1 -13 -12 -13 -11 0 -23 -12 -30 -30 -11 -28 -10
-31 23 -46 24 -12 41 -14 55 -8 20 9 20 10 -1 37 -12 16 -20 30 -18 33 3 2 18
-14 33 -36 28 -41 43 -54 26 -22 -11 20 -85 103 -76 85z"/>
<path d="M8929 4826 c9 -10 9 -15 1 -18 -7 -2 -3 -11 9 -22 13 -12 21 -14 21
-7 0 7 5 9 13 5 6 -4 -1 7 -17 24 -30 32 -49 45 -27 18z"/>
<path d="M7200 4818 c0 -2 13 -16 28 -31 25 -24 28 -25 28 -8 0 11 -4 17 -9
14 -4 -3 -17 3 -28 13 -10 9 -19 15 -19 12z"/>
<path d="M7416 4747 c3 -10 9 -15 12 -12 3 3 0 11 -7 18 -10 9 -11 8 -5 -6z"/>
<path d="M7441 4684 c-1 -11 -9 -29 -19 -40 -17 -18 -17 -20 -1 -37 10 -11 22
-16 28 -13 5 4 12 -4 14 -16 4 -22 4 -22 5 2 1 14 -5 48 -12 75 -8 28 -15 41
-15 29z"/>
<path d="M9041 4614 c0 -11 3 -14 6 -6 3 7 2 16 -1 19 -3 4 -6 -2 -5 -13z"/>
<path d="M7340 4597 c0 -10 -11 -17 -32 -20 l-33 -4 33 -1 c31 -2 54 19 38 35
-3 4 -6 -1 -6 -10z"/>
<path d="M8471 4544 c0 -11 3 -14 6 -6 3 7 2 16 -1 19 -3 4 -6 -2 -5 -13z"/>
<path d="M7082 4335 c0 -55 2 -93 5 -85 3 8 16 24 29 35 20 17 23 27 18 53 -4
18 -13 32 -20 32 -7 0 -18 15 -23 33 -7 25 -9 11 -9 -68z"/>
<path d="M8306 4336 c3 -8 13 -12 27 -8 20 5 20 6 1 13 -29 11 -34 10 -28 -5z"/>
<path d="M8065 4293 c-16 -21 -22 -32 -15 -25 8 6 22 12 32 12 13 0 17 7 16
25 -1 14 -3 25 -4 25 -1 0 -14 -17 -29 -37z"/>
<path d="M7081 4075 c1 -58 3 -72 9 -50 11 44 11 98 0 115 -7 10 -9 -10 -9
-65z"/>
<path d="M7976 4124 c-4 -15 -5 -29 -1 -32 3 -3 5 2 5 12 0 9 4 15 9 12 5 -4
7 3 4 14 -7 26 -10 25 -17 -6z"/>
<path d="M6455 4086 c-14 -21 -16 -51 -13 -186 3 -146 5 -163 22 -176 28 -20
63 -17 86 6 18 18 20 33 20 184 0 184 -4 196 -65 196 -26 0 -39 -6 -50 -24z"/>
<path d="M8082 4045 c0 -16 2 -22 5 -12 2 9 2 23 0 30 -3 6 -5 -1 -5 -18z"/>
<path d="M9100 4047 c0 -1 -4 -18 -10 -36 -5 -20 -6 -31 -1 -25 12 11 25 64
17 64 -3 0 -6 -1 -6 -3z"/>
<path d="M7952 3965 c0 -16 2 -22 5 -12 2 9 2 23 0 30 -3 6 -5 -1 -5 -18z"/>
<path d="M8079 3858 c-3 -22 -1 -34 4 -29 5 5 7 21 5 37 -3 27 -4 26 -9 -8z"/>
<path d="M9010 3850 c-6 -11 -8 -20 -6 -20 3 0 10 9 16 20 6 11 8 20 6 20 -3
0 -10 -9 -16 -20z"/>
<path d="M7961 3834 c0 -11 3 -14 6 -6 3 7 2 16 -1 19 -3 4 -6 -2 -5 -13z"/>
<path d="M7971 3794 c0 -11 3 -14 6 -6 3 7 2 16 -1 19 -3 4 -6 -2 -5 -13z"/>
<path d="M9110 3790 c-6 -11 -8 -20 -6 -20 3 0 10 9 16 20 6 11 8 20 6 20 -3
0 -10 -9 -16 -20z"/>
<path d="M7980 3765 c0 -5 5 -17 10 -25 5 -8 10 -10 10 -5 0 6 -5 17 -10 25
-5 8 -10 11 -10 5z"/>
<path d="M8000 3763 c1 -5 8 -19 16 -33 10 -17 13 -18 8 -5 -3 11 -7 26 -7 33
0 6 -4 12 -9 12 -4 0 -8 -3 -8 -7z"/>
<path d="M8000 3710 c0 -6 -34 -11 -77 -12 -43 0 -62 -3 -43 -5 36 -5 84 -43
63 -50 -6 -2 -23 -15 -38 -29 l-26 -24 75 0 c84 0 96 11 42 37 -29 14 -33 19
-25 35 5 10 16 18 24 18 8 0 15 9 15 20 0 11 -2 20 -5 20 -3 0 -5 -4 -5 -10z"/>
<path d="M7280 3693 c41 -2 79 -8 84 -13 7 -7 4 -10 -6 -10 -9 0 -18 -7 -21
-15 -7 -16 8 -29 22 -21 4 3 6 -6 3 -19 l-4 -25 223 0 c139 0 219 4 213 9 -22
22 -102 49 -112 39 -8 -8 -15 -8 -26 1 -11 9 -20 10 -35 1 -17 -9 -20 -8 -15
5 4 8 12 15 20 15 8 0 13 6 12 13 -2 7 14 14 42 18 25 3 -72 6 -215 6 -143 -1
-226 -3 -185 -4z m254 -12 c3 -5 -1 -14 -9 -21 -12 -10 -21 -10 -42 -1 -22 10
-24 14 -12 22 18 11 56 12 63 0z m36 -32 c0 -5 -4 -7 -10 -4 -5 3 -10 1 -10
-4 0 -6 -10 -11 -22 -11 -22 1 -23 1 -4 15 23 17 46 20 46 4z m-43 -35 c-3 -3
-12 -4 -19 -1 -8 3 -5 6 6 6 11 1 17 -2 13 -5z"/>
<path d="M7768 3693 c12 -2 32 -2 45 0 12 2 2 4 -23 4 -25 0 -35 -2 -22 -4z"/>
<path d="M8280 3600 c-34 -7 -34 -7 13 -9 30 0 46 3 42 9 -3 6 -9 9 -13 9 -4
-1 -23 -5 -42 -9z"/>
<path d="M8313 3573 c86 -2 228 -2 315 0 86 1 15 3 -158 3 -173 0 -244 -2
-157 -3z"/>
<path d="M8908 3573 c12 -2 32 -2 45 0 12 2 2 4 -23 4 -25 0 -35 -2 -22 -4z"/>
<path d="M9222 3420 c0 -14 2 -19 5 -12 2 6 2 18 0 25 -3 6 -5 1 -5 -13z"/>
<path d="M9112 3350 c0 -19 2 -27 5 -17 2 9 2 25 0 35 -3 9 -5 1 -5 -18z"/>
<path d="M8307 3283 c18 -2 50 -2 70 0 21 2 7 4 -32 4 -38 0 -55 -2 -38 -4z"/>
<path d="M8145 3190 c-4 -6 22 -10 69 -10 44 0 76 4 76 10 0 6 -30 10 -69 10
-39 0 -73 -4 -76 -10z"/>
<path d="M8758 3163 c12 -2 30 -2 40 0 9 3 -1 5 -23 4 -22 0 -30 -2 -17 -4z"/>
<path d="M8903 3163 c15 -2 37 -2 50 0 12 2 0 4 -28 4 -27 0 -38 -2 -22 -4z"/>
</g>
</svg>
