<?xml version="1.0" standalone="no"?>
<!DOCTYPE svg PUBLIC "-//W3C//DTD SVG 20010904//EN"
 "http://www.w3.org/TR/2001/REC-SVG-20010904/DTD/svg10.dtd">
<svg version="1.0" xmlns="http://www.w3.org/2000/svg"
 width="1254.000000pt" height="1254.000000pt" viewBox="0 0 1254.000000 1254.000000"
 preserveAspectRatio="xMidYMid meet">

<g transform="translate(0.000000,1254.000000) scale(0.100000,-0.100000)"
fill="#000000" stroke="none">
<path d="M6679 8752 c-14 -9 -26 -21 -25 -27 1 -21 59 8 64 33 3 16 -7 14 -39
-6z"/>
<path d="M7246 8711 c-4 -5 -2 -12 3 -15 5 -4 12 -2 15 3 4 5 2 12 -3 15 -5 4
-12 2 -15 -3z"/>
<path d="M5504 8679 c-3 -5 6 -9 20 -9 31 0 34 6 6 13 -11 3 -23 1 -26 -4z"/>
<path d="M6825 8680 c3 -5 17 -10 31 -10 13 0 24 5 24 10 0 6 -14 10 -31 10
-17 0 -28 -4 -24 -10z"/>
<path d="M4148 8573 c6 -2 18 -2 25 0 6 3 1 5 -13 5 -14 0 -19 -2 -12 -5z"/>
<path d="M6037 8563 c-11 -10 -8 -49 4 -76 8 -17 17 -23 30 -20 24 7 24 30 -1
71 -21 34 -23 36 -33 25z"/>
<path d="M4110 8550 c0 -13 40 -13 60 0 11 7 5 10 -22 10 -21 0 -38 -4 -38
-10z"/>
<path d="M5110 8529 c-7 -11 -10 -23 -7 -25 2 -2 9 7 15 21 14 30 7 33 -8 4z"/>
<path d="M8491 8536 c-8 -10 -9 -16 -1 -21 5 -3 10 -5 11 -3 4 18 7 38 4 38
-1 0 -8 -6 -14 -14z"/>
<path d="M3934 8527 c-18 -10 -20 -14 -8 -24 19 -19 47 -16 61 6 10 16 9 20
-3 25 -21 8 -25 7 -50 -7z"/>
<path d="M8537 8523 c-9 -2 -15 -9 -12 -14 9 -14 22 -11 29 6 3 8 4 14 3 14
-1 -1 -10 -3 -20 -6z"/>
<path d="M6450 8501 c-7 -15 -7 -21 0 -21 12 0 25 28 17 36 -3 3 -10 -4 -17
-15z"/>
<path d="M4430 8482 c0 -14 11 -21 26 -15 8 3 11 9 8 14 -7 11 -34 12 -34 1z"/>
<path d="M3967 8429 c-3 -10 -1 -22 4 -25 5 -3 7 -10 4 -15 -9 -13 -3 -12 50
11 26 11 58 20 72 20 21 0 22 2 10 14 -9 9 -36 14 -74 14 -52 0 -62 -3 -66
-19z"/>
<path d="M3745 8388 c-27 -31 -58 -72 -68 -90 -10 -18 -12 -26 -5 -18 7 8 32
16 56 18 35 3 42 0 42 -16 0 -10 7 -27 15 -38 14 -18 15 -18 42 16 16 19 28
39 28 44 0 5 -21 21 -47 34 -47 24 -47 25 -27 41 13 11 20 26 17 41 -3 22 -7
20 -53 -32z m14 -5 c-40 -47 -42 -49 -34 -33 10 19 47 60 53 60 3 0 -5 -12
-19 -27z"/>
<path d="M5965 8430 c-3 -5 -2 -10 4 -10 6 0 8 -6 6 -12 -3 -7 -1 -26 4 -43 5
-17 10 -22 10 -12 1 10 6 15 11 12 6 -4 10 6 10 24 0 32 -32 61 -45 41z"/>
<path d="M8428 8433 c6 -2 10 -9 7 -14 -4 -5 1 -6 9 -3 24 9 19 24 -6 23 -13
0 -17 -3 -10 -6z"/>
<path d="M4319 8421 c11 -7 11 -10 0 -15 -8 -3 -3 -3 10 0 18 5 22 3 16 -7 -7
-12 -5 -12 6 -1 12 11 12 14 -1 22 -8 5 -22 10 -30 10 -12 0 -13 -2 -1 -9z"/>
<path d="M7914 8412 c-10 -9 -27 -27 -37 -39 -18 -21 -18 -21 9 -18 30 3 54
28 54 57 0 22 -2 22 -26 0z"/>
<path d="M6510 8380 c-11 -27 -11 -33 1 -41 25 -15 39 -10 41 16 0 14 1 31 2
37 2 28 -32 18 -44 -12z"/>
<path d="M4593 8394 c3 -4 2 -15 -4 -26 -9 -17 -8 -18 9 -9 11 6 23 7 28 3 5
-4 0 3 -10 16 -11 12 -21 22 -24 22 -3 0 -2 -3 1 -6z"/>
<path d="M5181 8353 c-6 -21 -10 -58 -10 -83 l1 -45 8 50 c4 28 10 65 14 83
10 44 -1 40 -13 -5z"/>
<path d="M7336 8360 c12 -63 21 -77 20 -28 -1 25 -4 44 -8 42 -3 -2 -9 2 -12
8 -3 7 -3 -3 0 -22z"/>
<path d="M7360 8340 c0 -5 5 -10 11 -10 5 0 7 5 4 10 -3 6 -8 10 -11 10 -2 0
-4 -4 -4 -10z"/>
<path d="M8610 8339 c0 -5 -5 -7 -12 -3 -7 4 -8 3 -4 -4 4 -7 13 -12 21 -12 7
0 16 -8 19 -17 5 -12 9 -14 18 -5 9 9 7 17 -10 32 -24 22 -32 25 -32 9z"/>
<path d="M5152 8290 c0 -19 2 -27 5 -17 2 9 2 25 0 35 -3 9 -5 1 -5 -18z"/>
<path d="M6087 8295 c-18 -25 -18 -26 3 -61 30 -48 45 -39 45 27 0 62 -18 75
-48 34z"/>
<path d="M6403 8313 c-14 -5 -17 -43 -7 -80 9 -33 21 -28 26 10 5 44 -4 75
-19 70z"/>
<path d="M4515 8281 c-3 -5 -2 -12 3 -15 5 -3 9 1 9 9 0 17 -3 19 -12 6z"/>
<path d="M7785 8229 c-10 -21 -15 -42 -12 -45 11 -11 37 5 48 30 9 20 9 28 -3
40 -14 13 -17 11 -33 -25z"/>
<path d="M4680 8245 c-6 -8 -13 -29 -13 -47 -2 -28 1 -32 18 -30 11 2 23 9 26
14 4 6 9 5 12 -3 3 -8 6 -9 6 -3 1 13 -27 84 -33 84 -2 0 -9 -7 -16 -15z"/>
<path d="M5049 8203 c3 -26 7 -38 9 -25 2 12 8 22 13 22 5 0 9 10 8 23 0 12
-3 16 -6 9 -4 -10 -8 -9 -17 3 -9 12 -10 6 -7 -32z"/>
<path d="M3628 8203 c-9 -21 -18 -54 -21 -73 -6 -35 -6 -35 8 5 10 31 14 35
14 16 1 -13 4 -21 8 -18 3 4 15 0 25 -10 17 -15 18 -15 18 0 0 10 4 17 10 17
5 0 7 -7 4 -15 -4 -8 1 -26 10 -40 9 -13 16 -32 17 -42 0 -10 9 8 19 40 18 57
18 60 1 90 -12 22 -24 31 -38 29 -12 -2 -24 6 -31 20 -6 14 -11 17 -11 8 -1
-12 -3 -12 -10 -2 -6 10 -12 3 -23 -25z"/>
<path d="M7451 8201 c-6 -11 -11 -30 -11 -43 1 -22 1 -22 14 -5 14 18 14 18
19 0 3 -10 5 -1 6 19 1 43 -13 57 -28 29z"/>
<path d="M5980 8172 c-10 -38 -6 -72 9 -72 30 0 43 78 17 100 -12 9 -17 5 -26
-28z"/>
<path d="M6531 8199 c-1 -9 -8 -19 -16 -23 -8 -3 -15 -17 -15 -31 0 -22 4 -25
29 -23 27 2 28 3 19 38 -13 50 -16 57 -17 39z"/>
<path d="M7340 8178 c0 -4 -9 -31 -20 -60 -15 -40 -16 -48 -5 -33 9 11 22 19
29 17 20 -4 27 38 10 62 -7 11 -14 17 -14 14z"/>
<path d="M7871 8144 c0 -11 3 -14 6 -6 3 7 2 16 -1 19 -3 4 -6 -2 -5 -13z"/>
<path d="M5191 8138 c-1 -10 -5 -18 -10 -18 -6 0 -18 -13 -28 -30 -9 -16 -23
-30 -30 -30 -7 0 -13 -6 -13 -12 0 -7 -8 -4 -16 7 -16 19 -16 19 -9 -5 9 -30
34 -80 40 -80 2 0 2 8 -2 18 -3 9 -3 14 1 10 4 -3 16 1 26 10 55 51 69 59 80
48 7 -6 3 7 -8 29 -10 22 -22 47 -25 55 -4 12 -6 11 -6 -2z"/>
<path d="M4608 8108 c2 -10 6 -18 7 -18 1 0 5 8 7 18 3 11 0 19 -7 19 -7 0
-10 -8 -7 -19z"/>
<path d="M3591 8074 c0 -11 3 -14 6 -6 3 7 2 16 -1 19 -3 4 -6 -2 -5 -13z"/>
<path d="M6056 8075 c-20 -21 -20 -25 5 -55 11 -14 18 -20 15 -13 -3 6 -2 13
3 15 14 5 18 60 5 65 -7 2 -19 -3 -28 -12z"/>
<path d="M6441 8074 c0 -11 3 -14 6 -6 3 7 2 16 -1 19 -3 4 -6 -2 -5 -13z"/>
<path d="M7741 8074 c0 -11 3 -14 6 -6 3 7 2 16 -1 19 -3 4 -6 -2 -5 -13z"/>
<path d="M4750 8065 c0 -8 -4 -15 -8 -15 -5 0 -16 -16 -25 -35 -15 -31 -15
-36 -2 -41 8 -4 15 -16 16 -28 0 -20 1 -20 9 -1 6 16 9 10 12 -25 3 -25 5 1 6
58 1 56 0 102 -3 102 -3 0 -5 -7 -5 -15z"/>
<path d="M6574 8045 c0 -24 3 -32 10 -25 6 6 14 6 24 -2 7 -6 4 5 -8 25 -12
20 -23 37 -24 37 0 0 -1 -16 -2 -35z"/>
<path d="M3582 8000 c0 -19 2 -27 5 -17 2 9 2 25 0 35 -3 9 -5 1 -5 -18z"/>
<path d="M7425 8019 c-4 -6 -5 -12 -2 -15 2 -3 7 2 10 11 7 17 1 20 -8 4z"/>
<path d="M7732 8010 c0 -14 2 -19 5 -12 2 6 2 18 0 25 -3 6 -5 1 -5 -13z"/>
<path d="M5897 8002 c-23 -25 -21 -30 8 -24 24 4 36 22 14 22 -5 0 -7 5 -4 10
10 16 -1 11 -18 -8z"/>
<path d="M3696 7969 c-14 -11 -33 -33 -41 -49 -13 -25 -13 -29 2 -41 9 -8 31
-15 49 -15 l33 -1 -6 61 c-3 33 -7 62 -8 64 -1 1 -14 -7 -29 -19z"/>
<path d="M7732 7935 c0 -16 2 -22 5 -12 2 9 2 23 0 30 -3 6 -5 -1 -5 -18z"/>
<path d="M5322 7943 c6 -19 -41 -63 -66 -63 -14 0 -26 -5 -26 -11 0 -6 -8 -8
-17 -5 -10 3 0 -10 22 -29 22 -19 46 -33 53 -30 7 3 10 1 7 -5 -3 -5 3 -14 14
-19 25 -14 34 -14 26 -1 -3 6 -1 10 4 10 6 0 11 6 11 13 0 7 14 23 31 36 25
18 28 25 18 37 -10 12 -9 13 7 8 25 -9 19 -4 -39 35 -26 18 -46 29 -45 24z"/>
<path d="M6495 7941 c-6 -11 9 -23 19 -14 9 9 7 23 -3 23 -6 0 -12 -4 -16 -9z"/>
<path d="M5790 7910 c-25 -16 -72 -36 -104 -44 -65 -17 -81 -26 -48 -26 12 0
22 -4 22 -9 0 -4 11 -6 25 -3 14 2 25 11 25 19 0 10 7 14 20 10 27 -7 80 14
80 32 0 8 7 23 17 33 21 24 17 22 -37 -12z"/>
<path d="M5987 7923 c-11 -11 -8 -20 7 -20 8 0 12 6 9 14 -6 15 -7 15 -16 6z"/>
<path d="M3592 7890 c-1 -29 25 -114 27 -89 1 9 7 19 14 22 8 3 13 16 11 29
-1 12 -3 26 -3 31 -2 15 -31 6 -32 -10 -1 -10 -5 -4 -9 12 -7 27 -8 28 -8 5z"/>
<path d="M7115 7895 c-16 -8 -48 -22 -70 -30 -36 -15 -38 -17 -21 -27 15 -8
22 -7 31 6 7 9 18 16 26 16 8 1 28 12 44 25 34 28 32 30 -10 10z"/>
<path d="M6725 7890 c-3 -6 1 -7 9 -4 18 7 21 14 7 14 -6 0 -13 -4 -16 -10z"/>
<path d="M4595 7837 c-25 -72 -67 -137 -124 -190 -58 -54 -106 -80 -198 -106
-37 -11 -58 -20 -45 -20 21 -1 22 -3 10 -23 -14 -26 -12 -49 5 -60 6 -4 8 -10
5 -13 -11 -11 -28 5 -28 27 0 15 -5 19 -20 15 -11 -3 -26 1 -33 8 -19 18 -50
26 -67 15 -12 -7 -10 -12 12 -29 14 -11 28 -30 31 -41 4 -17 0 -20 -26 -21
-28 -1 -26 -2 13 -10 62 -13 195 6 256 37 27 13 42 23 34 20 -18 -4 -24 42 -8
62 6 7 8 16 4 19 -4 4 -10 2 -14 -4 -6 -9 -15 -7 -36 6 l-28 19 33 16 c23 12
35 13 45 5 7 -6 13 -14 12 -17 -2 -17 3 -32 10 -29 4 1 8 -2 10 -8 2 -5 13
-16 25 -23 15 -9 16 -12 4 -8 -10 3 -15 2 -12 -3 3 -6 -3 -14 -12 -20 -10 -6
-15 -11 -10 -11 15 0 93 53 135 94 47 44 95 105 72 91 -8 -5 -11 -4 -6 3 6 11
-28 55 -39 50 -2 -2 -16 6 -31 16 l-25 20 23 19 c13 10 17 15 9 11 -8 -4 -12
-3 -8 2 3 6 18 9 34 8 40 -2 43 -3 42 -11 -6 -35 3 -50 27 -49 26 2 40 23 58
87 6 18 5 20 -3 9 -7 -10 -11 -11 -11 -2 0 6 -8 12 -18 12 -10 0 -22 3 -26 8
-4 4 -13 7 -19 7 -7 0 -13 9 -15 19 -2 11 -10 25 -16 32 -10 10 -16 1 -31 -39z
m-19 -232 c7 -28 14 -31 35 -12 7 6 -4 -7 -26 -30 -36 -39 -58 -54 -53 -35 4
14 -23 52 -33 46 -7 -4 -7 1 0 15 7 11 9 21 6 21 -4 0 -3 5 0 10 3 6 19 10 35
10 23 0 31 -5 36 -25z m-146 -25 c0 -5 -2 -10 -4 -10 -3 0 -8 5 -11 10 -3 6
-1 10 4 10 6 0 11 -4 11 -10z m-157 -177 c-7 -2 -21 -2 -30 0 -10 3 -4 5 12 5
17 0 24 -2 18 -5z"/>
<path d="M6763 7874 c0 -7 7 -16 14 -18 9 -4 11 -1 7 5 -4 8 1 9 16 4 14 -4
20 -3 16 3 -9 16 -53 20 -53 6z"/>
<path d="M8751 7857 c-14 -36 -14 -36 6 -33 22 3 27 20 14 43 -9 16 -11 15
-20 -10z"/>
<path d="M7860 7838 c-14 -18 -23 -41 -22 -55 3 -22 2 -22 -23 -11 -40 18 -54
-2 -32 -47 18 -38 44 -39 49 -2 2 15 10 22 24 22 12 1 31 7 43 15 20 15 20 16
5 60 -9 25 -16 46 -18 47 -1 1 -13 -12 -26 -29z"/>
<path d="M7243 7840 c-30 -12 -29 -30 0 -30 16 0 23 6 23 20 0 11 0 20 -1 19
0 0 -10 -4 -22 -9z"/>
<path d="M6630 7819 c0 -5 -4 -7 -10 -4 -5 3 -10 4 -10 1 0 -10 91 -58 97 -52
4 3 1 6 -5 6 -6 0 -9 6 -6 14 3 9 -7 20 -27 30 -38 19 -39 19 -39 5z m35 -19
c3 -5 2 -10 -4 -10 -5 0 -13 5 -16 10 -3 6 -2 10 4 10 5 0 13 -4 16 -10z"/>
<path d="M5858 7803 c10 -4 8 -9 -5 -19 -14 -12 -11 -11 15 1 17 8 32 17 32
18 0 1 -12 3 -28 3 -15 1 -21 -1 -14 -3z"/>
<path d="M7183 7793 c-3 -10 -8 -21 -10 -26 -3 -4 12 0 31 10 25 11 32 19 24
25 -21 13 -38 9 -45 -9z"/>
<path d="M3766 7775 c7 -17 -18 -45 -39 -45 -20 0 -15 -30 6 -41 8 -5 36 -8
60 -7 l44 3 -35 53 c-35 53 -46 64 -36 37z"/>
<path d="M5573 7753 c-25 -5 -30 -18 -10 -27 6 -3 -15 -4 -48 -2 -40 3 -51 2
-35 -4 14 -4 60 -8 103 -9 71 -1 77 0 63 15 -9 8 -16 20 -16 25 0 9 -17 10
-57 2z"/>
<path d="M3630 7746 c0 -11 30 -66 36 -66 2 0 -3 15 -12 33 -19 36 -24 44 -24
33z"/>
<path d="M5500 7740 c0 -5 9 -10 21 -10 11 0 17 5 14 10 -3 6 -13 10 -21 10
-8 0 -14 -4 -14 -10z"/>
<path d="M6963 7733 c9 -2 25 -2 35 0 9 3 1 5 -18 5 -19 0 -27 -2 -17 -5z"/>
<path d="M6908 7713 c23 -2 59 -2 80 0 20 2 1 4 -43 4 -44 0 -61 -2 -37 -4z"/>
<path d="M8635 7660 c-20 -21 -24 -30 -14 -30 20 0 63 46 51 54 -5 3 -22 -8
-37 -24z"/>
<path d="M8793 7673 c-18 -7 -16 -33 1 -33 8 0 18 5 22 12 5 7 3 8 -6 3 -10
-6 -12 -4 -7 8 3 10 5 17 4 16 -1 0 -8 -3 -14 -6z"/>
<path d="M3758 7560 c48 -51 135 -116 105 -79 -10 13 -10 15 5 14 34 -3 59
-16 59 -31 0 -8 -6 -13 -14 -10 -7 3 -13 3 -13 0 0 -9 84 -44 105 -44 13 0 16
3 8 8 -9 6 -7 15 7 37 23 34 26 71 8 78 -7 3 3 4 22 1 l35 -4 -36 14 c-19 7
-55 24 -79 36 -31 16 -41 18 -32 7 11 -13 10 -18 -7 -29 -12 -8 -18 -18 -14
-21 15 -16 -11 -5 -44 17 -32 22 -38 23 -66 11 -30 -13 -34 -12 -67 18 -19 18
-11 7 18 -23z m43 -27 c13 -16 12 -17 -3 -4 -10 7 -18 15 -18 17 0 8 8 3 21
-13z"/>
<path d="M5288 7603 c12 -2 20 -8 17 -13 -3 -5 3 -14 14 -19 11 -6 26 -18 34
-26 13 -13 19 -13 44 0 37 18 83 26 83 14 0 -5 8 -9 18 -8 12 0 13 2 3 6 -10
4 -8 9 10 19 22 12 23 13 4 16 -11 1 66 5 170 8 172 5 160 6 -115 6 -168 1
-295 -1 -282 -3z"/>
<path d="M6768 7599 c50 -6 97 -5 115 0 24 7 2 9 -83 9 l-115 -1 83 -8z"/>
<path d="M7029 7599 c51 -10 65 -19 30 -20 -22 0 -23 -1 -4 -9 37 -16 72 -10
99 15 l27 25 -98 -1 c-84 -1 -92 -2 -54 -10z"/>
<path d="M8069 7596 c8 -9 9 -16 3 -16 -6 0 -10 -9 -9 -19 1 -22 37 -25 37 -4
0 7 4 13 9 13 5 0 7 -8 4 -18 -5 -21 16 -26 33 -7 8 8 -3 19 -40 39 -30 17
-45 22 -37 12z"/>
<path d="M5104 7562 c-117 -52 -209 -129 -281 -234 -109 -157 -123 -201 -77
-237 49 -38 92 -23 125 42 12 23 36 62 53 87 31 45 42 85 27 105 -8 10 11 56
24 56 4 0 12 -7 19 -17 8 -11 18 -14 27 -9 8 4 -4 -12 -26 -35 -32 -35 -27
-32 28 16 l67 59 -25 20 c-25 21 -37 63 -13 49 8 -5 9 -2 5 9 -5 13 -1 17 15
17 20 0 20 1 4 19 -17 19 -17 20 3 30 11 7 32 9 46 5 22 -5 24 -11 22 -46 -2
-21 0 -41 5 -44 5 -3 4 -12 -2 -19 -8 -10 4 -8 44 5 30 11 63 20 73 21 16 0
15 2 -2 9 -11 5 -15 9 -10 10 16 1 -38 40 -57 40 -9 0 -20 5 -24 12 -5 7 -2 9
8 6 11 -5 15 0 14 15 -1 12 3 25 9 29 26 19 -46 5 -101 -20z m-122 -128 c-4
-35 -16 -49 -32 -39 -9 6 -9 9 1 16 11 6 10 9 -4 15 -17 6 -17 7 -1 25 24 26
40 18 36 -17z m-119 -289 c-3 -9 -8 -14 -10 -11 -3 3 -2 9 2 15 9 16 15 13 8
-4z"/>
<path d="M5748 7583 c17 -2 47 -2 65 0 17 2 3 4 -33 4 -36 0 -50 -2 -32 -4z"/>
<path d="M6475 7570 c-22 -11 -31 -17 -20 -14 11 3 35 10 53 14 40 10 53 20
26 20 -10 0 -37 -9 -59 -20z"/>
<path d="M7305 7580 c11 -5 27 -9 35 -9 9 0 8 4 -5 9 -11 5 -27 9 -35 9 -9 0
-8 -4 5 -9z"/>
<path d="M8440 7546 l-64 -23 37 -7 c39 -7 61 -1 52 15 -4 5 0 9 8 9 8 0 20 7
27 15 7 8 11 15 9 14 -2 -1 -33 -11 -69 -23z"/>
<path d="M4103 7523 c9 -2 25 -2 35 0 9 3 1 5 -18 5 -19 0 -27 -2 -17 -5z"/>
<path d="M5598 7524 c-3 -3 -29 -5 -57 -6 -43 0 -49 -2 -36 -14 8 -9 38 -15
77 -16 58 -2 56 -2 -27 -8 -82 -6 -77 -6 50 -6 77 0 120 1 95 3 -27 3 -39 7
-31 12 10 6 9 12 -4 25 -16 15 -56 22 -67 10z"/>
<path d="M6125 7515 c11 -9 19 -24 17 -35 -2 -15 2 -18 21 -15 15 3 30 -2 41
-14 17 -19 17 -20 -4 -33 -12 -7 -28 -28 -36 -47 -16 -38 -18 -53 -5 -32 10
16 45 25 104 25 30 1 39 5 43 23 3 12 12 24 20 27 8 3 14 12 14 20 0 7 6 16
14 19 7 3 15 19 18 36 5 36 -5 32 -75 -29 l-48 -42 -47 45 c-27 24 -59 50 -73
56 -23 12 -23 11 -4 -4z"/>
<path d="M7452 7525 c4 -5 3 -14 -3 -21 -15 -18 -2 -54 19 -54 27 0 45 16 37
31 -5 8 2 5 16 -6 l24 -20 -20 24 c-11 12 -33 30 -50 38 -16 9 -27 12 -23 8z"/>
<path d="M8613 7491 c-18 -16 -34 -27 -37 -24 -7 8 -47 -17 -41 -27 3 -4 -1
-11 -7 -14 -7 -3 -2 -3 12 0 26 7 140 72 140 80 0 3 -4 2 -10 -1 -5 -3 -10 -1
-10 4 0 18 -14 13 -47 -18z"/>
<path d="M7997 7495 c-5 -11 8 -22 43 -40 54 -27 64 -30 55 -15 -3 6 -1 10 5
10 6 0 8 5 4 11 -4 6 -19 9 -38 5 -22 -4 -27 -3 -16 4 17 11 7 24 -26 34 -15
4 -24 2 -27 -9z"/>
<path d="M5338 7493 c7 -3 16 -2 19 1 4 3 -2 6 -13 5 -11 0 -14 -3 -6 -6z"/>
<path d="M5960 7484 c0 -4 8 -13 18 -20 16 -13 16 -13 -3 -14 -17 0 -17 -2 -5
-10 20 -13 33 -13 25 0 -3 6 -1 10 6 10 7 0 5 8 -6 20 -18 20 -35 26 -35 14z"/>
<path d="M6501 7483 c-25 -10 -50 -42 -48 -62 1 -19 2 -19 42 2 22 11 63 26
90 34 49 13 49 13 8 8 -35 -4 -41 -2 -37 10 5 11 0 15 -17 14 -13 0 -30 -3
-38 -6z"/>
<path d="M5318 7473 c12 -2 32 -2 45 0 12 2 2 4 -23 4 -25 0 -35 -2 -22 -4z"/>
<path d="M5803 7473 c9 -2 25 -2 35 0 9 3 1 5 -18 5 -19 0 -27 -2 -17 -5z"/>
<path d="M5908 7463 c7 -3 16 -2 19 1 4 3 -2 6 -13 5 -11 0 -14 -3 -6 -6z"/>
<path d="M7213 7463 c9 -2 23 -2 30 0 6 3 -1 5 -18 5 -16 0 -22 -2 -12 -5z"/>
<path d="M7275 7450 c11 -5 27 -9 35 -9 9 0 8 4 -5 9 -11 5 -27 9 -35 9 -9 0
-8 -4 5 -9z"/>
<path d="M7579 7422 c28 -41 29 -46 15 -67 -8 -12 -14 -27 -13 -31 4 -24 -3
-34 -24 -34 -33 0 -38 -9 -21 -36 15 -23 49 -23 41 0 -10 27 12 43 58 40 l46
-3 -20 32 c-12 18 -25 31 -31 30 -5 -2 -7 3 -5 10 3 6 -13 32 -35 57 l-41 45
30 -43z m-20 -176 c-3 -3 -11 5 -18 17 -13 21 -12 21 5 5 10 -10 16 -20 13
-22z"/>
<path d="M8308 7423 c-10 -2 -18 -8 -18 -13 0 -5 -10 -11 -22 -13 -13 -2 3 -5
35 -6 51 -1 57 1 57 19 0 20 -14 23 -52 13z"/>
<path d="M6030 7417 c0 -3 12 -12 26 -22 15 -9 23 -12 20 -6 -7 11 -46 35 -46
28z"/>
<path d="M7410 7409 c0 -6 -4 -7 -10 -4 -25 15 -7 -6 23 -26 30 -21 31 -21 14
-2 -13 15 -15 22 -6 25 9 3 8 6 -4 11 -9 3 -17 2 -17 -4z"/>
<path d="M6326 7338 c-19 -27 -22 -89 -4 -85 7 1 23 19 36 41 17 30 20 42 11
52 -16 19 -25 18 -43 -8z"/>
<path d="M3958 7320 c-79 -14 -179 -50 -248 -90 -81 -48 -191 -146 -188 -168
2 -9 -3 -17 -10 -17 -19 0 -78 -98 -112 -185 -54 -142 -53 -118 -54 -1465 -1
-1387 -5 -1309 65 -1446 112 -222 402 -305 624 -180 l51 29 27 -20 c58 -42
136 -62 247 -63 101 0 108 2 180 36 108 52 161 104 212 205 41 84 42 86 49
227 4 78 6 510 4 959 -1 449 -1 819 2 822 3 2 29 -11 59 -30 30 -19 59 -32 64
-29 6 4 9 1 8 -7 -4 -17 320 -180 347 -174 11 2 34 -2 50 -10 30 -14 28 -14
-35 3 -38 9 78 -39 159 -67 57 -19 101 -29 118 -25 21 4 23 3 9 -3 -15 -6 10
-16 100 -39 167 -44 175 -45 228 -33 46 10 48 10 88 -25 63 -53 137 -78 238
-79 103 -1 170 20 239 74 46 37 51 38 87 28 40 -11 79 -7 188 19 52 13 64 19
50 25 -13 6 -10 7 9 3 33 -7 239 53 231 66 -3 5 2 6 10 3 13 -5 266 92 266
103 0 2 -9 2 -20 -2 -15 -5 -18 -3 -14 9 3 9 13 12 22 9 13 -4 12 -2 -3 10
-20 16 -19 16 8 17 16 0 37 -5 48 -10 15 -9 28 -6 59 11 21 12 36 27 33 32 -3
6 -1 7 6 3 12 -8 129 56 167 91 11 10 15 15 9 11 -6 -4 -10 5 -11 24 -1 36
-26 64 -46 52 -7 -5 -23 -9 -36 -9 -17 -1 -22 4 -19 16 3 12 -20 2 -82 -33
-109 -63 -179 -98 -261 -131 -36 -14 -90 -37 -120 -51 -43 -19 -48 -24 -22
-19 44 8 40 -9 -6 -30 -44 -19 -68 -21 -77 -7 -3 6 -1 10 6 10 7 0 10 2 7 5
-2 3 -66 -13 -140 -35 -75 -22 -145 -40 -156 -40 -35 0 -52 37 -52 113 0 41
-8 91 -20 127 -32 96 -28 105 57 131 41 13 69 27 66 32 -4 7 1 8 12 3 10 -3
40 1 66 9 45 15 47 18 38 42 -11 28 -47 62 -68 63 -8 0 -19 7 -25 15 -10 14
-18 14 -76 -4 -36 -11 -84 -25 -108 -31 -27 -7 -40 -15 -36 -22 5 -7 2 -9 -9
-5 -10 4 -25 -3 -39 -18 -18 -18 -29 -22 -53 -18 -16 4 -35 12 -42 19 -13 13
-101 29 -111 20 -3 -3 3 -6 14 -6 16 0 17 -2 4 -10 -8 -5 -28 -10 -44 -10 -21
0 -27 4 -22 15 8 23 -49 19 -116 -9 l-57 -23 -35 29 c-25 20 -68 38 -141 57
-58 16 -102 25 -99 20 7 -12 -37 -11 -55 0 -7 5 -11 13 -8 18 4 5 -48 30 -114
56 -67 25 -118 43 -115 40 8 -8 -13 -33 -28 -33 -6 0 -17 13 -23 29 -9 26 -9
29 6 25 9 -3 5 1 -9 9 -18 11 -28 12 -38 4 -10 -8 -16 -7 -21 2 -5 7 -12 12
-17 11 -5 -1 -10 3 -12 9 -2 7 4 9 15 5 17 -5 17 -5 0 6 -9 6 -22 8 -27 5 -6
-4 -9 -2 -8 4 2 6 -28 28 -65 50 -37 22 -65 35 -61 30 4 -7 -2 -9 -15 -7 -12
1 -20 7 -19 13 2 5 7 9 11 7 5 -1 6 2 2 7 -3 6 -13 7 -22 4 -10 -4 -14 -2 -10
4 6 9 -11 25 -102 98 -14 11 -21 13 -16 6 6 -11 4 -13 -9 -8 -9 4 -15 3 -12
-2 8 -13 -18 -21 -35 -11 -7 5 -14 25 -14 44 0 33 1 34 20 18 11 -9 -10 16
-45 57 -36 40 -89 103 -118 140 -56 69 -100 116 -72 76 12 -17 12 -18 0 -7 -8
7 -15 20 -15 30 0 9 -6 16 -13 14 -8 -1 -11 2 -7 9 5 6 -25 44 -71 90 -65 66
-82 78 -106 75 -15 -2 -25 1 -22 5 3 5 0 9 -5 9 -6 0 -11 5 -11 10 0 6 12 3
28 -6 l27 -16 -25 21 c-31 26 -181 101 -201 100 -8 0 -2 -5 13 -11 l27 -9 -24
-23 c-14 -13 -25 -28 -25 -34 0 -6 -4 -14 -10 -17 -5 -3 -9 2 -8 12 3 39 -3
53 -22 53 -10 0 -24 10 -31 21 -11 21 -9 21 27 16 l39 -6 -45 15 c-25 9 -88
17 -140 19 -65 3 -82 1 -55 -4 23 -5 30 -9 18 -10 -13 0 -23 -5 -23 -11 0 -12
-47 -12 -75 0 -18 8 -17 9 8 9 15 1 27 6 27 11 0 6 -3 9 -7 9 -5 -1 -29 -5
-55 -9z m-98 -50 c-20 -13 -43 -13 -35 0 3 6 16 10 28 10 18 0 19 -2 7 -10z
m145 -70 c4 -6 -5 -10 -20 -10 -15 0 -24 4 -20 10 3 6 12 10 20 10 8 0 17 -4
20 -10z m192 -6 c-3 -3 -12 -4 -19 -1 -8 3 -5 6 6 6 11 1 17 -2 13 -5z m44
-30 c141 -41 250 -124 377 -284 37 -47 73 -85 79 -85 7 0 18 -7 25 -15 11 -12
11 -12 -4 -1 -11 8 -18 9 -18 3 0 -6 53 -66 118 -133 137 -143 265 -249 292
-242 17 4 35 -11 35 -31 0 -16 209 -126 230 -121 11 3 14 2 7 -1 -25 -11 168
-92 377 -158 62 -20 121 -41 129 -48 12 -10 14 -10 8 -1 -5 9 -2 11 9 7 17 -7
30 -46 22 -66 -3 -7 -6 -3 -6 9 -1 12 -4 24 -8 26 -8 5 -11 -19 -15 -91 -1
-18 -5 -28 -8 -21 -11 17 -20 -28 -20 -99 0 -130 -16 -132 -329 -31 -68 22
-179 65 -247 95 -68 30 -129 52 -136 48 -6 -4 -8 -3 -5 3 4 6 -29 30 -73 54
-113 62 -308 204 -414 301 -49 46 -93 82 -97 81 -8 -3 -38 29 -37 41 1 18 -73
94 -98 100 -56 14 -110 -33 -97 -85 7 -28 93 -120 105 -113 5 3 7 2 6 -3 -5
-14 60 -87 137 -152 l76 -65 -3 -990 -3 -991 -22 -55 c-26 -63 -86 -126 -153
-161 -36 -19 -61 -24 -125 -24 -103 0 -150 21 -176 79 -17 39 -18 71 -12 596
6 546 6 555 -14 580 -28 33 -88 34 -114 1 -18 -22 -19 -51 -19 -580 0 -631 3
-603 -81 -651 -37 -21 -57 -25 -129 -25 -69 0 -93 5 -127 23 -69 36 -111 80
-145 151 l-33 66 -5 360 c-3 198 -5 772 -5 1275 1 825 3 922 18 989 49 211
208 378 417 437 66 18 245 17 311 -2z m49 6 c18 -12 2 -12 -25 0 -13 6 -15 9
-5 9 8 0 22 -4 30 -9z m341 -87 c18 -20 26 -31 17 -24 -11 8 -18 9 -18 3 0 -6
-10 -14 -22 -17 -13 -4 -32 -18 -43 -30 l-21 -23 -39 33 -39 32 42 -4 c36 -3
42 -1 42 15 0 23 22 34 48 25 15 -6 15 -5 3 10 -25 31 -5 18 30 -20z m219
-265 l33 -43 -31 29 c-26 24 -32 26 -32 12 0 -9 -5 -14 -10 -11 -8 5 -7 11 0
20 7 8 9 19 5 25 -15 25 4 7 35 -32z m-427 -325 c-7 -2 -19 -2 -25 0 -7 3 -2
5 12 5 14 0 19 -2 13 -5z m1227 -343 c8 -5 11 -10 5 -10 -5 0 -17 5 -25 10 -8
5 -10 10 -5 10 6 0 17 -5 25 -10z m545 -110 c-4 -6 15 -10 49 -10 30 0 62 -3
72 -7 12 -4 15 -3 10 5 -4 7 -1 12 8 12 8 0 18 -4 21 -10 3 -5 0 -10 -7 -10
-15 0 62 -55 77 -55 5 0 10 -7 11 -15 0 -8 8 -32 17 -52 33 -72 16 -180 -36
-236 -12 -13 -43 -35 -69 -48 -112 -57 -248 -9 -309 108 -32 62 -23 159 19
210 7 9 15 24 16 34 2 9 9 18 18 20 8 1 32 11 54 23 21 12 31 20 22 17 -26 -8
-22 3 5 14 29 12 29 12 22 0z m410 -148 l7 -34 -26 23 c-29 25 -31 34 -13 53
14 16 21 7 32 -42z m703 -10 c2 -7 -3 -12 -12 -12 -9 0 -16 7 -16 16 0 17 22
14 28 -4z m-2178 -77 c25 -13 41 -24 35 -24 -5 0 -30 11 -55 24 -25 13 -40 24
-35 24 6 0 30 -11 55 -24z m891 -88 c-13 -13 -31 0 -24 19 4 11 8 12 20 3 9
-8 10 -16 4 -22z m739 -26 c0 -21 -28 -31 -56 -20 -27 10 -28 12 -9 19 27 12
65 12 65 1z m360 -1 c-8 -5 -19 -10 -25 -10 -5 0 -3 5 5 10 8 5 20 10 25 10 6
0 3 -5 -5 -10z m-450 -130 c-14 -4 -38 -8 -55 -8 l-30 0 30 8 c17 4 41 8 55 8
l25 0 -25 -8z"/>
<path d="M4540 6396 c0 -2 8 -10 18 -17 15 -13 16 -12 3 4 -13 16 -21 21 -21
13z"/>
<path d="M8270 7314 c-70 -15 -154 -44 -147 -50 2 -3 17 0 33 6 19 8 30 8 32
1 2 -5 10 -7 18 -4 7 3 11 9 9 14 -10 15 42 21 89 11 49 -10 56 -8 56 20 0 21
-3 21 -90 2z"/>
<path d="M8520 7310 c14 -4 36 -8 50 -8 23 -1 23 0 5 8 -11 5 -33 8 -50 8 -29
0 -29 0 -5 -8z"/>
<path d="M8526 7286 c3 -8 12 -12 21 -9 12 5 12 7 1 14 -20 13 -28 11 -22 -5z"/>
<path d="M6183 7233 c-10 -4 -13 -106 -13 -463 l0 -459 26 -20 c15 -12 37 -21
49 -21 12 0 34 9 49 21 l26 20 -2 197 c0 108 -3 182 -5 163 -4 -32 -5 -33 -19
-12 -13 17 -13 33 -3 108 9 58 15 80 20 67 4 -10 7 62 6 161 0 99 -2 158 -4
130 -4 -56 -20 -95 -40 -95 -7 0 -13 -5 -13 -11 0 -6 -7 -9 -15 -6 -11 5 -13
0 -9 -21 6 -36 -9 -60 -29 -44 -7 7 -17 9 -20 5 -4 -3 -7 30 -7 75 0 66 3 80
14 76 8 -3 17 0 21 6 5 8 11 8 21 -1 11 -9 14 -8 14 5 0 8 11 18 25 22 29 7
31 16 10 38 -8 8 -15 19 -15 25 0 10 -38 27 -52 23 -5 -1 -8 3 -8 8 0 11 -7
12 -27 3z"/>
<path d="M8491 7220 c-8 -4 -10 -13 -7 -19 4 -6 1 -12 -6 -12 -17 -2 41 -17
67 -17 14 0 10 3 -10 10 -26 10 -27 12 -10 18 19 7 19 7 -1 18 -11 6 -26 7
-33 2z"/>
<path d="M8215 7190 c-3 -5 0 -10 7 -10 8 -1 5 -7 -7 -16 -19 -15 -19 -15 10
-8 17 4 39 11 50 15 17 7 17 8 3 8 -10 1 -18 6 -18 11 0 6 -9 10 -19 10 -11 0
-23 -4 -26 -10z"/>
<path d="M8835 7191 c6 -11 4 -13 -9 -8 -11 5 -16 3 -14 -5 6 -16 36 -19 34
-2 -1 7 -6 17 -11 21 -4 5 -5 2 0 -6z"/>
<path d="M7935 7157 c-30 -26 -34 -33 -18 -34 10 -1 30 7 43 18 15 11 19 19
11 19 -11 0 -11 3 -1 15 20 25 6 17 -35 -18z"/>
<path d="M8660 7130 c8 -5 20 -10 25 -10 6 0 3 5 -5 10 -8 5 -19 10 -25 10 -5
0 -3 -5 5 -10z"/>
<path d="M8030 7096 c0 -35 11 -38 49 -14 36 23 28 38 -21 38 -23 0 -28 -4
-28 -24z"/>
<path d="M7644 7097 c-5 -15 -9 -15 -23 -5 -14 11 -14 11 -4 -3 8 -10 24 -14
45 -13 30 3 31 3 8 -5 l-25 -9 26 -1 c15 -1 37 8 50 20 13 11 18 18 12 14 -7
-3 -13 -3 -13 2 0 4 -11 8 -25 8 -14 0 -25 -4 -25 -10 0 -5 -4 -3 -10 5 -8 12
-10 12 -16 -3z"/>
<path d="M8770 7066 c0 -2 8 -10 18 -17 15 -13 16 -12 3 4 -13 16 -21 21 -21
13z"/>
<path d="M8971 7027 c-15 -39 -14 -42 14 -42 33 0 39 18 15 47 l-18 23 -11
-28z m29 -7 c6 -11 8 -20 6 -20 -3 0 -10 9 -16 20 -6 11 -8 20 -6 20 3 0 10
-9 16 -20z"/>
<path d="M7906 6968 c-13 -15 -15 -23 -8 -26 7 -2 9 -9 6 -15 -4 -7 3 -2 16 9
16 16 20 26 13 38 -8 14 -11 13 -27 -6z"/>
<path d="M7736 6941 c-10 -11 -15 -24 -12 -30 4 -5 1 -13 -5 -17 -8 -5 -9 -3
-4 7 8 12 6 12 -8 0 -9 -7 -17 -14 -17 -15 0 -1 16 -3 35 -4 28 -2 35 1 35 16
0 10 5 23 10 28 8 8 7 14 -3 22 -11 9 -18 8 -31 -7z"/>
<path d="M8897 6946 c-3 -8 -3 -17 0 -20 9 -9 34 15 27 25 -8 13 -21 11 -27
-5z"/>
<path d="M7627 6806 c-55 -62 -56 -64 -36 -78 16 -10 22 -26 24 -61 4 -55 11
-70 29 -60 22 13 70 74 55 71 -20 -5 -43 50 -29 67 8 10 8 24 1 51 -9 31 -8
41 6 56 9 10 14 18 11 18 -2 0 -30 -29 -61 -64z"/>
<path d="M9042 6857 c-5 -7 -13 -22 -16 -34 -6 -19 -2 -23 26 -31 18 -5 35 -5
36 0 2 4 8 6 13 2 12 -7 11 6 -1 42 -11 31 -41 42 -58 21z"/>
<path d="M7790 6845 c-10 -12 -10 -18 0 -30 6 -8 8 -20 4 -26 -15 -25 16 2 38
33 12 17 17 28 10 24 -7 -4 -12 -2 -12 3 0 16 -26 13 -40 -4z"/>
<path d="M8967 6781 c3 -14 12 -42 19 -61 10 -28 13 -30 13 -12 1 13 5 20 11
17 11 -7 12 17 1 55 -4 16 -14 25 -29 26 -19 1 -21 -3 -15 -25z"/>
<path d="M7729 6753 c-1 -5 -3 -18 -4 -31 -2 -23 -2 -23 26 4 16 15 26 30 23
33 -3 3 -9 -1 -14 -9 -7 -10 -10 -11 -10 -2 0 13 -19 17 -21 5z"/>
<path d="M9121 6704 c0 -11 3 -14 6 -6 3 7 2 16 -1 19 -3 4 -6 -2 -5 -13z"/>
<path d="M7499 6674 c-13 -14 -58 -52 -100 -86 l-77 -60 15 -29 c8 -16 21 -29
28 -29 8 0 16 -9 20 -19 11 -35 42 -31 100 11 58 44 74 70 55 94 -7 8 -13 43
-14 79 0 36 -1 65 -2 65 0 0 -11 -12 -25 -26z m-82 -148 c-12 -17 -22 -23 -37
-19 -15 4 -18 9 -11 16 15 15 14 30 -1 22 -7 -4 -2 3 11 15 22 18 26 19 39 6
13 -13 13 -18 -1 -40z"/>
<path d="M9131 6255 c-2 -214 -5 -382 -8 -372 -4 15 -15 21 -35 18 -5 0 -8 5
-8 12 0 8 -4 7 -11 -3 -9 -13 -10 -12 -5 3 7 23 -3 47 -20 47 -8 0 -14 5 -14
11 0 5 -4 7 -10 4 -5 -3 -10 1 -10 10 0 9 5 13 10 10 6 -3 10 1 10 9 0 19 5
20 29 6 13 -6 24 -5 39 6 20 14 22 24 22 110 0 56 -4 94 -10 94 -5 0 -11 -10
-11 -22 -3 -50 -7 -69 -14 -76 -5 -4 -5 1 -2 10 3 10 2 20 -3 23 -6 4 -10 -4
-11 -17 -1 -23 -1 -23 -9 2 -5 17 -8 19 -9 8 -2 -32 -21 -19 -22 15 -2 31 -2
31 -9 -8 -4 -23 -8 52 -9 173 0 119 3 212 8 212 5 0 8 11 7 25 0 14 -4 25 -8
25 -4 0 -9 10 -11 23 -2 12 -5 -446 -7 -1018 -2 -1200 -6 -1447 -21 -1495 -37
-113 -111 -195 -202 -226 -95 -32 -219 -15 -267 36 -22 23 -30 27 -41 17 -10
-10 -11 -9 -4 3 6 9 8 237 5 597 -4 461 -8 585 -18 595 -11 11 -12 10 -6 -6 5
-13 4 -17 -3 -13 -6 4 -13 0 -17 -8 -11 -31 -52 -16 -47 18 0 4 -5 8 -12 8 -6
1 6 5 28 9 l40 7 -37 2 c-49 1 -79 -26 -77 -71 1 -23 3 -26 6 -11 4 19 7 20
22 11 12 -7 16 -19 13 -37 -6 -31 -23 -45 -34 -28 -4 7 -8 -208 -8 -478 0
-326 -4 -503 -11 -530 -14 -51 -73 -110 -124 -124 -57 -16 -160 -14 -202 4
-59 25 -104 65 -123 109 -17 38 -18 109 -22 1073 l-3 1032 40 34 40 35 -37 18
c-30 14 -38 23 -38 45 0 31 23 44 52 28 11 -6 26 -8 34 -5 11 4 13 0 8 -18 -8
-33 19 -40 44 -13 26 28 17 44 -28 52 -43 7 -49 13 -52 48 l-2 27 -36 -33
c-31 -30 -144 -124 -208 -174 l-23 -18 47 0 c37 0 48 -4 50 -17 1 -10 -2 -18
-7 -18 -5 0 -9 -7 -9 -15 0 -17 30 -35 58 -35 11 0 23 -8 26 -17 6 -15 8 -15
16 -3 7 10 10 -1 10 -37 l0 -52 -27 14 c-14 7 -30 20 -34 27 -7 11 -9 10 -9
-1 0 -9 -4 -10 -12 -4 -20 16 -66 24 -73 13 -3 -6 1 -7 9 -4 14 5 16 -101 18
-983 l3 -988 23 -57 c32 -79 101 -149 187 -190 67 -31 75 -33 185 -33 127 0
186 18 263 77 l37 29 42 -35 c62 -54 124 -71 253 -71 103 0 114 2 177 32 118
55 203 152 250 283 l23 65 3 1055 c1 580 1 1154 0 1275 -3 158 -4 109 -7 -170z
m-1351 -68 c1 4 9 -2 20 -15 10 -13 22 -22 26 -22 14 2 24 -39 11 -47 -20 -13
-31 -10 -56 11 -13 12 -21 15 -17 9 5 -9 2 -11 -8 -7 -8 3 -19 18 -24 34 -13
35 2 54 30 39 10 -5 18 -6 18 -2z m-73 -264 c-3 -10 -5 -4 -5 12 0 17 2 24 5
18 2 -7 2 -21 0 -30z m1327 -20 c8 3 11 -9 9 -37 -3 -66 -4 -73 -10 -57 -5 11
-7 11 -14 0 -5 -9 -8 13 -8 56 1 39 3 62 6 52 3 -10 10 -16 17 -14z m66 -92
c6 -13 7 -21 2 -17 -6 3 -13 0 -15 -6 -3 -7 -6 2 -6 21 -1 37 0 38 19 2z m27
-103 c-2 -24 -4 -5 -4 42 0 47 2 66 4 43 2 -24 2 -62 0 -85z m-62 92 c3 -5 1
-10 -4 -10 -6 0 -11 5 -11 10 0 6 2 10 4 10 3 0 8 -4 11 -10z m-48 -172 c-2
-13 -4 -3 -4 22 0 25 2 35 4 23 2 -13 2 -33 0 -45z m113 -220 c0 -122 -2 -219
-4 -217 -4 4 -10 335 -7 407 0 17 3 32 6 32 3 0 5 -100 5 -222z m-95 42 c10
-19 14 -32 10 -28 -5 4 -14 3 -22 -3 -10 -9 -13 -3 -13 31 0 49 1 49 25 0z
m65 11 c0 -6 -4 -13 -10 -16 -5 -3 -10 1 -10 9 0 9 5 16 10 16 6 0 10 -4 10
-9z m-83 -243 c-3 -7 -5 -2 -5 12 0 14 2 19 5 13 2 -7 2 -19 0 -25z m112 -135
c-1 -32 -4 -46 -6 -30 -2 15 -9 27 -14 27 -5 0 -9 9 -9 21 0 11 5 17 10 14 6
-3 10 1 10 9 0 9 2 16 5 16 3 0 4 -26 4 -57z m-112 -40 c-2 -16 -4 -3 -4 27 0
30 2 43 4 28 2 -16 2 -40 0 -55z m110 -180 c-2 -16 -4 -3 -4 27 0 30 2 43 4
28 2 -16 2 -40 0 -55z m-110 0 c-3 -10 -5 -4 -5 12 0 17 2 24 5 18 2 -7 2 -21
0 -30z m0 -260 c-3 -10 -5 -4 -5 12 0 17 2 24 5 18 2 -7 2 -21 0 -30z m110
-170 c-3 -10 -5 -2 -5 17 0 19 2 27 5 18 2 -10 2 -26 0 -35z m0 -205 c-3 -7
-5 -2 -5 12 0 14 2 19 5 13 2 -7 2 -19 0 -25z m-76 -305 c-5 -10 -17 -27 -26
-38 -16 -19 -17 -19 -3 5 26 46 29 50 34 50 3 0 0 -8 -5 -17z m-358 -200 c-13
-2 -35 -2 -50 0 -16 2 -5 4 22 4 28 0 40 -2 28 -4z"/>
<path d="M7243 6483 l-61 -36 44 -34 c24 -19 44 -41 44 -50 0 -10 6 -14 20
-10 12 3 17 1 14 -5 -3 -5 3 -4 15 4 24 15 25 21 9 49 -11 17 -10 23 0 26 6 3
10 9 6 14 -3 5 0 9 5 9 19 0 12 18 -10 25 -12 4 -18 12 -15 21 10 26 -11 22
-71 -13z"/>
<path d="M8034 6487 l-27 -23 34 2 c44 2 43 2 30 18 -10 11 -8 15 6 19 16 4
16 5 1 6 -9 0 -29 -9 -44 -22z"/>
<path d="M8114 6469 c-9 -14 5 -79 17 -79 13 0 30 46 23 64 -7 19 -32 28 -40
15z"/>
<path d="M7116 6411 c-3 -5 1 -14 9 -21 11 -9 14 -8 12 9 -1 22 -12 28 -21 12z"/>
<path d="M7952 6397 c-24 -26 -21 -37 8 -30 13 4 19 13 18 29 -1 13 -3 24 -3
24 -1 0 -11 -10 -23 -23z m18 -1 c0 -2 -8 -10 -17 -17 -16 -13 -17 -12 -4 4
13 16 21 21 21 13z"/>
<path d="M6976 6346 l-49 -22 31 -23 c18 -12 31 -25 29 -29 -3 -12 27 -48 46
-55 19 -7 57 8 69 26 4 6 -8 21 -25 34 -18 13 -33 29 -33 36 -1 7 -2 22 -3 35
-1 26 -3 26 -65 -2z"/>
<path d="M7156 6345 c-12 -32 26 -72 53 -56 18 12 18 17 -2 38 -9 11 -14 23
-10 26 3 4 -3 7 -14 7 -12 0 -23 -7 -27 -15z"/>
<path d="M8027 6333 c-4 -3 -7 -15 -7 -25 0 -14 6 -19 23 -16 29 4 38 48 9 48
-10 0 -22 -3 -25 -7z"/>
<path d="M6846 6275 c4 -8 13 -15 21 -15 13 0 13 3 3 15 -7 8 -16 15 -21 15
-5 0 -6 -7 -3 -15z"/>
<path d="M6870 6234 c0 -7 9 -16 20 -19 11 -3 20 -15 20 -25 0 -10 4 -21 9
-24 12 -8 75 15 64 23 -5 3 -17 17 -26 31 -12 17 -27 25 -52 26 -22 0 -35 -4
-35 -12z"/>
<path d="M5166 5179 l-26 -20 0 -573 c0 -631 0 -629 63 -723 37 -55 121 -116
187 -134 25 -8 77 -13 116 -13 59 1 82 6 135 32 35 17 72 37 81 44 14 10 21 9
41 -10 65 -61 217 -81 322 -41 77 29 155 102 191 181 l28 63 7 335 c4 184 8
448 8 586 1 236 0 252 -18 268 -26 24 -88 23 -112 0 -17 -18 -19 -53 -25 -574
-3 -340 -10 -569 -16 -590 -16 -51 -44 -87 -92 -115 -69 -40 -172 -30 -219 22
-16 18 -16 23 -2 57 13 32 15 113 13 612 -3 557 -4 576 -22 590 -29 21 -82 18
-106 -6 -20 -20 -20 -33 -20 -567 0 -365 -4 -561 -11 -588 -21 -78 -85 -134
-170 -150 -76 -14 -172 36 -209 111 -19 39 -20 58 -20 608 l0 567 -25 24 c-30
30 -64 32 -99 4z"/>
<path d="M6716 5167 l-23 -23 -4 -375 c-2 -206 -4 -468 -4 -584 l0 -210 32
-66 c38 -78 93 -131 172 -167 78 -37 211 -38 286 -4 74 34 118 68 152 115 60
83 61 86 67 637 3 279 2 523 -3 545 -8 38 -9 38 -11 10 -2 -28 -3 -27 -10 10
-8 43 -1 71 11 39 6 -17 8 -16 14 9 15 58 -58 107 -109 74 -33 -22 -36 -82
-36 -651 0 -308 -4 -495 -11 -519 -6 -21 -26 -56 -45 -77 -93 -103 -255 -90
-334 27 l-25 37 4 576 3 577 -27 21 c-36 28 -70 28 -99 -1z m561 -94 c-3 -10
-5 -2 -5 17 0 19 2 27 5 18 2 -10 2 -26 0 -35z"/>
</g>
</svg>
