<?xml version="1.0" standalone="no"?>
<!DOCTYPE svg PUBLIC "-//W3C//DTD SVG 20010904//EN"
 "http://www.w3.org/TR/2001/REC-SVG-20010904/DTD/svg10.dtd">
<svg version="1.0" xmlns="http://www.w3.org/2000/svg"
 width="1254.000000pt" height="1254.000000pt" viewBox="0 0 1254.000000 1254.000000"
 preserveAspectRatio="xMidYMid meet">

<g transform="translate(0.000000,1254.000000) scale(0.100000,-0.100000)"
fill="#000000" stroke="none">
<path d="M6620 9470 c-8 -5 -10 -10 -5 -10 6 0 17 5 25 10 8 5 11 10 5 10 -5
0 -17 -5 -25 -10z"/>
<path d="M6465 9390 c-3 -6 1 -7 9 -4 18 7 21 14 7 14 -6 0 -13 -4 -16 -10z"/>
<path d="M7072 9365 c-11 -13 -10 -15 7 -15 11 0 27 -3 37 -7 12 -4 15 -3 10
5 -4 7 -2 12 6 12 9 0 9 3 -2 10 -21 14 -43 12 -58 -5z"/>
<path d="M6735 9345 c-39 -17 -21 -18 25 0 19 7 28 14 20 14 -8 0 -28 -6 -45
-14z"/>
<path d="M6289 9232 c-17 -19 -18 -22 -4 -11 11 9 26 14 33 12 6 -3 12 0 12 6
0 22 -18 19 -41 -7z"/>
<path d="M5828 9163 c7 -3 16 -2 19 1 4 3 -2 6 -13 5 -11 0 -14 -3 -6 -6z"/>
<path d="M5761 9156 c2 -2 20 -6 39 -10 25 -4 31 -3 20 4 -14 9 -69 15 -59 6z"/>
<path d="M6464 9102 c3 -18 18 -20 24 -4 1 5 -4 12 -12 15 -9 4 -13 0 -12 -11z"/>
<path d="M5548 9074 c-16 -8 -28 -17 -28 -20 0 -3 5 -2 11 2 7 4 23 7 36 8 12
1 23 5 24 11 1 15 -14 15 -43 -1z"/>
<path d="M5994 9051 c4 -5 0 -12 -6 -14 -7 -3 0 -6 15 -6 25 -1 27 1 13 14
-16 16 -30 20 -22 6z"/>
<path d="M6643 9014 c3 -4 0 -13 -8 -20 -14 -14 -10 -44 5 -44 5 0 15 6 23 14
11 12 17 12 28 3 8 -7 1 3 -15 21 -17 17 -32 32 -35 32 -2 0 -2 -3 2 -6z"/>
<path d="M6300 8995 c0 -17 19 -19 40 -4 13 9 12 10 -2 5 -10 -3 -18 -1 -18 4
0 6 -4 10 -10 10 -5 0 -10 -7 -10 -15z"/>
<path d="M7556 8985 c4 -8 8 -15 10 -15 2 0 4 7 4 15 0 8 -4 15 -10 15 -5 0
-7 -7 -4 -15z"/>
<path d="M5380 8943 c-25 -26 -37 -41 -26 -33 10 8 25 15 34 16 25 4 58 42 46
54 -7 7 -25 -6 -54 -37z"/>
<path d="M6432 8972 c-8 -6 -1 -13 23 -25 43 -21 45 -21 45 -2 0 9 -10 15 -26
15 -14 0 -23 4 -19 10 7 12 -5 13 -23 2z"/>
<path d="M6117 8901 c-3 -16 -9 -40 -12 -54 -5 -20 -3 -25 10 -23 34 5 48 65
21 91 -12 12 -15 10 -19 -14z"/>
<path d="M5514 8897 c-10 -6 -30 -23 -43 -38 -13 -16 -29 -26 -35 -22 -6 3 -6
0 1 -7 11 -11 17 -10 37 9 14 13 28 21 33 18 4 -3 22 7 40 22 30 25 30 26 9
27 -13 1 -31 -3 -42 -9z"/>
<path d="M6235 8817 c-4 -10 -5 -21 -1 -24 10 -10 18 4 13 24 -4 17 -4 17 -12
0z"/>
<path d="M5258 8776 c-15 -31 -20 -34 -79 -40 -47 -6 -59 -10 -48 -18 10 -7 6
-8 -16 -3 l-30 6 28 -19 c15 -10 24 -22 20 -25 -16 -17 10 -5 29 13 25 23 60
26 80 7 7 -7 21 -16 31 -20 19 -7 40 -50 26 -55 -5 -2 -2 -19 6 -39 17 -41 19
-67 5 -58 -6 3 -7 -1 -4 -10 4 -9 0 -21 -10 -28 -11 -9 -13 -16 -6 -27 9 -13
10 -13 11 0 0 10 3 8 9 -5 7 -17 9 -16 9 10 1 38 20 105 29 105 4 0 30 -6 58
-14 l52 -14 -7 26 c-7 27 -25 35 -96 47 -32 5 -36 9 -22 16 24 14 21 29 -14
67 -16 17 -27 32 -23 32 3 0 -1 11 -10 24 -9 14 -13 32 -10 40 11 29 -2 16
-18 -18z"/>
<path d="M7738 8788 c-42 -14 -34 -24 31 -38 60 -13 92 -7 72 13 -7 7 -15 6
-26 -3 -12 -10 -15 -10 -15 3 0 24 -30 36 -62 25z"/>
<path d="M6515 8770 c-8 -26 -3 -33 19 -24 19 7 18 35 -1 41 -6 2 -14 -5 -18
-17z"/>
<path d="M6213 8709 c-45 -17 -57 -78 -21 -103 45 -32 58 -22 58 43 0 66 -4
73 -37 60z"/>
<path d="M6771 8687 c-8 -15 -20 -27 -28 -27 -21 0 -15 -16 6 -17 26 -2 43 20
39 48 -3 22 -3 22 -17 -4z"/>
<path d="M4952 8663 c-18 -9 -41 -26 -51 -39 -10 -13 -21 -21 -23 -18 -3 2
-17 -11 -31 -30 -21 -27 -24 -35 -12 -40 9 -3 28 11 49 36 30 37 36 40 51 28
14 -12 18 -12 26 1 5 8 9 17 9 21 0 4 7 5 15 2 11 -5 15 1 15 19 0 35 -10 39
-48 20z"/>
<path d="M6552 8593 c-15 -6 -6 -23 14 -23 8 0 14 7 14 15 0 15 -6 17 -28 8z"/>
<path d="M6873 8593 c-22 -4 -37 -28 -27 -44 7 -12 30 6 45 33 5 10 8 17 7 17
-2 -1 -13 -4 -25 -6z"/>
<path d="M4957 8538 c-3 -24 -2 -47 2 -51 10 -10 95 44 99 63 2 8 0 12 -3 8
-4 -4 -20 -1 -36 7 -45 24 -56 19 -62 -27z"/>
<path d="M5704 8512 c1 -43 21 -53 30 -15 6 21 9 24 17 12 5 -7 9 -9 9 -3 0
13 -17 28 -41 37 -13 4 -16 -2 -15 -31z"/>
<path d="M5169 8467 c-2 -32 -1 -66 3 -75 5 -14 7 -13 7 6 1 12 5 22 10 22 14
0 23 32 11 44 -7 7 -10 5 -11 -4 -1 -8 -5 3 -8 25 -7 40 -7 39 -12 -18z"/>
<path d="M6115 8500 c-3 -14 -2 -37 4 -50 5 -14 10 -18 11 -10 0 13 1 13 10 0
16 -24 13 11 -4 51 -14 34 -14 34 -21 9z"/>
<path d="M4784 8496 c-8 -22 3 -33 18 -18 9 9 9 15 0 24 -9 9 -13 7 -18 -6z"/>
<path d="M5583 8474 c0 -8 13 -26 28 -38 15 -13 25 -27 21 -30 -3 -4 1 -4 10
-1 27 11 7 46 -43 75 -11 6 -16 5 -16 -6z"/>
<path d="M4704 8409 c-28 -29 -28 -31 -10 -44 10 -8 24 -11 30 -7 6 3 17 7 24
8 20 3 29 16 15 21 -7 3 -13 13 -13 23 0 31 -15 31 -46 -1z"/>
<path d="M6268 8413 c-19 -22 -13 -43 13 -43 10 0 19 6 19 13 0 8 4 7 10 -3
13 -21 12 -6 -2 25 -13 30 -20 31 -40 8z"/>
<path d="M4785 8372 c-16 -10 -32 -18 -35 -20 -3 -2 9 -16 27 -32 17 -16 28
-32 25 -37 -16 -20 18 16 54 56 21 25 33 41 27 37 -7 -4 -13 -2 -13 3 0 16
-51 12 -85 -7z"/>
<path d="M5420 8360 c-12 -12 -20 -33 -20 -54 0 -26 -5 -36 -20 -41 -11 -3
-20 -10 -20 -15 0 -4 -9 -10 -20 -13 -30 -8 -24 -27 9 -27 44 0 61 10 61 34 0
18 9 25 40 35 26 8 40 18 40 29 0 15 2 15 10 2 6 -9 10 -10 10 -3 0 14 -49 73
-61 73 -5 0 -18 -9 -29 -20z"/>
<path d="M5802 8345 c-7 -14 -12 -37 -12 -51 0 -24 3 -25 33 -19 17 4 34 9 36
11 9 8 -21 84 -33 84 -7 0 -18 -11 -24 -25z"/>
<path d="M5174 8300 c2 -19 11 -51 20 -70 9 -19 14 -28 12 -19 -3 12 1 15 15
12 11 -3 21 1 25 11 3 9 12 16 20 16 8 0 14 2 14 4 0 2 3 11 6 20 4 12 0 16
-15 16 -12 0 -21 -4 -21 -9 0 -25 -58 6 -74 40 -3 8 -4 -2 -2 -21z"/>
<path d="M4593 8280 c-18 -21 -33 -40 -33 -42 0 -2 16 -2 35 0 29 4 35 1 35
-15 0 -10 -5 -24 -11 -30 -9 -9 -7 -10 10 -6 11 3 28 0 36 -7 8 -7 22 -9 31
-6 14 5 15 4 4 -9 -7 -8 -10 -15 -7 -15 2 0 21 20 41 44 l36 44 -29 -4 c-16
-3 -32 0 -36 6 -3 5 -17 10 -31 10 -15 0 -27 7 -30 18 -17 53 -18 53 -51 12z"/>
<path d="M6367 8274 c-13 -14 -8 -64 7 -64 8 0 21 -3 30 -6 10 -4 16 -1 16 7
-1 19 -45 71 -53 63z"/>
<path d="M5725 8263 c3 -7 1 -13 -5 -13 -17 0 -2 -62 18 -78 14 -10 18 -10 24
5 11 29 9 37 -18 68 -14 17 -23 24 -19 18z"/>
<path d="M7440 8215 c-34 -35 -34 -35 -9 -35 31 0 44 10 51 37 9 36 -6 35 -42
-2z"/>
<path d="M8130 8240 c0 -5 7 -10 15 -10 8 0 15 5 15 10 0 6 -7 10 -15 10 -8 0
-15 -4 -15 -10z"/>
<path d="M4490 8159 c-19 -24 -61 -73 -92 -108 -32 -36 -58 -71 -58 -77 0 -7
-6 -14 -13 -17 -19 -7 -248 -273 -279 -322 -33 -54 -44 -98 -47 -181 -2 -50 3
-85 17 -121 27 -70 80 -146 98 -139 8 3 12 2 9 -3 -6 -11 100 -106 118 -106
18 -1 38 -15 32 -24 -4 -7 49 -56 147 -139 16 -13 20 -12 37 9 11 13 18 31 15
41 -3 9 1 20 7 24 9 5 10 2 6 -12 -5 -12 4 -7 23 14 16 18 30 36 30 40 -1 4
-18 21 -39 37 -22 17 -68 55 -102 85 -35 30 -53 41 -39 25 14 -15 19 -25 13
-21 -7 4 -21 2 -32 -3 -15 -9 -20 -7 -24 11 -4 12 -2 27 3 33 6 8 -3 23 -28
46 -65 60 -107 95 -94 78 10 -14 9 -17 -7 -22 -31 -8 -45 7 -32 32 7 12 16 19
21 16 5 -3 2 11 -6 30 -8 21 -14 60 -13 90 2 51 6 58 59 115 38 41 58 70 58
87 0 26 36 68 51 58 5 -3 30 18 54 46 l45 52 -19 34 -20 35 46 -3 c41 -3 49 0
70 26 13 17 20 35 15 40 -14 18 -20 84 -7 81 7 -1 9 -1 5 1 -5 3 -8 11 -8 19
0 10 7 7 23 -10 34 -39 55 -36 95 12 19 24 31 42 26 41 -26 -5 -43 3 -49 22
-4 11 -22 27 -40 35 -18 7 -35 19 -37 25 -2 7 -20 -8 -38 -32z m10 -100 c0
-18 -30 -21 -46 -5 -8 9 -21 13 -27 9 -7 -3 -4 3 7 15 17 20 20 20 42 5 13 -8
24 -19 24 -24z m-133 -108 c-1 -11 -6 -17 -14 -14 -10 4 -11 9 -2 19 15 19 18
18 16 -5z m-337 -448 c0 -5 -5 -15 -10 -23 -8 -12 -10 -11 -10 8 0 12 5 22 10
22 6 0 10 -3 10 -7z m440 -437 c-5 -5 -10 -18 -10 -28 0 -21 -4 -22 -31 -8
-23 13 -25 33 -4 50 9 7 13 20 10 29 -4 9 4 6 20 -9 17 -16 22 -27 15 -34z"/>
<path d="M5235 8141 c22 -26 56 -45 97 -55 24 -5 26 -3 23 15 -6 28 -9 31 -42
33 -15 1 -34 5 -41 10 -7 4 -16 5 -19 2 -3 -3 -13 0 -22 6 -9 7 -7 2 4 -11z"/>
<path d="M6286 8142 c-3 -6 1 -13 10 -16 23 -9 28 -2 10 13 -8 7 -17 8 -20 3z"/>
<path d="M7541 8126 c-8 -10 -9 -16 -1 -21 5 -3 13 1 16 10 9 22 -1 29 -15 11z"/>
<path d="M5883 8095 c0 -22 2 -30 4 -17 2 12 2 30 0 40 -3 9 -5 -1 -4 -23z"/>
<path d="M6513 8123 c-7 -3 -13 -13 -13 -24 0 -23 35 -26 43 -5 7 17 -13 35
-30 29z"/>
<path d="M8625 8120 c-3 -6 1 -13 10 -16 19 -8 30 0 20 15 -8 14 -22 14 -30 1z"/>
<path d="M8970 8106 c0 -2 8 -10 18 -17 15 -13 16 -12 3 4 -13 16 -21 21 -21
13z"/>
<path d="M9290 8090 c0 -5 5 -10 10 -10 6 0 10 5 10 10 0 6 -4 10 -10 10 -5 0
-10 -4 -10 -10z"/>
<path d="M5721 8015 c-7 -33 -20 -73 -28 -89 -8 -15 -10 -25 -4 -22 6 4 11 2
11 -4 0 -6 4 -9 9 -5 5 3 15 -1 23 -8 22 -22 91 -36 106 -22 2 2 10 21 17 41
11 34 11 40 -4 51 -9 7 -23 13 -31 13 -14 0 -31 23 -46 63 -4 10 -13 16 -20
13 -7 -3 -14 3 -16 12 -2 9 -10 -10 -17 -43z m56 -87 c-3 -8 -6 -5 -6 6 -1 11
2 17 5 13 3 -3 4 -12 1 -19z"/>
<path d="M7128 8022 c-57 -20 -65 -36 -20 -40 23 -2 32 1 32 12 0 8 9 18 20
21 11 3 20 11 20 16 0 5 -1 9 -2 8 -2 0 -24 -8 -50 -17z"/>
<path d="M6690 8019 c1 -33 36 -53 75 -43 19 5 22 9 12 18 -7 7 -21 15 -32 18
-11 3 -28 9 -37 13 -12 5 -18 3 -18 -6z"/>
<path d="M6436 8007 c3 -10 9 -15 12 -12 3 3 0 11 -7 18 -10 9 -11 8 -5 -6z"/>
<path d="M8730 8016 c0 -2 7 -7 16 -10 8 -3 12 -2 9 4 -6 10 -25 14 -25 6z"/>
<path d="M8875 8000 c10 -11 20 -18 23 -16 5 6 -23 36 -34 36 -4 0 1 -9 11
-20z"/>
<path d="M7306 7941 c-3 -5 1 -12 10 -15 10 -4 13 -2 8 6 -5 8 -2 9 10 5 10
-4 15 -3 11 3 -8 12 -32 13 -39 1z"/>
<path d="M8518 7943 c7 -3 16 -2 19 1 4 3 -2 6 -13 5 -11 0 -14 -3 -6 -6z"/>
<path d="M6602 7901 c-9 -5 0 -13 30 -24 44 -17 79 -23 43 -7 -18 8 -18 9 5
10 25 2 25 2 -5 15 -35 16 -55 18 -73 6z"/>
<path d="M6910 7850 c0 -4 10 -10 23 -14 26 -7 87 -7 69 1 -6 2 -10 9 -6 14 3
5 -14 8 -40 7 -25 0 -46 -4 -46 -8z"/>
<path d="M5567 7771 c-62 -70 -61 -68 -24 -67 18 1 43 9 56 19 14 9 28 14 33
11 10 -7 10 -3 -2 33 -13 36 -32 38 -63 4z"/>
<path d="M5607 7718 c-14 -8 38 -67 56 -64 21 3 37 17 32 27 -4 5 -1 9 4 9 6
0 11 9 11 20 0 16 -6 19 -46 17 -25 -1 -51 -5 -57 -9z"/>
<path d="M4315 7710 c-4 -6 -12 -7 -18 -4 -7 4 -9 4 -5 -1 4 -4 2 -15 -4 -24
-7 -9 0 -5 15 8 15 14 27 26 27 28 0 7 -9 3 -15 -7z"/>
<path d="M5350 7519 c-57 -67 -115 -136 -129 -153 l-25 -31 27 24 c15 14 27
19 27 13 0 -7 11 -12 25 -12 14 0 25 -6 25 -13 0 -15 54 -49 64 -40 3 3 6 0 6
-7 0 -8 17 6 38 30 42 49 57 71 45 69 -14 -3 -73 25 -73 34 0 4 -5 5 -10 2 -6
-3 -17 1 -26 9 -9 9 -20 13 -26 10 -7 -4 -7 0 0 12 15 27 62 70 62 56 0 -14
53 -5 58 10 7 15 22 8 55 -24 l32 -33 28 31 c30 35 25 47 -28 60 -24 6 -57 22
-84 41 -2 1 2 9 9 18 7 8 10 15 8 15 -2 0 -51 -55 -108 -121z"/>
<path d="M5163 7297 c-50 -58 -50 -57 8 -56 30 1 47 3 38 6 -11 3 -14 12 -11
32 5 38 -10 46 -35 18z"/>
<path d="M5052 7112 c-12 -2 -20 -8 -17 -13 4 -5 -5 -9 -19 -9 -13 0 -26 -6
-28 -14 -2 -11 -10 -11 -43 -1 l-40 12 45 11 45 11 -53 -5 c-118 -11 -243 -81
-338 -188 -44 -51 -75 -101 -124 -204 -99 -210 -151 -326 -150 -336 1 -5 -3
-12 -9 -16 -6 -3 -49 -89 -94 -191 -46 -101 -87 -184 -91 -184 -5 0 -21 38
-35 86 -45 147 -82 186 -205 214 -87 20 -375 19 -456 -1 -104 -27 -174 -97
-204 -205 -35 -124 -11 -234 70 -311 72 -68 90 -72 362 -76 133 -2 242 -6 242
-9 0 -2 -26 -28 -57 -56 -139 -124 -228 -217 -273 -284 -50 -75 -111 -222
-129 -311 -7 -33 -11 -223 -11 -501 0 -382 2 -455 16 -502 24 -79 50 -126 104
-183 l48 -51 5 -175 c5 -200 15 -236 84 -325 31 -40 59 -62 110 -87 l67 -33
237 -3 c216 -3 242 -1 294 17 99 35 186 120 217 211 6 19 14 96 17 170 l6 135
1625 0 1625 0 1 -121 c1 -83 7 -138 18 -175 35 -109 119 -191 234 -225 43 -13
95 -15 285 -12 l232 3 59 29 c72 35 127 90 163 164 27 55 28 63 31 237 l3 180
46 47 c25 25 43 50 40 56 -4 5 0 18 9 28 14 18 15 18 4 -3 -6 -13 -8 -23 -5
-23 12 0 65 127 75 179 12 62 12 882 0 836 -4 -16 -8 -24 -9 -17 -1 10 -6 9
-23 -2 -38 -24 -105 -19 -110 8 -1 6 -5 -173 -8 -399 l-5 -410 -28 -57 c-31
-63 -71 -102 -134 -130 -40 -18 -127 -18 -2515 -16 l-2474 3 -44 29 c-62 41
-97 83 -116 139 -14 41 -16 112 -17 480 -1 422 0 434 22 512 55 189 99 242
523 623 l59 52 2062 0 c1335 0 2057 4 2047 10 -9 6 -11 10 -3 10 7 0 10 6 7
14 -3 7 9 25 26 40 17 14 27 26 21 26 -6 0 -11 5 -11 11 0 6 9 9 20 6 24 -6
47 18 33 36 -17 21 -23 47 -11 44 13 -2 38 40 38 66 0 19 -15 23 -25 7 -10
-17 -21 -11 -33 18 -6 15 -10 21 -9 13 2 -8 -6 -25 -18 -37 -27 -29 -48 -94
-35 -109 20 -24 -32 -57 -85 -53 -19 1 -37 8 -39 15 -8 19 -36 16 -52 -4 -16
-21 -18 -37 -4 -28 5 3 19 1 30 -5 25 -13 27 -50 3 -51 -15 0 -15 -2 2 -9 15
-6 9 -9 -25 -9 -34 0 -40 3 -25 9 17 7 17 9 3 9 -10 1 -20 12 -24 25 -7 29
-34 25 -76 -10 -24 -19 -25 -23 -10 -27 9 -3 -98 -4 -238 -4 -195 1 -213 2
-77 4 l177 3 1 28 c1 15 1 30 0 35 0 4 8 7 19 7 11 0 20 4 20 9 0 6 18 20 40
32 22 13 40 26 40 31 0 4 -23 8 -50 8 -37 0 -52 -4 -57 -16 -4 -11 -14 -14
-34 -10 -16 3 -31 1 -34 -4 -3 -6 1 -10 9 -10 8 0 18 -5 22 -12 5 -8 0 -9 -16
-5 -16 4 -23 1 -27 -12 -3 -12 -20 -22 -49 -28 l-45 -10 16 23 c8 13 11 25 6
28 -5 3 -15 -9 -22 -27 -17 -42 -32 -56 -58 -54 -27 2 -22 19 10 28 20 6 18 7
-13 8 -21 1 -38 6 -38 11 0 6 -13 10 -29 10 -39 0 -44 28 -12 58 l24 22 -47 0
c-25 0 -46 -4 -46 -9 0 -9 -64 -34 -112 -45 -26 -6 -27 -5 -22 24 l7 30 -52 0
c-37 0 -60 -6 -80 -21 -16 -12 -34 -18 -40 -15 -16 10 -13 24 7 29 9 3 -8 5
-38 6 -30 0 -50 -3 -43 -7 22 -14 -2 -32 -63 -48 -32 -8 -63 -19 -68 -25 -20
-19 -54 -10 -60 16 -14 56 -36 65 -156 65 -60 0 -110 -4 -110 -9 0 -5 -24 -21
-54 -36 -59 -30 -84 -28 -124 8 -21 20 -22 22 -5 29 21 9 -185 3 -237 -7 -26
-5 -31 -4 -20 4 11 8 -275 11 -967 11 -541 0 -983 2 -983 4 0 7 65 155 114
259 25 54 43 104 40 109 -4 6 -3 8 3 5 5 -4 38 56 74 135 70 153 81 182 50
128 -14 -24 -20 -29 -21 -17 0 11 13 31 29 46 15 14 43 60 61 101 18 41 37 81
44 89 8 11 8 13 -1 7 -9 -5 -11 -2 -7 9 4 9 9 13 12 10 3 -3 31 20 63 50 34
33 87 69 126 88 l68 32 865 5 c476 3 855 6 843 8 -19 2 -21 5 -13 32 10 36 10
34 10 64 0 17 5 23 18 22 9 0 16 5 15 12 -2 6 7 12 20 13 21 0 21 1 2 9 -11 4
-38 6 -60 3 -45 -6 -60 -13 -27 -13 15 0 20 -5 16 -15 -4 -10 -19 -15 -43 -15
-24 0 -42 -7 -53 -19 -15 -18 -15 -20 8 -25 29 -8 31 -22 4 -31 -36 -11 -109
-14 -115 -4 -9 14 -35 11 -35 -5 0 -10 13 -16 38 -19 21 -2 9 -4 -28 -4 -46
-1 -58 1 -40 7 16 5 19 8 8 9 -13 1 -16 8 -13 30 l3 28 -86 -1 c-87 -2 -117
-9 -107 -27 4 -5 -6 -9 -22 -8 -15 0 -22 3 -15 6 6 2 12 14 12 26 0 18 -2 19
-10 7 -11 -17 -42 -20 -52 -5 -5 6 -11 5 -18 -5 -13 -20 -13 -4 0 20 7 14 6
23 -5 34 -11 11 -12 16 -2 19 6 3 -28 5 -78 5 -62 0 -81 -3 -60 -8 17 -4 24
-8 17 -9 -7 0 -10 -5 -7 -11 11 -17 -51 -15 -72 2 -9 7 -18 6 -29 -3 -20 -16
-157 -16 -162 0 -2 6 -16 12 -30 12 -20 1 -16 4 13 8 37 7 34 8 -37 15 -71 8
-170 0 -141 -11 10 -4 9 -8 -1 -19 -8 -8 -19 -14 -24 -14 -6 0 -12 -4 -14 -10
-6 -20 -138 -20 -138 0 0 5 9 6 20 3 16 -4 19 -2 14 11 -3 9 -11 16 -18 17 -6
0 -2 4 9 9 17 7 14 9 -15 11 -54 4 -232 4 -258 1z m647 -91 c10 -7 10 -13 2
-29 -9 -17 -8 -21 7 -25 9 -3 -32 -4 -93 -4 -60 0 -91 2 -67 4 41 4 48 13 44
54 -1 9 92 9 107 0z m-512 -34 c3 -5 1 -7 -5 -3 -6 3 -13 2 -16 -3 -4 -5 4
-12 16 -14 13 -2 -4 -5 -37 -5 -34 0 -52 3 -42 7 10 4 18 10 18 14 -4 33 -1
36 29 25 17 -5 33 -15 37 -21z m1013 3 c0 -5 -12 -11 -27 -11 -22 -2 -19 -3
12 -9 37 -7 36 -7 -20 -8 -42 0 -54 2 -40 8 l20 9 -20 2 c-11 1 -2 5 20 9 22
4 43 8 48 9 4 0 7 -3 7 -9z m-863 -26 c-3 -3 -12 -4 -19 -1 -8 3 -5 6 6 6 11
1 17 -2 13 -5z m686 -1 c-7 -2 -19 -2 -25 0 -7 3 -2 5 12 5 14 0 19 -2 13 -5z
m-1403 -103 c-11 -7 -17 -4 -22 8 -4 9 -7 11 -7 5 -1 -7 -6 -13 -13 -13 -6 0
-3 9 7 20 17 19 20 19 34 5 14 -14 14 -17 1 -25z m135 1 c3 -5 0 -13 -7 -18
-15 -9 -38 -13 -38 -7 0 8 24 33 32 34 4 0 9 -4 13 -9z m-40 -61 c-10 -11 -22
-17 -28 -13 -6 4 -1 14 13 25 29 23 39 15 15 -12z m-806 -704 c23 -24 85 -211
75 -227 -3 -5 -115 -9 -250 -9 -266 0 -292 4 -332 55 -28 35 -28 84 -2 135 33
65 48 69 281 70 204 0 206 0 228 -24z m1614 -223 c-7 -2 -21 -2 -30 0 -10 3
-4 5 12 5 17 0 24 -2 18 -5z m378 -5 c-30 -7 -47 -6 -54 1 -8 8 4 11 44 10
l54 -1 -44 -10z m1693 -74 c9 -3 16 -15 16 -25 0 -16 -2 -18 -14 -7 -8 7 -12
16 -10 20 2 3 -2 9 -8 11 -7 3 -10 6 -6 6 3 1 13 -2 22 -5z m-169 -13 c3 -5
-2 -16 -10 -25 -13 -13 -12 -15 12 -19 16 -2 -8 -4 -52 -4 -44 0 -68 2 -52 4
15 2 25 9 21 14 -13 21 6 39 40 39 19 0 37 -4 41 -9z m-505 -11 c0 -5 0 -13
-1 -17 0 -5 10 -11 23 -15 13 -3 -26 -6 -87 -5 -69 1 -85 2 -43 4 56 3 68 7
73 23 6 20 35 28 35 10z m-793 -36 c-3 -3 -12 -4 -19 -1 -8 3 -5 6 6 6 11 1
17 -2 13 -5z m2960 -1046 c-2 -18 -4 -6 -4 27 0 33 2 48 4 33 2 -15 2 -42 0
-60z m-20 47 c-2 -14 -6 -25 -10 -25 -4 0 -7 2 -7 5 0 3 0 14 0 25 0 11 5 20
10 20 6 0 9 -11 7 -25z m-106 -131 l-8 -109 -1 130 c0 82 2 122 8 109 5 -12 5
-70 1 -130z m126 -391 c-2 -16 -4 -3 -4 27 0 30 2 43 4 28 2 -16 2 -40 0 -55z
m-130 -65 c-3 -7 -5 -2 -5 12 0 14 2 19 5 13 2 -7 2 -19 0 -25z m-244 -425
c-7 -2 -19 -2 -25 0 -7 3 -2 5 12 5 14 0 19 -2 13 -5z m42 -118 c0 -122 -11
-164 -52 -207 -53 -56 -64 -58 -293 -58 -234 0 -243 2 -298 65 -43 49 -46 63
-44 212 l2 93 333 2 c182 2 337 3 342 2 6 0 10 -44 10 -109z m-4285 -10 c0
-133 -14 -174 -77 -222 l-36 -28 -206 -3 c-128 -2 -220 1 -242 7 -46 14 -105
78 -118 128 -5 21 -10 82 -9 136 l0 97 344 0 344 0 0 -115z"/>
<path d="M6168 7103 c12 -2 32 -2 45 0 12 2 2 4 -23 4 -25 0 -35 -2 -22 -4z"/>
<path d="M6358 7103 c7 -3 16 -2 19 1 4 3 -2 6 -13 5 -11 0 -14 -3 -6 -6z"/>
<path d="M7168 7103 c6 -2 18 -2 25 0 6 3 1 5 -13 5 -14 0 -19 -2 -12 -5z"/>
<path d="M7333 7103 c15 -2 37 -2 50 0 12 2 0 4 -28 4 -27 0 -38 -2 -22 -4z"/>
<path d="M7558 7103 c7 -3 16 -2 19 1 4 3 -2 6 -13 5 -11 0 -14 -3 -6 -6z"/>
<path d="M6205 7080 c3 -5 15 -15 26 -20 16 -9 19 -7 19 10 0 15 -7 20 -26 20
-14 0 -22 -4 -19 -10z"/>
<path d="M7340 7080 c0 -5 9 -10 19 -10 11 0 23 5 26 10 4 6 -5 10 -19 10 -14
0 -26 -4 -26 -10z"/>
<path d="M6880 6980 c-11 -7 3 -9 45 -9 48 1 54 3 30 9 -43 11 -58 11 -75 0z"/>
<path d="M7023 6973 c9 -2 23 -2 30 0 6 3 -1 5 -18 5 -16 0 -22 -2 -12 -5z"/>
<path d="M7410 6972 l35 -5 -35 -7 c-23 -5 0 -8 68 -9 79 -1 103 2 100 12 -3
8 -34 12 -104 13 -54 1 -83 -1 -64 -4z"/>
<path d="M6893 6953 c71 -2 183 -2 250 0 67 1 10 3 -128 3 -137 0 -192 -2
-122 -3z"/>
<path d="M7730 6899 c0 -6 -4 -7 -10 -4 -25 16 -6 -6 23 -26 17 -12 27 -16 20
-9 -6 7 -9 18 -7 25 3 7 -2 15 -10 18 -9 4 -16 2 -16 -4z"/>
<path d="M7986 6801 c-10 -11 -16 -30 -14 -43 2 -18 10 -24 36 -26 37 -4 40 7
14 56 -18 32 -18 33 -36 13z"/>
<path d="M7881 6705 c0 -5 5 -20 13 -33 11 -21 14 -22 25 -8 14 17 8 46 -9 46
-5 0 -10 -6 -10 -12 0 -9 -4 -8 -10 2 -5 8 -10 11 -9 5z"/>
<path d="M8114 6530 c-5 -5 -8 -28 -6 -50 4 -41 17 -49 56 -34 12 5 13 10 4
30 -6 13 -15 24 -20 24 -5 0 -7 4 -4 9 9 13 -19 32 -30 21z"/>
<path d="M8044 6381 c-1 -21 3 -28 13 -24 15 6 14 45 -2 50 -5 1 -10 -10 -11
-26z"/>
<path d="M8764 6279 c-11 -19 19 -29 69 -24 54 5 70 12 62 26 -9 13 -122 11
-131 -2z"/>
<path d="M8231 6225 c-17 -47 4 -85 43 -78 33 7 36 20 15 71 -22 51 -41 54
-58 7z"/>
<path d="M9139 6218 c-16 -29 13 -52 56 -43 17 3 36 6 43 7 22 2 -40 58 -65
58 -13 0 -27 -9 -34 -22z"/>
<path d="M8594 6163 c1 -31 35 -54 66 -46 18 5 18 6 2 23 -9 9 -29 25 -43 34
-26 16 -26 16 -25 -11z"/>
<path d="M8923 6173 c-19 -7 3 -43 27 -43 23 0 32 13 24 34 -6 16 -27 19 -51
9z"/>
<path d="M8760 6160 c0 -5 5 -10 10 -10 6 0 10 5 10 10 0 6 -4 10 -10 10 -5 0
-10 -4 -10 -10z"/>
<path d="M8147 6147 c-6 -18 3 -38 15 -31 5 3 8 0 7 -7 -5 -24 11 -57 26 -55
25 4 27 14 10 51 -19 40 -50 63 -58 42z"/>
<path d="M9087 6129 c7 -9 10 -19 6 -23 -4 -4 1 -4 10 0 10 3 17 7 15 8 -2 1
-12 8 -23 16 -18 14 -19 13 -8 -1z"/>
<path d="M9301 6051 c-1 -8 -7 -19 -15 -25 -27 -21 -21 -88 9 -100 19 -7 27
38 16 94 -5 25 -9 39 -10 31z"/>
<path d="M8525 5893 c-3 -13 -3 -28 0 -33 5 -9 -20 -58 -36 -70 -4 -3 -19 -29
-34 -57 -15 -29 -32 -53 -38 -53 -7 0 -7 -4 1 -12 27 -27 9 -29 -20 -2 l-33
29 29 -32 c16 -18 31 -31 33 -29 2 2 25 -17 50 -43 25 -25 41 -39 35 -30 -9
13 -6 21 18 44 17 16 30 34 30 40 0 7 7 26 16 43 8 18 13 36 10 41 -7 11 17
21 49 21 15 0 26 -7 30 -20 3 -11 14 -20 23 -19 11 0 12 3 5 6 -7 2 -13 9 -13
14 0 4 6 6 13 4 7 -3 27 10 45 30 19 19 40 35 47 35 7 0 16 11 19 25 6 24 11
25 79 27 39 1 -18 5 -128 8 l-200 5 3 26 c4 33 -24 35 -33 2z m218 -50 c-7 -2
-19 -2 -25 0 -7 3 -2 5 12 5 14 0 19 -2 13 -5z"/>
<path d="M9120 5895 c-22 -23 -18 -34 6 -17 10 6 27 42 20 42 -1 0 -13 -11
-26 -25z"/>
<path d="M8940 5810 c-12 -8 -11 -10 8 -10 12 0 22 5 22 10 0 13 -11 13 -30 0z"/>
<path d="M9220 5805 c0 -8 5 -15 11 -15 5 0 7 -5 3 -12 -4 -7 -3 -8 4 -4 6 4
8 14 5 23 -4 10 -2 14 5 9 6 -3 13 -3 16 2 2 4 -6 9 -20 10 -15 1 -24 -3 -24
-13z"/>
<path d="M9036 5738 c-15 -21 -15 -23 1 -30 10 -3 -13 -7 -52 -7 -48 0 -64 3
-50 9 17 7 17 9 3 9 -10 1 -18 6 -18 12 0 12 -63 4 -89 -11 -13 -8 -14 -10 -1
-11 8 -1 -3 -5 -25 -9 -24 -4 18 -7 110 -7 83 -1 164 3 180 7 17 4 22 8 13 9
-10 0 -17 6 -15 12 1 6 -8 17 -20 25 -19 14 -22 13 -37 -8z"/>
<path d="M8658 5693 c18 -2 45 -2 60 0 15 2 0 4 -33 4 -33 0 -45 -2 -27 -4z"/>
<path d="M8690 5593 c-8 -3 -26 -19 -39 -34 -13 -16 -27 -26 -32 -23 -8 5 -13
-13 -12 -44 1 -10 -2 -10 -16 0 -11 9 -10 6 3 -9 10 -13 23 -20 28 -17 4 3 7
1 6 -4 -2 -6 36 -48 84 -94 76 -72 89 -81 97 -66 6 9 8 31 4 48 -5 27 -1 36
26 60 38 35 38 40 6 70 l-25 24 -29 -28 c-16 -16 -32 -39 -35 -51 -9 -37 -39
-24 -56 24 -14 40 -14 43 4 53 10 6 26 18 36 28 14 14 21 15 31 7 8 -7 -2 5
-20 26 -19 20 -37 37 -40 36 -4 0 -13 -3 -21 -6z m45 -223 c10 -11 16 -20 13
-20 -3 0 -13 9 -23 20 -10 11 -16 20 -13 20 3 0 13 -9 23 -20z"/>
<path d="M8913 5382 c0 -9 6 -26 13 -37 8 -11 14 -14 14 -7 0 7 5 10 11 6 15
-9 -5 29 -24 44 -11 9 -14 8 -14 -6z"/>
<path d="M8960 5238 c-16 -13 -31 -17 -44 -13 -12 4 -35 9 -53 10 l-32 3 22
-44 c14 -29 24 -40 29 -31 4 6 8 8 8 2 0 -5 7 -1 15 9 13 17 15 17 15 3 0 -10
5 -14 15 -11 9 4 15 0 15 -10 0 -9 4 -16 10 -16 21 0 60 24 60 37 0 8 5 11 10
8 13 -8 13 -4 -4 36 -16 39 -33 43 -66 17z"/>
<path d="M4008 5111 c-53 -18 -98 -53 -125 -99 -24 -40 -28 -58 -27 -122 0
-89 30 -251 55 -300 23 -47 64 -84 119 -109 43 -19 65 -21 401 -21 381 0 417
4 490 53 18 12 47 44 64 71 26 43 30 59 30 120 -1 53 -6 82 -22 112 -27 51
-92 110 -150 136 -63 28 -654 159 -738 164 -38 2 -82 0 -97 -5z m327 -210
c121 -27 248 -54 282 -60 156 -29 233 -73 233 -135 0 -21 -8 -40 -21 -52 -20
-18 -43 -19 -373 -22 -341 -3 -352 -2 -373 18 -26 24 -40 67 -54 173 -10 67
-9 81 5 102 23 35 45 33 301 -24z"/>
<path d="M8430 5110 c23 -7 24 -8 3 -9 -13 -1 -29 -13 -40 -31 -9 -16 -23 -30
-30 -30 -18 0 -31 -30 -27 -67 2 -23 -2 -33 -14 -37 -9 -3 -3 -3 13 -1 86 14
135 17 152 10 10 -5 24 -7 32 -6 9 2 12 -4 8 -21 -3 -13 -9 -52 -13 -88 -3
-36 -13 -87 -21 -115 -27 -89 -8 -85 -399 -85 -234 0 -351 4 -368 11 -13 7
-30 24 -36 39 -25 60 37 119 151 145 35 7 138 30 229 50 91 21 172 41 180 46
9 5 2 6 -19 2 -32 -6 -34 -5 -20 11 36 45 64 66 86 66 14 0 22 4 18 10 -4 6
-14 8 -24 5 -12 -3 -17 1 -18 15 -1 11 3 20 9 20 6 0 6 6 -2 15 -10 12 -9 15
6 16 11 0 14 3 8 5 -23 10 -558 -116 -614 -144 -103 -52 -148 -115 -157 -220
-4 -60 -2 -73 24 -122 35 -67 99 -114 177 -130 35 -7 173 -10 402 -8 288 2
354 6 376 18 15 8 27 20 27 25 1 6 10 11 21 11 28 2 48 21 75 73 23 47 49 150
40 159 -3 3 -5 -1 -5 -8 0 -7 -2 -11 -5 -8 -3 2 1 18 9 34 16 33 28 126 15
119 -4 -3 -7 19 -6 49 2 42 -3 61 -19 83 -12 15 -26 28 -32 28 -6 0 -14 4 -19
9 -5 6 -2 6 7 1 13 -8 13 -7 1 9 -8 9 -20 15 -27 12 -8 -3 -13 0 -11 6 3 16
-62 37 -118 36 -39 0 -45 -2 -25 -8z m120 -20 c8 -5 11 -10 5 -10 -5 0 -17 5
-25 10 -8 5 -10 10 -5 10 6 0 17 -5 25 -10z m2 -27 c25 -22 23 -33 -7 -33 -20
0 -25 5 -25 25 0 29 7 31 32 8z m-299 0 c-7 -2 -19 -2 -25 0 -7 3 -2 5 12 5
14 0 19 -2 13 -5z m-243 -53 c-34 -11 -60 -11 -35 0 11 5 29 8 40 8 16 0 15
-2 -5 -8z m-155 -37 c-28 -16 -45 -19 -77 -13 -14 2 68 28 92 29 8 0 2 -7 -15
-16z m325 -23 c0 -5 -7 -10 -15 -10 -8 0 -15 5 -15 10 0 6 7 10 15 10 8 0 15
-4 15 -10z m-510 -34 c0 -2 -7 -7 -16 -10 -8 -3 -12 -2 -9 4 6 10 25 14 25 6z
m195 -66 c-3 -5 -14 -10 -23 -10 -15 0 -15 2 -2 10 20 13 33 13 25 0z m-328
-137 c-3 -10 -5 -4 -5 12 0 17 2 24 5 18 2 -7 2 -21 0 -30z m993 22 c0 -8 -2
-15 -4 -15 -2 0 -6 7 -10 15 -3 8 -1 15 4 15 6 0 10 -7 10 -15z m-80 -115 c-8
-5 -31 -9 -50 -8 l-35 1 40 7 c59 11 61 11 45 0z m-557 -7 c-23 -2 -64 -2 -90
0 -26 2 -7 3 42 3 50 0 71 -1 48 -3z m360 0 c-23 -2 -64 -2 -90 0 -26 2 -7 3
42 3 50 0 71 -1 48 -3z"/>
<path d="M8368 5103 c6 -2 18 -2 25 0 6 3 1 5 -13 5 -14 0 -19 -2 -12 -5z"/>
<path d="M8318 5093 c7 -3 16 -2 19 1 4 3 -2 6 -13 5 -11 0 -14 -3 -6 -6z"/>
<path d="M8930 5058 c0 -19 -2 -20 -11 -8 -8 12 -9 11 -4 -6 3 -12 10 -42 14
-65 5 -24 9 -33 10 -21 1 13 11 32 22 41 25 20 19 55 -12 71 -16 9 -19 7 -19
-12z"/>
<path d="M9072 5045 c0 -11 4 -31 8 -45 l8 -25 0 25 c0 14 -3 34 -8 45 l-9 20
1 -20z"/>
<path d="M5449 4636 c-59 -16 -97 -43 -191 -135 -73 -70 -78 -78 -78 -118 0
-33 5 -46 26 -62 49 -39 77 -29 169 59 46 44 95 84 110 90 38 14 1534 14 1572
-1 15 -6 62 -44 104 -84 41 -41 88 -77 102 -80 64 -16 119 41 97 101 -11 29
-157 184 -173 184 -5 0 -3 -8 4 -17 13 -16 12 -17 -3 -4 -10 7 -15 17 -12 22
3 5 -16 19 -43 32 l-48 22 -795 2 c-608 1 -806 -1 -841 -11z m1901 -235 c0
-11 -3 -12 -8 -4 -5 8 -13 9 -22 3 -26 -17 -33 -11 -16 15 9 14 14 31 11 38
-4 7 3 1 14 -12 12 -13 21 -31 21 -40z"/>
</g>
</svg>
