<?xml version="1.0" standalone="no"?>
<!DOCTYPE svg PUBLIC "-//W3C//DTD SVG 20010904//EN"
 "http://www.w3.org/TR/2001/REC-SVG-20010904/DTD/svg10.dtd">
<svg version="1.0" xmlns="http://www.w3.org/2000/svg"
 width="1254.000000pt" height="1254.000000pt" viewBox="0 0 1254.000000 1254.000000"
 preserveAspectRatio="xMidYMid meet">

<g transform="translate(0.000000,1254.000000) scale(0.100000,-0.100000)"
fill="#000000" stroke="none">
<path d="M5430 9895 c19 -14 37 -25 41 -25 18 0 18 -34 -1 -47 -13 -9 -19 -23
-17 -38 4 -33 7 -35 55 -37 47 -1 55 -18 20 -37 -13 -6 -16 -10 -7 -7 9 2 20
1 25 -3 5 -5 22 -11 37 -15 l28 -7 -16 31 c-9 17 -19 29 -23 27 -8 -4 -43 29
-37 35 2 2 -2 32 -9 66 l-13 62 31 1 c25 1 23 3 -14 10 -25 4 -65 8 -89 8
l-45 1 34 -25z"/>
<path d="M5206 9885 c-44 -13 -97 -32 -119 -41 -35 -16 -37 -19 -18 -26 13 -4
21 -16 21 -31 0 -13 3 -27 7 -30 4 -4 6 -25 6 -46 0 -29 3 -38 13 -34 8 3 11
9 8 14 -3 5 2 6 10 3 8 -3 27 2 43 11 17 9 20 14 8 10 -22 -5 -22 -4 -27 93
-2 43 0 53 15 57 9 3 26 8 37 11 16 4 20 1 20 -17 0 -36 42 -119 59 -118 9 0
34 4 56 8 30 7 34 9 15 11 -14 1 -20 4 -13 6 11 5 -8 66 -37 116 -6 11 -6 18
3 21 36 15 -39 2 -107 -18z"/>
<path d="M5667 9874 c10 -4 9 -13 -2 -41 -17 -41 -6 -73 25 -73 15 0 20 7 20
26 0 24 3 26 32 20 18 -3 34 -10 38 -14 6 -8 40 -12 40 -5 0 19 -27 43 -67 60
-42 18 -117 42 -86 27z"/>
<path d="M4944 9764 c-59 -40 -155 -126 -149 -133 3 -3 9 0 14 7 5 8 16 9 39
3 18 -5 32 -9 33 -8 6 14 2 57 -6 57 -5 1 0 9 13 20 22 18 25 18 47 4 35 -23
48 -14 50 34 1 23 1 42 0 42 -1 0 -20 -12 -41 -26z"/>
<path d="M5775 9679 c-16 -10 -25 -19 -19 -19 7 0 22 9 35 20 30 24 23 24 -16
-1z"/>
<path d="M4966 9668 c-9 -12 -16 -30 -16 -38 0 -9 -5 -21 -12 -28 -9 -9 -6
-11 10 -7 12 2 28 7 35 11 6 4 -13 -16 -43 -43 -30 -28 -59 -48 -65 -45 -15
10 -29 9 -42 -1 -17 -13 -16 -22 3 -42 10 -9 13 -20 7 -28 -4 -7 5 3 21 23 17
19 55 59 85 88 31 30 55 58 54 63 -2 4 3 6 11 3 8 -3 17 0 22 7 4 8 3 10 -4 5
-8 -4 -12 0 -12 11 0 19 -18 43 -31 43 -5 0 -15 -10 -23 -22z"/>
<path d="M3715 9655 c-73 -13 -202 -67 -244 -102 l-25 -20 31 -30 c51 -50 14
-80 -66 -52 l-33 11 29 32 c15 18 11 15 -9 -6 -45 -44 -50 -84 -15 -121 19
-22 87 -47 222 -84 l20 -5 -20 16 c-11 8 -15 16 -8 16 6 0 14 8 17 18 6 18 11
20 56 24 19 2 24 13 23 46 -1 8 7 11 21 7 11 -3 3 4 -19 14 -22 11 -46 20 -53
20 -8 1 -12 7 -10 13 6 18 100 45 188 54 65 7 70 9 40 15 -32 6 -32 6 -7 8 23
1 27 5 22 20 -3 11 -1 22 5 26 5 3 10 11 10 16 0 6 -4 8 -9 4 -11 -6 -25 31
-16 44 3 5 -7 12 -22 14 -16 3 8 4 52 2 64 -3 72 -2 40 5 -56 12 -137 11 -220
-5z m55 -20 c-13 -16 -38 -19 -65 -9 -25 10 1 24 44 24 29 0 32 -2 21 -15z
m-104 -49 c-3 -11 -1 -38 3 -58 7 -31 6 -36 -7 -31 -10 4 -13 2 -8 -5 4 -7 1
-12 -8 -12 -9 0 -16 -4 -16 -8 0 -4 -9 -8 -19 -9 -19 -2 -31 21 -31 63 0 15
-10 26 -31 34 -28 12 -29 14 -12 24 68 38 138 39 129 2z m-126 -148 c0 6 7 12
15 12 10 0 15 -10 15 -26 0 -23 -2 -25 -16 -13 -14 11 -15 10 -12 -7 2 -15 -4
-20 -25 -22 -26 -3 -28 -1 -22 19 11 33 28 50 37 35 6 -8 8 -8 8 2z m-57 -87
c4 -16 1 -17 -30 -11 -46 11 -57 24 -15 18 17 -2 32 -1 32 4 0 15 8 8 13 -11z"/>
<path d="M5597 9654 c-8 -8 5 -54 15 -54 6 0 4 -8 -3 -17 -10 -12 -3 -11 26 7
53 31 55 33 47 46 -7 12 -77 26 -85 18z"/>
<path d="M3988 9643 c6 -2 18 -2 25 0 6 3 1 5 -13 5 -14 0 -19 -2 -12 -5z"/>
<path d="M5400 9633 c-43 -29 -86 -67 -69 -61 19 7 73 -44 84 -79 3 -13 11
-23 16 -23 6 0 7 -6 2 -12 -4 -7 13 2 37 21 51 39 72 58 53 47 -7 -4 -13 -2
-13 4 0 6 -16 24 -35 41 -19 17 -35 37 -35 45 0 8 -5 14 -11 14 -5 0 -7 5 -4
10 9 14 3 13 -25 -7z"/>
<path d="M4045 9630 c11 -5 29 -9 40 -9 l20 0 -20 9 c-11 5 -29 9 -40 9 l-20
0 20 -9z"/>
<path d="M4758 9593 c-13 -16 -35 -44 -48 -63 l-24 -35 25 22 c17 16 29 19 40
12 13 -7 18 -4 23 14 3 12 1 24 -5 25 -6 3 -4 14 6 28 20 32 15 30 -17 -3z"/>
<path d="M4157 9593 c22 -8 -44 -55 -67 -48 -39 12 -70 15 -70 6 0 -5 -10 -11
-21 -14 -14 -4 -20 -11 -16 -20 4 -12 -2 -14 -31 -12 -20 1 -28 1 -17 -2 54
-11 155 -47 194 -69 24 -13 38 -18 32 -10 -8 10 -6 17 9 31 11 10 20 24 20 30
0 7 10 15 23 18 12 4 31 13 41 20 19 14 17 16 -35 46 -30 17 -58 30 -64 30 -5
0 -4 -3 2 -6z"/>
<path d="M5237 9502 c-10 -10 -14 -22 -10 -27 5 -4 3 -5 -3 -2 -12 7 -248
-224 -280 -273 -9 -14 15 8 53 49 56 60 71 71 76 58 10 -27 43 -2 41 32 -2 34
63 106 82 90 9 -7 18 -2 33 17 11 14 18 31 15 36 -3 5 0 15 6 23 18 22 6 18
-13 -3z"/>
<path d="M4665 9460 c-17 -33 -19 -44 -6 -35 5 3 12 -4 16 -15 3 -11 10 -20
15 -20 10 0 7 40 -3 57 -4 6 -4 18 -1 27 11 27 -5 17 -21 -14z"/>
<path d="M4367 9450 c8 -9 6 -17 -8 -31 -21 -21 -25 -65 -6 -72 6 -2 25 0 40
6 22 7 27 14 24 29 -5 17 -3 17 11 6 9 -7 5 1 -8 18 -14 17 -34 37 -45 44 -15
9 -17 9 -8 0z"/>
<path d="M4814 9409 c-4 -6 -20 -8 -39 -5 -44 9 -50 -5 -22 -48 l24 -35 12 25
c6 14 8 30 5 36 -4 7 -2 8 4 4 6 -3 16 3 22 14 11 21 6 29 -6 9z"/>
<path d="M3805 9367 c18 -10 19 -16 10 -43 -8 -26 -13 -30 -31 -23 -37 13 -59
4 -59 -24 1 -23 -2 -26 -25 -21 -14 4 17 -15 68 -40 84 -42 134 -61 89 -35
-16 9 -16 12 -2 32 8 12 15 29 15 38 0 9 11 21 25 27 14 6 25 16 25 21 0 6 7
8 15 5 8 -4 15 -3 15 1 0 3 -33 22 -74 41 -74 34 -110 45 -71 21z"/>
<path d="M5254 9355 c-9 -14 -13 -32 -10 -42 5 -12 -9 -33 -46 -72 -29 -31 -9
-13 45 39 53 52 97 95 97 95 0 1 -16 2 -35 3 -27 2 -38 -3 -51 -23z"/>
<path d="M4440 9366 c0 -2 8 -10 18 -17 15 -13 16 -12 3 4 -13 16 -21 21 -21
13z"/>
<path d="M4254 9343 c10 -13 23 -20 29 -16 5 3 8 2 4 -3 -3 -5 6 -23 20 -39
14 -17 22 -25 19 -18 -3 6 -1 13 4 15 6 2 13 16 16 31 2 16 1 26 -5 23 -5 -3
-11 1 -14 9 -5 10 -13 12 -35 5 -20 -5 -35 -4 -43 3 -8 7 -5 2 5 -10z"/>
<path d="M4595 9302 c-4 -9 -11 -32 -15 -50 -6 -25 -5 -30 4 -23 13 11 88 -18
100 -38 4 -6 12 -9 17 -6 5 4 9 -2 10 -12 0 -17 19 25 33 77 l7 25 -15 -25
c-12 -19 -15 -21 -16 -8 0 15 -60 58 -60 43 0 -4 -13 3 -29 14 -27 19 -29 20
-36 3z"/>
<path d="M5130 9231 c0 -5 5 -13 10 -16 6 -3 10 -2 10 4 0 5 -4 13 -10 16 -5
3 -10 2 -10 -4z"/>
<path d="M4102 9201 c2 -5 -5 -16 -15 -23 -11 -8 -21 -32 -24 -58 -3 -25 -14
-52 -25 -61 -10 -9 -18 -23 -18 -30 0 -9 -3 -10 -8 -3 -22 32 -75 13 -78 -28
-2 -27 -3 -32 -13 -47 -8 -12 -12 -12 -26 3 -18 17 -63 19 -57 2 2 -5 -2 -13
-10 -17 -8 -5 19 -9 67 -9 44 0 97 -3 118 -6 37 -7 37 -7 27 20 -14 37 -13 46
5 46 8 0 30 21 50 48 67 90 84 105 103 92 9 -7 -1 4 -23 24 -46 42 -77 62 -73
47z"/>
<path d="M5268 9163 c23 -2 61 -2 85 0 23 2 4 4 -43 4 -47 0 -66 -2 -42 -4z"/>
<path d="M5411 9156 c2 -2 27 -6 54 -9 34 -4 42 -3 25 3 -25 8 -87 13 -79 6z"/>
<path d="M4401 9121 c9 -27 9 -35 -2 -42 -8 -5 -9 -9 -3 -9 24 0 55 35 48 53
-3 10 -12 16 -19 13 -7 -2 -18 1 -24 7 -9 9 -9 3 0 -22z"/>
<path d="M5270 9140 c0 -5 12 -10 26 -10 14 0 23 4 19 10 -3 6 -15 10 -26 10
-10 0 -19 -4 -19 -10z"/>
<path d="M4849 9103 c-18 -20 -27 -32 -17 -25 13 10 17 10 20 0 4 -10 8 -10
22 1 11 10 14 17 7 24 -7 7 -7 15 0 24 24 28 1 11 -32 -24z"/>
<path d="M4235 9100 c10 -11 20 -20 23 -20 3 0 -3 9 -13 20 -10 11 -20 20 -23
20 -3 0 3 -9 13 -20z"/>
<path d="M5642 9069 c-2 -25 1 -29 24 -29 19 0 25 4 21 14 -4 11 -1 13 10 9
10 -4 14 -2 10 4 -4 6 -20 15 -35 21 -26 9 -28 8 -30 -19z"/>
<path d="M3808 9083 c12 -2 32 -2 45 0 12 2 2 4 -23 4 -25 0 -35 -2 -22 -4z"/>
<path d="M3948 9083 c7 -3 16 -2 19 1 4 3 -2 6 -13 5 -11 0 -14 -3 -6 -6z"/>
<path d="M4683 9065 c-11 -25 2 -49 16 -28 3 6 13 13 21 16 12 4 12 6 -2 6 -9
1 -18 8 -20 16 -2 10 -7 7 -15 -10z"/>
<path d="M3681 9064 c-58 -15 -75 -24 -49 -24 14 0 33 -25 30 -40 0 -3 10 -7
23 -8 28 -2 47 19 43 50 -2 18 3 24 27 29 27 6 27 7 5 7 -14 0 -50 -6 -79 -14z"/>
<path d="M4276 9069 c9 -14 10 -19 13 -39 2 -15 57 -12 70 3 6 8 8 17 4 20 -3
4 0 7 7 7 7 0 11 2 8 5 -3 3 -18 1 -33 -5 -22 -8 -33 -7 -53 6 -17 11 -22 12
-16 3z"/>
<path d="M5216 9027 l-26 -30 31 7 c17 3 46 7 63 7 17 1 23 3 14 6 -10 2 -18
10 -18 18 0 27 -37 23 -64 -8z"/>
<path d="M3506 8999 l-39 -21 21 -21 c12 -12 30 -32 42 -44 23 -26 60 -31 60
-8 0 9 -11 26 -25 39 -14 13 -25 29 -25 35 0 8 -8 10 -22 6 -14 -3 -9 2 12 14
46 26 26 26 -24 0z"/>
<path d="M5058 9013 c-10 -2 -18 -12 -18 -22 0 -9 -5 -22 -12 -29 -16 -16 -5
-15 38 3 31 13 34 17 24 35 -6 11 -12 19 -13 19 -1 -1 -10 -3 -19 -6z"/>
<path d="M5795 9001 c11 -13 19 -32 17 -42 -2 -10 2 -19 8 -19 7 0 10 7 6 15
-8 22 4 18 38 -12 24 -22 26 -23 11 -4 -11 13 -38 37 -60 54 -29 23 -35 25
-20 8z"/>
<path d="M5563 8976 c-9 -10 -4 -17 24 -30 20 -9 38 -14 41 -11 3 3 0 5 -6 5
-7 0 -12 9 -12 19 0 10 -7 22 -16 25 -19 7 -17 8 -31 -8z"/>
<path d="M3403 8934 c-73 -55 -121 -103 -167 -169 -59 -83 -60 -85 -35 -80 45
9 55 16 57 40 2 27 -7 32 -27 13 -11 -11 -11 -9 0 9 7 12 17 19 21 17 5 -3 7
0 6 7 -2 7 3 14 10 15 6 1 15 3 20 4 9 3 24 6 36 8 5 1 2 10 -7 20 -16 17 -15
20 11 45 18 17 36 25 49 23 22 -5 38 17 27 35 -3 5 -2 9 3 9 10 0 61 39 51 40
-3 0 -28 -16 -55 -36z m-3 -18 c0 -2 -8 -10 -17 -17 -16 -13 -17 -12 -4 4 13
16 21 21 21 13z m-112 -106 c-7 -10 -14 -17 -17 -15 -4 4 18 35 25 35 2 0 -1
-9 -8 -20z m-75 -105 c-3 -9 -8 -14 -10 -11 -3 3 -2 9 2 15 9 16 15 13 8 -4z"/>
<path d="M3688 8926 c-8 -8 -30 -24 -49 -36 -19 -12 -25 -19 -14 -15 11 4 42
14 69 23 27 9 43 18 35 21 -8 2 -17 8 -20 13 -3 5 -13 3 -21 -6z"/>
<path d="M4925 8910 c-3 -6 1 -7 9 -4 18 7 21 14 7 14 -6 0 -13 -4 -16 -10z"/>
<path d="M4260 8886 c0 -8 -5 -18 -12 -22 -6 -4 -8 -3 -5 4 5 6 -1 8 -13 5
-24 -6 -24 -6 15 -26 l30 -15 2 34 c1 19 -3 34 -8 34 -5 0 -9 -6 -9 -14z"/>
<path d="M6728 8873 c79 -2 205 -2 280 0 75 1 11 3 -143 3 -154 0 -216 -2
-137 -3z"/>
<path d="M7263 8873 c54 -2 139 -2 190 0 51 1 7 3 -98 3 -104 0 -146 -2 -92
-3z"/>
<path d="M6558 8863 c7 -3 16 -2 19 1 4 3 -2 6 -13 5 -11 0 -14 -3 -6 -6z"/>
<path d="M7450 8845 c7 -8 21 -15 31 -15 11 0 19 7 19 15 0 10 -10 15 -31 15
-27 0 -30 -2 -19 -15z"/>
<path d="M5759 8827 c29 -32 28 -31 28 -12 0 8 -3 13 -5 10 -3 -3 -15 3 -26
12 -15 13 -14 10 3 -10z"/>
<path d="M4809 8823 c-13 -16 -12 -17 4 -4 16 13 21 21 13 21 -2 0 -10 -8 -17
-17z"/>
<path d="M6440 8811 c-19 -16 -43 -43 -53 -60 -16 -27 -16 -31 -2 -31 23 0 88
68 81 85 -3 8 3 19 12 24 9 6 12 11 7 11 -6 0 -26 -13 -45 -29z m20 -5 c0 -2
-12 -11 -27 -20 l-28 -17 24 20 c23 21 31 25 31 17z"/>
<path d="M7750 8837 c0 -3 12 -12 26 -22 15 -9 23 -12 20 -6 -7 11 -46 35 -46
28z"/>
<path d="M3440 8800 c-7 -4 -10 -14 -8 -21 3 -8 -2 -23 -11 -33 -9 -11 5 -2
32 19 26 22 47 40 47 41 0 5 -50 0 -60 -6z"/>
<path d="M4840 8745 c13 -14 26 -25 28 -25 3 0 -5 11 -18 25 -13 14 -26 25
-28 25 -3 0 5 -11 18 -25z"/>
<path d="M7520 8736 c0 -8 -6 -17 -12 -19 -7 -3 7 -6 31 -6 l44 -1 -26 20
c-30 24 -37 25 -37 6z"/>
<path d="M6688 8713 c7 -3 16 -2 19 1 4 3 -2 6 -13 5 -11 0 -14 -3 -6 -6z"/>
<path d="M6823 8713 c15 -2 37 -2 50 0 12 2 0 4 -28 4 -27 0 -38 -2 -22 -4z"/>
<path d="M7128 8713 c18 -2 45 -2 60 0 15 2 0 4 -33 4 -33 0 -45 -2 -27 -4z"/>
<path d="M7343 8713 c15 -2 37 -2 50 0 12 2 0 4 -28 4 -27 0 -38 -2 -22 -4z"/>
<path d="M7853 8675 c-8 -24 -9 -44 -3 -54 8 -14 9 -13 10 4 1 19 1 19 11 1
10 -17 8 -52 -7 -126 -4 -20 -3 -22 5 -9 19 29 25 150 9 188 l-14 34 -11 -38z"/>
<path d="M3307 8692 c-18 -4 -20 -14 -11 -49 4 -13 11 -20 17 -16 7 4 8 0 3
-13 -4 -11 -4 -15 1 -9 15 17 63 83 63 87 0 4 -52 4 -73 0z"/>
<path d="M4083 8693 c26 -2 68 -2 95 0 26 2 4 3 -48 3 -52 0 -74 -1 -47 -3z"/>
<path d="M5158 8693 c7 -3 16 -2 19 1 4 3 -2 6 -13 5 -11 0 -14 -3 -6 -6z"/>
<path d="M3893 8683 c9 -2 25 -2 35 0 9 3 1 5 -18 5 -19 0 -27 -2 -17 -5z"/>
<path d="M5323 8683 c9 -2 25 -2 35 0 9 3 1 5 -18 5 -19 0 -27 -2 -17 -5z"/>
<path d="M7725 8680 c-4 -6 -11 -7 -17 -4 -5 4 -4 -4 2 -17 7 -12 17 -34 21
-48 l9 -26 -4 25 c-2 14 -7 34 -11 45 -7 20 -6 20 9 1 16 -19 16 -19 16 1 0
25 -15 39 -25 23z"/>
<path d="M3828 8673 c7 -3 16 -2 19 1 4 3 -2 6 -13 5 -11 0 -14 -3 -6 -6z"/>
<path d="M5393 8673 c9 -2 23 -2 30 0 6 3 -1 5 -18 5 -16 0 -22 -2 -12 -5z"/>
<path d="M3768 8663 c7 -3 16 -2 19 1 4 3 -2 6 -13 5 -11 0 -14 -3 -6 -6z"/>
<path d="M3676 8649 c-49 -12 -64 -24 -17 -14 23 5 31 4 27 -3 -4 -6 3 -16 14
-22 25 -14 50 2 50 31 0 21 -13 22 -74 8z m61 -5 c-3 -3 -12 -4 -19 -1 -8 3
-5 6 6 6 11 1 17 -2 13 -5z"/>
<path d="M4503 8643 c-28 -11 -10 -23 35 -23 46 1 46 1 22 15 -26 15 -37 17
-57 8z"/>
<path d="M5600 8630 c34 -11 60 -11 35 0 -11 5 -29 8 -40 8 -16 0 -15 -2 5 -8z"/>
<path d="M6503 8595 c0 -22 2 -30 4 -17 2 12 2 30 0 40 -3 9 -5 -1 -4 -23z"/>
<path d="M6470 8611 c0 -6 5 -13 10 -16 6 -3 10 1 10 9 0 9 -4 16 -10 16 -5 0
-10 -4 -10 -9z"/>
<path d="M6342 8590 c0 -14 3 -36 7 -49 6 -21 8 -22 20 -7 14 17 8 51 -8 41
-5 -3 -12 5 -14 17 -4 21 -4 21 -5 -2z"/>
<path d="M5891 8584 c0 -11 3 -14 6 -6 3 7 2 16 -1 19 -3 4 -6 -2 -5 -13z"/>
<path d="M3435 8575 c-25 -12 -26 -14 -5 -9 28 7 60 23 45 23 -5 0 -23 -6 -40
-14z"/>
<path d="M4618 8564 c-4 -18 -10 -44 -14 -58 -6 -25 -5 -26 17 -16 17 8 24 20
25 40 1 17 -2 30 -7 30 -4 0 -9 8 -11 18 -3 11 -6 6 -10 -14z"/>
<path d="M5127 8563 c-14 -13 -6 -23 18 -23 18 0 23 4 19 15 -6 16 -26 20 -37
8z"/>
<path d="M3867 8540 c-4 -18 0 -20 35 -20 32 0 39 3 34 16 -3 9 -6 18 -6 20 0
2 -13 4 -29 4 -20 0 -30 -6 -34 -20z"/>
<path d="M4060 8556 c0 -9 30 -14 35 -6 4 6 -3 10 -14 10 -12 0 -21 -2 -21 -4z"/>
<path d="M5900 8551 c0 -8 -8 -10 -22 -6 -21 5 -21 5 -5 -6 20 -11 48 3 34 18
-4 3 -7 1 -7 -6z"/>
<path d="M4730 8524 c0 -8 5 -12 10 -9 6 4 8 11 5 16 -9 14 -15 11 -15 -7z"/>
<path d="M5100 8531 c0 -6 4 -13 10 -16 6 -3 7 1 4 9 -7 18 -14 21 -14 7z"/>
<path d="M3101 8467 c-13 -78 -14 -98 -1 -117 7 -11 9 -7 6 15 -2 17 -1 24 1
17 3 -9 10 -5 19 13 15 28 10 50 -8 39 -8 -5 -9 9 -4 44 9 73 0 65 -13 -11z"/>
<path d="M4359 8506 c-9 -19 -8 -29 4 -46 15 -21 15 -21 26 11 14 40 14 48 0
29 -8 -12 -9 -10 -4 8 9 30 -12 29 -26 -2z"/>
<path d="M5323 8523 c9 -2 23 -2 30 0 6 3 -1 5 -18 5 -16 0 -22 -2 -12 -5z"/>
<path d="M4886 8495 c10 -8 23 -15 28 -15 6 0 1 7 -10 15 -10 8 -23 15 -28 15
-6 0 -1 -7 10 -15z"/>
<path d="M5470 8500 c34 -11 60 -11 35 0 -11 5 -29 8 -40 8 -16 0 -15 -2 5 -8z"/>
<path d="M6055 8498 c-4 -10 -4 -26 0 -35 8 -17 8 -17 12 0 3 9 3 25 0 35 -4
16 -4 16 -12 0z"/>
<path d="M7630 8490 l-35 -7 32 -2 c17 0 35 4 38 9 3 6 5 9 3 9 -2 -1 -19 -5
-38 -9z"/>
<path d="M6593 8483 c9 -2 25 -2 35 0 9 3 1 5 -18 5 -19 0 -27 -2 -17 -5z"/>
<path d="M6843 8483 c48 -2 125 -2 170 0 45 1 6 3 -88 3 -93 0 -130 -2 -82 -3z"/>
<path d="M7233 8483 c15 -2 39 -2 55 0 15 2 2 4 -28 4 -30 0 -43 -2 -27 -4z"/>
<path d="M7448 8483 c18 -2 45 -2 60 0 15 2 0 4 -33 4 -33 0 -45 -2 -27 -4z"/>
<path d="M4197 8428 c-3 -13 -9 -33 -12 -45 -6 -17 -3 -23 8 -23 21 0 41 37
31 58 -4 9 -6 20 -6 25 5 19 -16 4 -21 -15z"/>
<path d="M3374 8396 c0 -21 3 -23 27 -14 33 11 29 38 -5 38 -16 0 -22 -6 -22
-24z"/>
<path d="M5790 8406 c0 -2 7 -7 16 -10 8 -3 12 -2 9 4 -6 10 -25 14 -25 6z"/>
<path d="M6435 8392 c10 -12 25 -20 32 -17 8 2 11 1 8 -5 -3 -5 5 -14 17 -21
20 -10 21 -10 12 2 -6 8 -10 22 -9 31 4 24 -10 31 -33 19 -13 -7 -23 -6 -33 2
-7 7 -5 2 6 -11z"/>
<path d="M7753 8403 c-18 -7 -16 -23 3 -23 9 0 12 -5 8 -12 -4 -7 7 -2 24 11
18 12 32 24 32 25 0 5 -54 4 -67 -1z"/>
<path d="M4731 8384 c0 -11 3 -14 6 -6 3 7 2 16 -1 19 -3 4 -6 -2 -5 -13z"/>
<path d="M4721 8344 c0 -11 3 -14 6 -6 3 7 2 16 -1 19 -3 4 -6 -2 -5 -13z"/>
<path d="M6714 8350 c-19 -7 -21 -16 -21 -82 1 -72 1 -72 4 -10 l4 62 52 2 52
1 -55 7 c-38 5 -45 7 -22 8 19 1 31 6 27 12 -7 12 -13 12 -41 0z"/>
<path d="M5948 8343 c7 -3 16 -2 19 1 4 3 -2 6 -13 5 -11 0 -14 -3 -6 -6z"/>
<path d="M3122 8316 c10 -11 21 -13 48 -6 l35 10 -36 -4 c-20 -3 -42 0 -48 5
-6 5 -5 2 1 -5z"/>
<path d="M4555 8300 c-4 -17 -5 -34 -2 -36 2 -3 7 10 11 27 8 42 0 50 -9 9z"/>
<path d="M6963 8323 c43 -2 110 -2 150 0 40 1 5 3 -78 3 -82 0 -115 -2 -72 -3z"/>
<path d="M7303 8323 c42 -2 112 -2 155 0 42 1 7 3 -78 3 -85 0 -120 -2 -77 -3z"/>
<path d="M7690 8314 c0 -9 -9 -18 -20 -21 -24 -6 -27 -41 -4 -50 9 -3 20 -15
24 -27 6 -15 9 -1 9 47 1 37 -1 67 -4 67 -3 0 -5 -7 -5 -16z"/>
<path d="M4285 8302 c-3 -11 1 -33 8 -51 l14 -32 11 39 c14 47 15 62 2 42 -8
-13 -10 -12 -10 3 0 23 -17 22 -25 -1z"/>
<path d="M6666 8302 c-4 -13 -5 -26 -2 -29 10 -11 18 4 14 29 l-4 23 -8 -23z"/>
<path d="M7542 7893 l-2 -433 -37 -2 c-21 0 -46 0 -56 0 -10 1 -15 -3 -12 -8
3 -6 24 -10 45 -10 31 0 38 -3 34 -15 -4 -10 0 -15 12 -15 28 0 39 12 41 45 1
18 -1 24 -5 15 -4 -8 -9 181 -12 420 l-5 435 -3 -432z"/>
<path d="M4711 8294 c0 -11 3 -14 6 -6 3 7 2 16 -1 19 -3 4 -6 -2 -5 -13z"/>
<path d="M4691 8209 c-6 -28 -10 -54 -7 -56 2 -2 9 19 15 48 6 28 10 54 7 56
-2 2 -9 -19 -15 -48z"/>
<path d="M6543 8175 c0 -27 2 -38 4 -22 2 15 2 37 0 50 -2 12 -4 0 -4 -28z"/>
<path d="M4121 8170 c-7 -23 -10 -45 -7 -48 3 -3 6 0 6 7 0 7 5 9 10 6 15 -9
23 21 13 51 -9 27 -9 26 -22 -16z"/>
<path d="M6695 7815 c0 -198 1 -280 2 -183 2 97 2 259 0 360 -1 101 -2 21 -2
-177z"/>
<path d="M4515 8105 c-3 -26 -4 -49 -2 -52 3 -3 9 16 12 42 4 25 5 48 2 51 -2
3 -8 -16 -12 -41z"/>
<path d="M4233 8093 c-17 -6 -16 -34 1 -67 l14 -27 6 36 c4 20 9 42 12 49 5
13 -10 16 -33 9z"/>
<path d="M6673 8025 c0 -22 2 -30 4 -17 2 12 2 30 0 40 -3 9 -5 -1 -4 -23z"/>
<path d="M4661 8034 c0 -11 3 -14 6 -6 3 7 2 16 -1 19 -3 4 -6 -2 -5 -13z"/>
<path d="M7693 7985 c0 -38 2 -53 4 -32 2 20 2 52 0 70 -2 17 -4 1 -4 -38z"/>
<path d="M4632 7980 c0 -14 2 -19 5 -12 2 6 2 18 0 25 -3 6 -5 1 -5 -13z"/>
<path d="M4652 7980 c0 -14 2 -19 5 -12 2 6 2 18 0 25 -3 6 -5 1 -5 -13z"/>
<path d="M4051 7903 c-6 -31 -9 -59 -6 -61 3 -3 5 2 5 12 0 9 4 15 9 11 14 -8
41 35 33 54 -17 45 -29 40 -41 -16z"/>
<path d="M6540 7878 c1 -73 1 -73 15 -39 19 43 19 78 0 97 -13 14 -15 7 -15
-58z"/>
<path d="M4641 7904 c0 -11 3 -14 6 -6 3 7 2 16 -1 19 -3 4 -6 -2 -5 -13z"/>
<path d="M4480 7866 c0 -36 3 -44 15 -40 17 7 21 54 4 54 -5 0 -8 4 -4 9 3 5
1 12 -5 16 -6 4 -10 -11 -10 -39z"/>
<path d="M4201 7854 c0 -11 3 -14 6 -6 3 7 2 16 -1 19 -3 4 -6 -2 -5 -13z"/>
<path d="M4199 7817 c5 -5 21 -7 37 -5 27 3 26 4 -8 9 -22 3 -34 1 -29 -4z"/>
<path d="M4413 7813 c9 -2 25 -2 35 0 9 3 1 5 -18 5 -19 0 -27 -2 -17 -5z"/>
<path d="M4593 7784 c-3 -8 -1 -20 6 -27 8 -8 11 -4 11 16 0 30 -7 35 -17 11z"/>
<path d="M4623 7760 c0 -25 2 -35 4 -22 2 12 2 32 0 45 -2 12 -4 2 -4 -23z"/>
<path d="M7693 7735 c0 -38 2 -53 4 -32 2 20 2 52 0 70 -2 17 -4 1 -4 -38z"/>
<path d="M7560 7715 c0 -20 5 -35 12 -35 6 0 8 3 5 6 -3 4 -2 14 2 23 6 10 4
21 -5 29 -12 11 -14 7 -14 -23z"/>
<path d="M4280 7694 c-10 -11 -10 -14 1 -15 8 -1 1 -5 -16 -9 -24 -6 -20 -8
25 -8 30 0 47 2 38 5 -9 2 -15 10 -12 17 7 19 -22 27 -36 10z"/>
<path d="M4001 7674 c0 -11 3 -14 6 -6 3 7 2 16 -1 19 -3 4 -6 -2 -5 -13z"/>
<path d="M3992 7630 c0 -14 2 -19 5 -12 2 6 2 18 0 25 -3 6 -5 1 -5 -13z"/>
<path d="M4151 7634 c0 -11 3 -14 6 -6 3 7 2 16 -1 19 -3 4 -6 -2 -5 -13z"/>
<path d="M4602 7600 c0 -14 2 -19 5 -12 2 6 2 18 0 25 -3 6 -5 1 -5 -13z"/>
<path d="M7687 7578 c-2 -18 -1 -40 4 -48 5 -10 8 1 9 33 0 55 -6 61 -13 15z"/>
<path d="M6543 7520 c0 -30 2 -43 4 -27 3 18 9 25 16 20 9 -5 9 -3 1 8 -7 8
-14 23 -17 34 -2 11 -5 -5 -4 -35z"/>
<path d="M4131 7514 c0 -11 3 -14 6 -6 3 7 2 16 -1 19 -3 4 -6 -2 -5 -13z"/>
<path d="M4592 7500 c0 -14 2 -19 5 -12 2 6 2 18 0 25 -3 6 -5 1 -5 -13z"/>
<path d="M3961 7460 c-1 -14 -4 -36 -6 -50 l-6 -25 11 25 c6 13 9 36 7 50 l-4
25 -2 -25z"/>
<path d="M4430 7435 c0 -27 -3 -61 -7 -75 -3 -14 -3 -22 1 -19 12 11 24 103
16 123 -7 16 -9 8 -10 -29z"/>
<path d="M4570 7450 c-7 -13 -8 -20 -1 -16 6 4 11 -16 13 -56 l3 -63 5 69 c6
76 -2 100 -20 66z"/>
<path d="M6305 7450 c-4 -6 8 -10 27 -11 30 -1 31 -2 8 -8 -19 -6 -10 -9 39
-14 66 -7 86 -3 61 13 -13 8 -12 10 3 10 10 0 15 5 12 10 -3 6 -37 10 -75 10
-38 0 -72 -4 -75 -10z"/>
<path d="M6757 7448 c-7 -4 47 -8 118 -8 91 0 126 3 115 10 -17 12 -215 9
-233 -2z"/>
<path d="M7032 7448 c-9 -4 41 -7 112 -7 71 -1 127 2 124 5 -8 8 -216 10 -236
2z"/>
<path d="M7795 7450 c-4 -7 50 -10 155 -10 105 0 159 3 155 10 -4 6 -67 10
-155 10 -88 0 -151 -4 -155 -10z"/>
<path d="M5958 7443 c6 -2 18 -2 25 0 6 3 1 5 -13 5 -14 0 -19 -2 -12 -5z"/>
<path d="M6113 7443 c9 -2 23 -2 30 0 6 3 -1 5 -18 5 -16 0 -22 -2 -12 -5z"/>
<path d="M8221 7446 c2 -2 31 -6 64 -9 37 -3 51 -2 35 3 -25 8 -107 13 -99 6z"/>
<path d="M6828 7420 c13 -6 31 -6 45 0 18 7 14 9 -23 9 -37 0 -41 -2 -22 -9z"/>
<path d="M7974 7422 c5 -9 53 -8 63 1 3 4 -10 7 -31 7 -20 0 -35 -4 -32 -8z"/>
<path d="M5810 7410 c-18 -12 -2 -12 25 0 13 6 15 9 5 9 -8 0 -22 -4 -30 -9z"/>
<path d="M5734 7374 c-18 -14 -18 -14 6 -3 31 14 36 19 24 19 -6 0 -19 -7 -30
-16z"/>
<path d="M3942 7340 c0 -19 2 -27 5 -17 2 9 2 25 0 35 -3 9 -5 1 -5 -18z"/>
<path d="M8512 7363 c0 -5 -2 -16 -7 -26 -11 -25 13 -66 42 -73 31 -8 69 31
51 53 -14 17 -89 57 -86 46z"/>
<path d="M5640 7316 c-25 -18 -56 -46 -70 -62 l-25 -29 25 22 c14 12 27 22 30
22 27 -2 60 16 58 30 -2 9 6 24 17 33 34 29 12 19 -35 -16z"/>
<path d="M6550 7320 c0 -6 25 -10 63 -10 72 0 62 15 -13 19 -30 1 -50 -2 -50
-9z"/>
<path d="M7623 7324 c-6 -3 -9 -17 -7 -32 6 -31 14 -42 14 -19 0 15 13 17 93
19 83 1 87 2 37 8 -30 4 -46 8 -35 10 12 1 3 6 -20 11 -45 9 -65 10 -82 3z
m50 -21 c-7 -2 -19 -2 -25 0 -7 3 -2 5 12 5 14 0 19 -2 13 -5z"/>
<path d="M4540 7271 c0 -22 -3 -47 -7 -57 -4 -11 -3 -15 4 -11 6 4 14 1 16 -5
3 -7 6 15 6 50 1 35 -3 62 -9 62 -5 0 -10 -18 -10 -39z"/>
<path d="M4573 7230 c0 -47 2 -66 4 -42 2 23 2 61 0 85 -2 23 -4 4 -4 -43z"/>
<path d="M3921 7215 c-8 -48 -11 -88 -9 -91 3 -2 10 34 18 82 7 47 10 87 8 90
-3 2 -10 -34 -17 -81z"/>
<path d="M3950 7280 c0 -19 3 -21 12 -12 9 9 9 15 0 24 -9 9 -12 7 -12 -12z"/>
<path d="M6048 7293 c34 -2 90 -2 125 0 34 2 6 3 -63 3 -69 0 -97 -1 -62 -3z"/>
<path d="M6253 7293 c9 -2 25 -2 35 0 9 3 1 5 -18 5 -19 0 -27 -2 -17 -5z"/>
<path d="M6703 7293 c126 -2 328 -2 450 0 122 1 20 2 -228 2 -247 0 -347 -1
-222 -2z"/>
<path d="M7958 7293 c56 -2 148 -2 205 0 56 1 10 3 -103 3 -113 0 -159 -2
-102 -3z"/>
<path d="M8663 7254 c35 -38 37 -44 25 -63 -7 -11 -16 -21 -20 -21 -5 0 -8 -7
-8 -15 0 -8 5 -15 11 -15 5 0 7 -4 4 -10 -7 -12 15 -13 31 -2 6 4 16 17 23 29
10 20 6 28 -46 81 -32 32 -41 39 -20 16z m58 -71 c13 -16 12 -17 -3 -4 -10 7
-18 15 -18 17 0 8 8 3 21 -13z"/>
<path d="M8278 7283 c6 -2 18 -2 25 0 6 3 1 5 -13 5 -14 0 -19 -2 -12 -5z"/>
<path d="M5898 7273 c7 -3 16 -2 19 1 4 3 -2 6 -13 5 -11 0 -14 -3 -6 -6z"/>
<path d="M6461 6570 c-2 -393 -6 -706 -8 -696 -4 14 -7 16 -13 6 -11 -18 -30
-3 -30 25 0 13 -5 36 -10 51 -8 19 -8 30 0 38 5 5 10 19 11 31 0 11 3 14 6 8
2 -7 11 -13 19 -13 11 0 14 20 13 103 l-1 102 -18 -55 c-10 -30 -18 -49 -19
-42 -1 7 -5 10 -11 7 -6 -4 -10 5 -10 19 0 17 -5 26 -16 26 -10 0 -14 -6 -10
-15 3 -8 1 -15 -4 -15 -6 0 -10 -18 -10 -39 0 -22 -4 -43 -10 -46 -5 -3 -10 1
-10 10 0 9 -4 13 -10 10 -6 -4 -10 15 -10 49 0 30 5 58 10 61 6 3 10 11 10 16
0 6 -4 8 -10 4 -5 -3 -11 28 -13 77 -1 46 -4 -566 -5 -1358 l-2 -1441 -46 -7
c-69 -9 -209 -7 -288 4 -193 28 -373 189 -419 375 -13 51 -16 264 -22 1490 -4
787 -9 1432 -11 1434 -2 2 -5 -169 -5 -380 -1 -211 -5 -368 -9 -349 -7 32 -10
29 -14 -17 -3 -26 -16 -24 -17 3 -2 47 2 66 17 81 8 9 14 33 13 61 0 26 -3 41
-6 34 -2 -6 -9 -10 -14 -7 -5 4 -6 -1 -3 -9 3 -9 1 -16 -5 -16 -6 0 -11 -12
-11 -26 0 -14 -4 -23 -10 -19 -5 3 -7 11 -5 18 3 7 1 18 -4 26 -8 12 -13 12
-35 -3 -23 -15 -26 -23 -25 -74 0 -31 3 -51 6 -44 3 8 11 4 25 -13 20 -26 17
-45 -7 -45 -7 0 -16 6 -18 13 -3 6 -6 -1 -6 -16 -1 -16 3 -26 9 -22 13 8 14
-67 1 -80 -5 -6 -11 -19 -14 -30 -3 -11 -5 194 -5 455 0 261 4 489 8 505 6 24
8 26 9 8 0 -13 5 -23 10 -23 14 0 19 50 9 87 -5 20 -7 47 -4 62 5 23 4 23 -9
-5 -34 -75 -36 -182 -33 -1634 4 -1603 -2 -1479 75 -1636 40 -84 138 -208 158
-200 7 2 19 -3 27 -12 12 -16 11 -16 -6 -2 -15 11 -18 11 -12 2 14 -23 126
-91 188 -113 l58 -22 0 -73 c0 -228 193 -379 401 -315 129 41 208 145 217 287
l5 74 616 -2 616 -3 6 -75 c14 -177 138 -294 309 -294 88 0 145 22 209 80 70
63 94 113 100 216 l6 89 83 28 c228 79 398 278 441 515 14 74 14 2958 0 2996
-7 21 -8 19 -4 -10 4 -30 1 -37 -20 -46 -19 -9 -27 -9 -35 1 -17 21 -40 6 -40
-25 0 -23 -4 -27 -20 -23 -11 3 -20 12 -20 21 0 8 -2 13 -5 10 -3 -2 -8 -650
-11 -1439 -6 -1551 -4 -1490 -60 -1601 -36 -72 -154 -187 -225 -220 -97 -46
-251 -69 -338 -52 l-31 7 0 669 0 669 -25 24 c-30 31 -73 32 -109 4 l-26 -20
-2 -677 -3 -677 -313 -1 c-172 0 -315 2 -317 6 -2 3 -5 281 -6 616 -1 637 -2
652 -44 668 -35 13 -82 6 -101 -15 -18 -20 -19 -49 -24 -648 l-5 -626 -302 -2
-303 -2 -3 1902 c-1 1046 -4 1580 -6 1187z m2398 138 c-1 -40 -4 -62 -6 -48
-3 14 -10 29 -17 33 -8 6 -8 10 2 14 6 2 12 20 12 39 0 19 2 34 5 34 3 0 4
-33 4 -72z m-2 -200 c-2 -18 -4 -6 -4 27 0 33 2 48 4 33 2 -15 2 -42 0 -60z
m0 -245 c-2 -16 -4 -5 -4 22 0 28 2 40 4 28 2 -13 2 -35 0 -50z m0 -160 c-3
-10 -5 -2 -5 17 0 19 2 27 5 18 2 -10 2 -26 0 -35z m-3397 -70 c0 -19 -3 -24
-10 -17 -6 6 -8 18 -4 27 9 24 14 21 14 -10z m-20 -63 c0 -5 -4 -10 -9 -10 -6
0 -13 5 -16 10 -3 6 1 10 9 10 9 0 16 -4 16 -10z m69 -182 c0 -78 -4 -116 -9
-103 -6 14 -9 15 -9 5 -1 -8 -13 -28 -28 -45 -15 -16 -28 -36 -28 -44 0 -8 -6
-16 -14 -19 -8 -3 -11 0 -7 7 4 6 3 11 -2 11 -8 0 -25 -28 -35 -60 -3 -8 -5
57 -4 145 0 88 2 135 4 104 4 -51 6 -56 23 -52 11 3 18 9 15 13 -3 5 5 6 16 3
16 -4 20 -2 17 8 -3 8 2 19 11 25 8 7 15 25 16 40 0 18 5 28 13 27 7 -2 12 8
12 27 0 17 2 30 5 30 3 0 5 -55 4 -122z m3348 85 c-3 -10 -5 -4 -5 12 0 17 2
24 5 18 2 -7 2 -21 0 -30z m-2521 -93 c8 -7 14 -26 14 -43 0 -17 -3 -27 -7
-24 -3 4 -12 2 -20 -4 -11 -9 -13 1 -12 57 1 38 4 59 6 47 2 -12 11 -27 19
-33z m123 -252 c-1 -62 -4 -101 -6 -85 -2 15 -9 25 -14 22 -5 -4 -16 1 -25 9
-11 12 -14 27 -9 61 4 26 11 42 17 39 6 -4 8 5 3 24 -5 24 -3 31 12 35 10 3
19 5 21 6 1 0 1 -50 1 -111z m-1082 -340 c-3 -8 -6 -5 -6 6 -1 11 2 17 5 13 3
-3 4 -12 1 -19z m2530 -440 c-2 -13 -4 -5 -4 17 -1 22 1 32 4 23 2 -10 2 -28
0 -40z m-702 12 c3 -6 -1 -7 -9 -4 -18 7 -21 14 -7 14 6 0 13 -4 16 -10z
m-905 -1496 c0 -69 -22 -109 -72 -135 -78 -40 -164 -12 -199 65 -18 41 -25
106 -12 119 3 4 69 7 145 7 l138 0 0 -56z m1868 6 c5 -90 -60 -160 -147 -160
-82 0 -136 48 -147 133 -11 79 -13 78 148 75 l143 -3 3 -45z"/>
<path d="M5460 5725 c0 -8 2 -15 4 -15 2 0 6 7 10 15 3 8 1 15 -4 15 -6 0 -10
-7 -10 -15z"/>
<path d="M5435 5709 c-4 -6 -5 -12 -2 -15 2 -3 7 2 10 11 7 17 1 20 -8 4z"/>
<path d="M8350 7265 c46 -18 64 -17 25 0 -16 8 -37 14 -45 14 -8 0 1 -7 20
-14z"/>
<path d="M5840 7255 c-14 -8 -44 -14 -67 -15 -24 0 -44 -3 -44 -7 -6 -32 -5
-53 1 -53 13 0 30 26 23 34 -4 4 1 4 11 0 15 -6 17 -4 11 6 -5 9 -4 11 3 6 6
-4 33 4 59 18 26 14 44 25 38 25 -5 0 -21 -6 -35 -14z"/>
<path d="M8482 7234 c-7 -13 -13 -14 -33 -5 -21 10 -21 10 -5 -1 11 -7 44 -33
75 -57 l56 -44 -35 39 c-19 21 -31 35 -26 31 5 -4 15 -2 22 4 10 8 9 14 -4 30
-20 23 -38 24 -50 3z"/>
<path d="M7432 7164 c-6 -21 -14 -59 -17 -84 -4 -32 0 -24 15 30 20 78 23 122
2 54z"/>
<path d="M6304 6985 c0 -93 1 -149 3 -122 2 26 8 47 14 47 5 0 9 25 9 56 0 32
-4 53 -10 49 -5 -3 -11 24 -13 67 -1 40 -3 -3 -3 -97z"/>
<path d="M4063 7113 c-4 -10 -10 -20 -14 -23 -13 -9 -22 -60 -10 -60 6 0 11
-8 12 -17 1 -27 7 -5 17 60 9 57 7 72 -5 40z"/>
<path d="M5445 7089 c-9 -17 -15 -33 -13 -35 3 -2 12 12 21 31 21 43 13 47 -8
4z"/>
<path d="M7553 7096 c-15 -15 -23 -33 -23 -56 0 -26 3 -31 10 -20 7 12 10 8
11 -15 0 -19 6 -7 15 35 8 36 13 68 11 71 -1 3 -12 -4 -24 -15z"/>
<path d="M3903 7075 c0 -22 2 -30 4 -17 2 12 2 30 0 40 -3 9 -5 -1 -4 -23z"/>
<path d="M4411 7053 c-1 -57 0 -61 19 -56 22 6 22 9 -6 83 l-13 35 0 -62z"/>
<path d="M8643 7103 c-7 -2 -13 -12 -13 -20 0 -14 -3 -13 -22 3 l-22 19 20
-26 c18 -25 20 -26 41 -10 34 24 30 48 -4 34z"/>
<path d="M5602 7053 c-29 -42 -54 -94 -48 -101 3 -3 6 -1 6 4 0 6 15 36 34 67
36 60 41 76 8 30z"/>
<path d="M4559 6908 c0 -84 -3 -147 -6 -141 -3 9 -10 10 -24 3 -20 -11 -26
-49 -10 -65 5 -6 14 -26 19 -45 l10 -35 3 30 c1 17 5 -4 9 -45 4 -46 7 26 8
188 1 144 0 262 -3 262 -3 0 -5 -69 -6 -152z"/>
<path d="M8782 7033 c-13 -15 -28 -37 -32 -49 -10 -26 -59 -41 -72 -22 -7 9
-8 7 -3 -7 3 -11 11 -42 17 -70 12 -51 28 -83 28 -53 0 9 11 19 24 22 17 4 26
14 28 33 2 17 13 32 33 43 27 15 31 16 37 1 15 -31 -5 53 -21 90 l-16 38 -23
-26z"/>
<path d="M3891 7005 c-1 -16 -3 -52 -5 -80 -2 -27 -1 -38 1 -23 3 18 9 25 18
22 18 -7 32 43 16 59 -8 8 -11 6 -12 -8 -1 -11 -5 -2 -9 20 -6 35 -7 37 -9 10z"/>
<path d="M7397 6963 c-4 -38 -7 -91 -7 -120 0 -42 -4 -54 -20 -63 -11 -6 -18
-15 -15 -20 3 -5 0 -12 -6 -16 -8 -4 -9 -3 -5 4 13 21 -8 12 -39 -16 -17 -15
-25 -23 -18 -18 9 6 18 4 26 -6 17 -23 73 -19 69 5 -2 11 4 17 15 18 10 0 13
3 6 5 -7 3 -9 12 -6 20 3 8 0 14 -7 14 -9 0 -9 4 -3 13 10 11 28 247 20 247
-2 0 -7 -30 -10 -67z"/>
<path d="M4510 6955 c-16 -20 -5 -45 20 -45 14 0 20 7 20 24 0 28 -24 41 -40
21z"/>
<path d="M4233 6933 c32 -2 81 -2 110 0 29 2 3 3 -58 3 -60 0 -84 -1 -52 -3z"/>
<path d="M4276 6911 c-3 -5 1 -12 10 -15 19 -7 64 3 64 15 0 12 -67 12 -74 0z"/>
<path d="M7538 6871 c-4 -12 -11 -20 -16 -17 -11 7 -35 -18 -25 -27 3 -4 0
-14 -8 -24 -12 -14 -12 -16 0 -8 11 6 13 4 8 -9 -4 -9 -3 -15 2 -12 5 3 11 -7
13 -24 2 -16 1 -27 -3 -25 -9 6 -17 -16 -12 -32 3 -7 11 -13 19 -13 8 0 14 -4
14 -9 0 -5 3 -16 6 -24 3 -10 -6 -22 -25 -33 -24 -14 -31 -25 -31 -49 0 -35
-8 -49 -32 -58 -11 -4 -18 1 -22 16 -9 33 -7 69 3 63 5 -3 12 1 15 10 7 17
-27 67 -38 56 -4 -3 -4 1 0 11 9 24 -22 22 -36 -2 -13 -26 -3 -51 18 -44 9 3
4 -4 -13 -14 -16 -11 -37 -28 -45 -38 -14 -17 -14 -17 6 -7 11 6 26 18 34 26
21 26 28 19 39 -37 10 -46 9 -57 -9 -92 -12 -25 -19 -56 -18 -85 1 -39 2 -41
5 -10 6 59 8 61 48 44 20 -8 40 -12 45 -9 4 3 6 -3 3 -14 -3 -10 0 -22 6 -25
6 -4 9 -1 5 7 -2 7 4 24 14 37 14 18 25 22 45 16 51 -13 57 -75 8 -91 -11 -3
-18 -12 -15 -19 3 -7 -3 -23 -13 -35 l-18 -22 -34 26 c-38 27 -61 32 -61 13 0
-8 -7 -5 -15 6 -17 23 -20 14 -4 -15 5 -11 15 -16 21 -13 6 4 8 3 4 -4 -8 -13
40 -52 63 -52 9 1 3 7 -14 15 -16 7 -25 14 -18 14 6 1 19 4 29 8 11 4 15 2 11
-4 -4 -6 4 -8 21 -5 27 5 27 5 8 -17 l-19 -21 37 0 c77 0 148 56 158 125 3 17
3 24 1 18 -6 -17 -29 -16 -45 1 -9 9 -20 11 -35 5 -17 -6 -21 -5 -17 6 3 7 1
23 -6 34 -9 19 -8 21 15 21 14 0 26 -1 28 -2 1 -1 12 4 24 10 16 9 23 9 26 -1
3 -6 6 -2 6 9 1 24 -31 69 -61 85 -12 6 -18 7 -14 1 3 -5 -6 -18 -20 -27 -21
-13 -31 -15 -50 -6 -41 18 -25 58 21 54 13 -1 15 0 4 3 -15 5 -29 60 -29 115
0 26 26 24 77 -5 23 -14 39 -18 37 -11 -3 7 4 15 16 18 13 3 20 11 18 19 -3 7
1 29 8 49 9 27 9 40 1 48 -18 18 -36 13 -43 -14 -3 -14 -10 -22 -15 -19 -5 3
-9 -3 -9 -12 0 -13 -3 -15 -11 -7 -6 6 -29 9 -52 6 -23 -2 -37 -1 -32 4 6 4
11 15 11 23 4 53 10 65 34 71 23 6 22 7 -7 8 -28 1 -32 5 -35 34 -3 29 -4 30
-10 8z m7 -92 c11 -16 1 -19 -13 -3 -7 8 -8 14 -3 14 5 0 13 -5 16 -11z"/>
<path d="M5521 6814 c0 -11 3 -14 6 -6 3 7 2 16 -1 19 -3 4 -6 -2 -5 -13z"/>
<path d="M3866 6742 c-4 -46 -5 -86 -2 -89 3 -4 6 11 7 33 0 27 3 33 8 20 7
-17 8 -17 24 -2 21 21 21 30 2 46 -12 10 -15 10 -17 -1 0 -8 -4 6 -7 31 -6 42
-7 40 -15 -38z"/>
<path d="M4166 6811 c-4 -6 -4 -11 1 -12 4 -1 -3 -5 -17 -9 -19 -6 -9 -8 38
-9 55 -1 62 1 49 14 -20 19 -63 29 -71 16z"/>
<path d="M6440 6793 c0 -13 -3 -14 -8 -5 -6 9 -14 7 -30 -8 -27 -25 -27 -35
-4 -52 9 -7 17 -19 18 -25 2 -29 5 -33 19 -33 12 0 15 14 15 70 0 39 -2 70 -5
70 -3 0 -5 -8 -5 -17z"/>
<path d="M7700 6783 c25 -14 54 -33 65 -42 18 -15 19 -15 6 1 -13 18 -93 68
-108 68 -4 0 12 -12 37 -27z"/>
<path d="M3940 6712 c0 -2 7 -10 15 -18 8 -9 15 -24 15 -33 0 -19 29 -51 31
-35 0 5 4 0 9 -11 6 -15 9 -9 9 27 1 25 3 52 6 60 4 10 -6 13 -40 13 -25 0
-45 -1 -45 -3z"/>
<path d="M7833 6694 c15 -18 16 -23 3 -33 -8 -7 -18 -25 -21 -41 -4 -19 -14
-30 -28 -32 -12 -2 -21 -9 -19 -16 3 -15 -10 -16 -26 0 -7 7 -12 9 -12 6 0 -3
17 -18 38 -34 23 -17 31 -20 20 -8 -18 20 -17 21 33 32 28 7 56 9 61 5 7 -3 8
-1 4 5 -3 6 1 15 11 20 15 9 15 12 3 28 -8 9 -15 20 -15 23 0 3 -16 19 -35 36
-19 16 -27 20 -17 9z"/>
<path d="M7177 6637 c-36 -31 -38 -49 -6 -55 11 -1 16 5 15 20 -1 13 7 33 18
46 28 31 17 27 -27 -11z"/>
<path d="M4401 6633 c2 -31 16 -94 18 -77 1 6 14 9 32 6 25 -4 30 -2 24 9 -57
95 -76 111 -74 62z"/>
<path d="M6303 6530 c1 -74 2 -106 4 -70 2 35 9 67 14 71 6 3 13 32 16 65 6
53 5 58 -10 46 -13 -11 -16 -10 -20 5 -3 10 -4 -43 -4 -117z"/>
<path d="M7910 6627 c8 -7 16 -18 18 -25 3 -16 -33 -64 -41 -56 -3 3 -9 -10
-13 -30 l-6 -37 -27 17 c-30 19 -25 14 44 -47 28 -24 42 -35 33 -23 -23 26
-23 34 -1 34 10 0 36 20 59 45 23 24 44 41 48 38 3 -4 6 -4 6 0 0 8 -116 97
-127 97 -4 0 -1 -6 7 -13z m45 -35 c-3 -3 -11 0 -18 7 -9 10 -8 11 6 5 10 -3
15 -9 12 -12z"/>
<path d="M3847 6505 c-4 -60 -9 -148 -12 -195 -3 -77 -3 -79 5 -25 4 33 9 87
10 120 1 42 4 53 9 35 8 -30 37 -34 34 -5 -1 11 -6 45 -11 75 -9 49 -10 51
-12 20 -3 -26 -5 -20 -9 25 -6 57 -6 55 -14 -50z"/>
<path d="M6351 6594 c0 -11 3 -14 6 -6 3 7 2 16 -1 19 -3 4 -6 -2 -5 -13z"/>
<path d="M7109 6583 c-13 -16 -12 -17 4 -4 9 7 17 15 17 17 0 8 -8 3 -21 -13z"/>
<path d="M7048 6523 c-54 -81 -53 -69 -53 -639 l0 -530 30 -59 c23 -46 42 -66
79 -90 l49 -30 391 0 391 0 48 28 c57 34 92 84 107 152 7 33 10 226 8 565 -3
464 -5 518 -20 545 -10 18 -17 24 -18 14 0 -9 -8 -23 -18 -32 -15 -13 -21 -14
-32 -4 -8 6 -11 8 -8 3 4 -5 -4 -22 -17 -38 -14 -16 -25 -37 -25 -46 0 -15 -2
-15 -10 -2 -6 10 -10 -162 -12 -483 l-3 -499 -28 -24 -28 -24 -330 0 c-229 0
-337 4 -352 11 -21 12 -22 11 -4 -8 17 -20 17 -21 -10 -29 -15 -4 -35 -9 -43
-10 -47 -5 -66 -20 -61 -47 1 -5 -3 -6 -9 -2 -6 3 -8 11 -4 16 3 5 0 8 -7 7
-6 -2 -18 12 -26 31 l-14 33 35 -4 c29 -3 36 0 40 17 8 31 49 48 64 26 10 -13
11 -12 2 6 -6 14 -10 198 -10 508 0 408 2 492 15 523 13 33 13 35 0 18 -8 -11
-15 -14 -15 -7 0 7 -5 9 -11 5 -6 -3 -7 -9 -3 -13 5 -3 6 -73 3 -156 -3 -82
-6 -135 -7 -117 -1 18 -6 31 -11 28 -5 -3 -11 0 -14 8 -8 19 3 57 14 50 5 -3
9 23 8 58 -1 56 -2 60 -12 36 -6 -16 -17 -28 -23 -28 -7 0 -17 -6 -21 -14 -4
-7 -20 -15 -35 -18 l-28 -5 0 74 c0 41 3 72 8 69 9 -6 43 19 41 30 -1 5 -1 18
1 29 l1 20 9 -20 c6 -13 9 -15 9 -5 1 8 10 21 22 28 20 13 20 13 -6 34 -20 16
-23 23 -14 34 7 8 7 14 2 14 -6 0 -22 -17 -35 -37z m3 -34 c-12 -19 -21 -30
-21 -26 0 14 31 69 36 64 3 -3 -4 -20 -15 -38z m1039 -249 c0 -16 -4 -31 -9
-34 -11 -7 -25 49 -16 64 11 17 25 0 25 -30z m-80 -121 c0 -9 -11 -21 -25 -27
-22 -10 -24 -18 -28 -84 -2 -42 -4 -13 -5 66 l-2 140 30 -40 c16 -21 30 -46
30 -55z m-873 -141 c-2 -24 -4 -7 -4 37 0 44 2 63 4 43 2 -21 2 -57 0 -80z m1
-230 c-1 -115 -4 -154 -8 -118 -5 38 -8 46 -10 25 -2 -20 -5 -10 -10 30 -9 65
-1 108 11 65 4 -14 7 17 8 73 1 53 3 97 6 97 3 0 4 -78 3 -172z m-121 140 c-3
-8 -6 -5 -6 6 -1 11 2 17 5 13 3 -3 4 -12 1 -19z m24 -308 c14 0 10 -23 -11
-65 l-20 -39 1 109 c2 106 2 108 11 53 6 -32 14 -58 19 -58z m916 -53 c-2 -23
-3 -1 -3 48 0 50 1 68 3 42 2 -26 2 -67 0 -90z m-940 -114 c-3 -10 -5 -4 -5
12 0 17 2 24 5 18 2 -7 2 -21 0 -30z m1065 -48 c-6 -20 -11 -25 -16 -17 -11
18 2 68 14 56 5 -5 6 -23 2 -39z m-429 -52 c-57 -2 -149 -2 -205 0 -57 1 -11
3 102 3 113 0 159 -2 103 -3z m-304 -92 c7 -5 11 -14 7 -19 -4 -7 10 -12 36
-15 24 -2 -11 -4 -77 -4 -66 -1 -113 1 -105 4 8 3 23 14 33 24 19 20 81 26
106 10z m601 -21 c-8 -5 -19 -10 -25 -10 -5 0 -3 5 5 10 8 5 20 10 25 10 6 0
3 -5 -5 -10z m-103 -17 c-20 -2 -52 -2 -70 0 -17 2 0 4 38 4 39 0 53 -2 32 -4z"/>
<path d="M4574 6405 c0 -55 1 -76 3 -47 2 29 2 74 0 100 -2 26 -3 2 -3 -53z"/>
<path d="M6437 6448 c-3 -18 -1 -37 4 -42 5 -6 9 7 9 32 0 50 -6 54 -13 10z"/>
<path d="M4541 6424 c-12 -18 -18 -20 -33 -10 -25 15 -46 -13 -23 -30 8 -6 15
-16 15 -22 0 -6 4 -12 10 -14 5 -1 -2 -8 -16 -15 -23 -11 -29 -9 -51 13 l-26
26 8 -154 c4 -84 8 -166 9 -183 l1 -30 -83 -1 c-45 -1 -85 -4 -89 -8 -3 -3 3
-6 15 -6 21 0 27 -13 23 -47 -2 -17 38 -41 59 -36 14 4 23 -2 31 -20 6 -14 21
-28 33 -30 11 -2 -15 -4 -59 -5 -54 0 -72 3 -55 8 26 8 26 9 -5 16 -28 6 -45
6 -85 -3 l-35 -7 40 -7 c22 -3 -17 -6 -90 -6 -71 0 -120 2 -107 4 l23 4 -27
21 c-14 12 -39 21 -56 20 -25 -1 -29 3 -26 21 2 15 9 21 22 19 17 -3 18 -2 3
12 -8 9 -19 16 -23 16 -4 0 -12 7 -18 16 -14 19 -66 9 -66 -13 0 -8 -4 -11
-10 -8 -5 3 -10 0 -10 -7 0 -7 17 -24 38 -37 20 -14 42 -31 49 -39 13 -15 6
-45 -8 -36 -5 3 -9 -4 -9 -16 0 -19 -4 -21 -29 -15 -19 4 -32 2 -37 -6 -5 -9
-9 -7 -14 7 -16 44 -23 -138 -16 -466 7 -399 25 -685 63 -1030 36 -330 38
-299 -22 -320 -138 -49 -319 -148 -450 -249 -110 -85 -128 -123 -81 -177 35
-41 82 -37 143 13 87 71 147 110 255 167 142 76 207 101 368 142 359 92 764
60 1105 -86 60 -26 90 -25 116 1 18 18 20 30 16 67 -7 63 -14 68 -217 142
l-75 27 -24 59 c-141 350 -262 839 -360 1454 -5 30 -9 44 -10 30 0 -14 6 -65
14 -115 17 -105 18 -126 7 -107 -5 7 -16 10 -25 6 -12 -4 -17 -1 -17 10 0 10
-6 13 -15 10 -8 -4 -15 -1 -15 5 0 6 -6 11 -14 11 -7 0 -16 9 -19 21 -3 12
-10 18 -16 15 -5 -4 -17 4 -25 16 -21 29 -21 31 14 -172 76 -434 132 -669 242
-1002 34 -103 60 -189 57 -192 -2 -2 -26 0 -54 5 -166 28 -437 21 -623 -18
-41 -8 -75 -13 -77 -11 -10 10 -60 484 -79 751 l-6 77 161 0 c158 0 160 0 186
26 21 21 24 32 19 62 -10 66 -27 72 -205 72 -109 0 -161 4 -169 12 -9 9 -12 8
-12 -6 0 -16 -1 -16 -16 -1 -14 14 -15 21 -3 63 13 46 13 47 20 17 4 -16 7
133 8 333 l1 362 240 0 c207 0 240 -2 240 -15 0 -10 11 -15 35 -15 28 0 34 4
31 18 -6 32 -18 52 -32 52 -9 0 -14 11 -14 31 0 23 -5 32 -21 36 -31 9 -22 55
14 64 17 5 25 4 21 -3 -4 -6 1 -8 15 -3 12 4 21 2 21 -4 0 -12 59 -45 61 -34
1 5 5 -5 9 -22 5 -17 6 17 3 80 -6 118 -12 148 -14 69 -1 -27 -4 -38 -6 -25
-4 20 -9 23 -39 18 -25 -4 -34 -2 -34 8 0 8 -13 15 -32 17 -33 3 -33 4 -36 61
-2 42 0 57 10 57 14 0 40 36 44 60 3 15 35 45 55 52 6 2 9 25 7 53 -3 47 -4
49 -17 29z m-571 -709 c0 -60 -11 -74 -61 -78 -24 -2 -37 -9 -44 -25 -11 -24
-24 -29 -27 -9 0 6 -4 -8 -8 -33 -5 -30 -7 -3 -7 80 0 91 2 110 7 70 4 -30 7
-47 8 -37 3 29 40 70 75 82 49 17 57 9 57 -50z m-6 -230 c6 -17 -13 -77 -28
-87 -15 -10 -26 11 -26 49 0 41 41 71 54 38z m713 -167 c-3 -8 -6 -5 -6 6 -1
11 2 17 5 13 3 -3 4 -12 1 -19z m-827 -81 c17 4 20 0 20 -26 0 -17 -9 -48 -20
-68 l-20 -38 0 50 c0 28 -3 61 -5 75 -3 14 -3 20 0 14 3 -7 15 -10 25 -7z
m730 -16 c0 -40 -17 -48 -22 -11 -3 17 -2 32 0 35 13 13 22 2 22 -24z m117
-23 c-3 -7 -5 -2 -5 12 0 14 2 19 5 13 2 -7 2 -19 0 -25z m30 -160 c-3 -7 -5
-2 -5 12 0 14 2 19 5 13 2 -7 2 -19 0 -25z m-704 5 c-7 -2 -19 -2 -25 0 -7 3
-2 5 12 5 14 0 19 -2 13 -5z m200 0 c-18 -2 -48 -2 -65 0 -18 2 -4 4 32 4 36
0 50 -2 33 -4z m387 -23 c0 -11 -2 -20 -4 -20 -2 0 -6 9 -9 20 -3 11 -1 20 4
20 5 0 9 -9 9 -20z m147 -132 c-3 -7 -5 -2 -5 12 0 14 2 19 5 13 2 -7 2 -19 0
-25z m-900 -170 c-2 -13 -4 -3 -4 22 0 25 2 35 4 23 2 -13 2 -33 0 -45z"/>
<path d="M3974 6382 c-22 -3 -30 -26 -36 -102 -3 -43 12 -100 27 -100 7 0 15
-12 17 -27 2 -16 8 30 12 100 5 70 7 129 5 130 -2 2 -14 1 -25 -1z"/>
<path d="M6370 6299 c0 -5 5 -7 10 -4 6 3 10 8 10 11 0 2 -4 4 -10 4 -5 0 -10
-5 -10 -11z"/>
<path d="M4583 6210 c0 -30 2 -43 4 -27 2 15 2 39 0 55 -2 15 -4 2 -4 -28z"/>
<path d="M3826 6154 c-3 -9 -5 -70 -4 -137 2 -93 3 -103 5 -44 3 68 6 76 18
63 8 -8 15 -21 15 -28 0 -10 3 -9 10 2 5 8 7 22 4 32 -2 9 -1 19 4 22 11 7 4
56 -11 74 -6 7 -16 11 -23 8 -8 -3 -11 0 -7 10 3 7 3 14 0 14 -3 0 -8 -7 -11
-16z"/>
<path d="M4038 5993 c6 -2 12 -11 12 -19 0 -8 10 -14 23 -14 12 0 17 -4 11 -8
-9 -6 -11 -36 -6 -79 3 -19 62 -17 62 2 0 9 7 18 15 21 23 9 18 38 -11 65
l-26 24 29 6 c17 4 -2 7 -47 7 -41 0 -69 -2 -62 -5z"/>
<path d="M4611 5842 c0 -24 -5 -41 -10 -38 -5 4 -16 3 -25 0 -14 -5 -16 -17
-11 -67 6 -68 11 -80 28 -70 25 15 37 11 38 -15 1 -15 3 -20 5 -12 2 8 -2 67
-10 130 -7 63 -14 96 -15 72z"/>
<path d="M4477 5655 c4 -53 22 -112 23 -78 0 7 6 10 14 7 8 -3 23 -1 34 5 18
9 20 6 25 -40 7 -54 20 -79 43 -79 8 0 14 -4 14 -10 0 -5 4 -10 8 -10 15 0 -8
130 -26 149 -9 10 -25 29 -34 41 -10 13 -29 24 -45 25 -49 3 -52 5 -57 28 -2
12 -2 -5 1 -38z"/>
</g>
</svg>
