<?xml version="1.0" standalone="no"?>
<!DOCTYPE svg PUBLIC "-//W3C//DTD SVG 20010904//EN"
 "http://www.w3.org/TR/2001/REC-SVG-20010904/DTD/svg10.dtd">
<svg version="1.0" xmlns="http://www.w3.org/2000/svg"
 width="1254.000000pt" height="1254.000000pt" viewBox="0 0 1254.000000 1254.000000"
 preserveAspectRatio="xMidYMid meet">

<g transform="translate(0.000000,1254.000000) scale(0.100000,-0.100000)"
fill="#000000" stroke="none">
<path d="M9020 9135 c-291 -47 -636 -206 -1465 -673 -132 -75 -274 -154 -315
-178 -41 -23 -131 -74 -199 -113 l-124 -71 -106 20 c-58 10 -234 42 -391 70
-157 29 -316 58 -355 65 -38 7 -198 36 -355 64 -157 28 -332 60 -390 71 -185
35 -902 158 -995 171 -172 23 -368 -7 -513 -78 -199 -98 -266 -291 -156 -450
20 -29 57 -69 83 -87 56 -41 754 -418 1279 -691 116 -60 212 -113 212 -117 0
-7 4 -5 -415 -246 -443 -256 -528 -300 -618 -318 -107 -23 -178 -9 -517 101
-672 218 -729 232 -850 200 -82 -21 -277 -117 -330 -163 -23 -19 -50 -51 -60
-73 -26 -49 -26 -130 -1 -185 19 -41 42 -62 590 -534 87 -74 234 -201 329
-283 224 -193 286 -239 394 -293 132 -66 217 -86 368 -87 105 -1 140 3 220 25
86 24 438 172 695 293 55 26 129 60 165 75 67 28 536 250 866 410 102 49 188
90 191 90 8 0 -2 -59 -47 -260 -23 -102 -63 -288 -90 -415 -50 -232 -62 -290
-145 -670 -140 -643 -156 -733 -152 -845 5 -130 30 -200 90 -261 59 -59 116
-83 202 -83 164 0 290 108 504 434 269 410 615 1070 909 1730 195 437 312 720
446 1072 20 53 42 101 49 106 7 5 116 62 242 127 859 439 1190 622 1392 767
497 357 589 691 278 1009 -123 126 -287 218 -465 261 -110 27 -330 33 -450 13z
m276 -245 c185 -19 359 -102 466 -219 73 -81 102 -140 95 -197 -17 -158 -231
-359 -622 -586 -195 -114 -890 -480 -1322 -697 -203 -102 -236 -126 -253 -177
-15 -43 -8 -73 26 -113 l26 -31 -72 -178 c-127 -311 -249 -597 -425 -987 -85
-189 -377 -770 -495 -985 -167 -304 -310 -534 -432 -697 -107 -144 -167 -182
-202 -131 -30 43 -19 128 65 518 22 102 51 235 64 295 13 61 53 243 89 405 35
162 78 360 95 440 33 158 132 613 152 698 l13 54 88 44 c95 48 118 75 118 139
0 71 -54 125 -126 125 -15 0 -142 -56 -283 -124 -258 -124 -313 -151 -716
-343 -192 -92 -613 -289 -700 -328 -16 -8 -104 -47 -195 -88 -394 -178 -474
-207 -595 -214 -109 -6 -195 12 -293 61 -69 35 -103 62 -376 296 -87 74 -195
167 -240 205 -46 39 -177 151 -291 250 -114 99 -217 188 -229 198 -20 17 -21
18 -2 32 38 29 165 75 208 75 24 0 70 -9 103 -19 33 -11 224 -72 425 -136 201
-64 407 -128 459 -141 111 -29 251 -32 351 -8 83 19 240 95 455 219 94 54 217
125 275 158 58 33 243 140 412 238 169 98 342 198 385 222 43 24 249 142 458
262 1788 1025 2276 1291 2555 1390 101 36 174 55 268 70 110 17 109 17 218 5z
m-4713 -635 c314 -53 662 -115 1505 -269 503 -92 471 -85 446 -103 -10 -8
-100 -61 -199 -117 -99 -57 -324 -185 -499 -286 -176 -101 -325 -183 -330
-183 -6 0 -99 46 -206 103 -107 56 -316 167 -465 245 -999 527 -1000 527 -964
571 20 24 103 63 167 78 107 26 202 20 545 -39z"/>
<path d="M9116 8690 c-63 -20 -106 -83 -106 -157 0 -66 27 -113 81 -141 53
-28 125 -26 167 5 34 24 72 98 72 138 0 40 -38 114 -70 137 -30 21 -104 31
-144 18z"/>
<path d="M7785 7920 c-16 -4 -113 -54 -215 -112 -102 -58 -216 -122 -253 -143
-37 -20 -75 -48 -83 -60 -40 -61 -21 -147 40 -180 53 -29 106 -16 226 52 58
33 169 95 247 137 163 89 193 117 193 182 0 77 -79 140 -155 124z"/>
<path d="M3805 6127 c-84 -84 -61 -132 142 -308 100 -86 105 -89 153 -89 90 0
148 79 120 164 -8 24 -42 61 -117 128 -154 135 -159 138 -216 138 -42 0 -54
-5 -82 -33z"/>
</g>
</svg>
