<?xml version="1.0" standalone="no"?>
<!DOCTYPE svg PUBLIC "-//W3C//DTD SVG 20010904//EN"
 "http://www.w3.org/TR/2001/REC-SVG-20010904/DTD/svg10.dtd">
<svg version="1.0" xmlns="http://www.w3.org/2000/svg"
 width="1254.000000pt" height="1254.000000pt" viewBox="0 0 1254.000000 1254.000000"
 preserveAspectRatio="xMidYMid meet">

<g transform="translate(0.000000,1254.000000) scale(0.100000,-0.100000)"
fill="#000000" stroke="none">
<path d="M4003 8080 c0 -36 2 -50 4 -32 2 17 2 47 0 65 -2 17 -4 3 -4 -33z"/>
<path d="M3843 7870 c0 -47 2 -66 4 -42 2 23 2 61 0 85 -2 23 -4 4 -4 -43z"/>
<path d="M4004 7655 c0 -55 1 -76 3 -47 2 29 2 74 0 100 -2 26 -3 2 -3 -53z"/>
<path d="M3843 7565 c0 -27 2 -38 4 -22 2 15 2 37 0 50 -2 12 -4 0 -4 -28z"/>
<path d="M3844 7400 c0 -58 1 -81 3 -52 2 28 2 76 0 105 -2 28 -3 5 -3 -53z"/>
<path d="M3842 5210 c-2 -1813 0 -2083 13 -2133 47 -181 190 -314 376 -350 50
-9 492 -11 2009 -7 1070 3 1916 7 1880 9 -36 2 -53 6 -37 8 31 5 35 18 10 32
-12 6 -36 3 -73 -9 -47 -14 -51 -18 -30 -22 14 -3 -36 -5 -110 -5 -74 0 -123
2 -107 4 26 4 30 11 28 43 0 11 1 11 5 2 5 -10 9 -10 20 -1 12 9 12 15 2 27
-7 9 -8 13 -3 10 6 -3 19 -2 30 2 19 7 19 8 -5 18 -42 16 -109 -32 -70 -51 6
-3 5 -4 -2 -3 -7 1 -19 -3 -26 -10 -8 -9 -20 -10 -35 -5 -12 4 -29 6 -37 3
-10 -4 -10 0 3 13 10 10 15 21 10 24 -12 8 -14 53 -3 46 5 -3 11 -1 15 5 4 6
-18 10 -59 10 -52 0 -66 -3 -66 -15 0 -8 -4 -15 -9 -15 -5 0 -11 -9 -14 -20
-7 -26 -23 -26 -30 0 -4 15 -10 18 -24 13 -10 -3 -21 -11 -25 -17 -4 -6 -6 -1
-5 12 0 12 7 22 14 22 7 0 13 5 13 10 0 6 -12 10 -26 10 -14 0 -23 -4 -19 -9
3 -5 -5 -18 -18 -28 -12 -10 -21 -26 -19 -35 4 -22 -11 -23 -28 -3 -7 8 -25
15 -41 15 -15 0 -31 5 -34 10 -3 6 -1 10 5 10 6 0 8 5 5 10 -4 6 -11 8 -16 4
-5 -3 -21 1 -34 10 -18 12 -50 16 -131 16 -92 0 -105 -2 -100 -16 5 -12 0 -14
-23 -11 -21 4 -31 0 -36 -11 -6 -16 -7 -16 -16 1 -6 9 -19 17 -29 17 -11 0
-20 4 -20 9 0 6 -19 12 -42 14 -24 2 295 5 707 8 471 2 -14 6 -1300 9 l-2050
5 -43 23 c-66 35 -119 88 -149 150 l-28 57 -5 1870 c-3 1029 -7 1854 -9 1835
-2 -19 -3 -72 -1 -118 2 -60 -2 -91 -14 -117 -10 -20 -14 -44 -11 -55 4 -12 2
-20 -5 -20 -14 0 -3 -67 17 -99 12 -19 14 -46 11 -123 -3 -56 -10 -104 -17
-111 -17 -17 -47 5 -43 33 1 12 -5 31 -13 43 l-15 21 0 -24 c0 -39 -27 -115
-39 -113 -8 2 -11 -35 -11 -120 1 -122 10 -159 38 -149 10 3 10 -2 0 -24 -10
-21 -14 -24 -16 -11 -2 9 -7 17 -12 17 -5 0 -8 -30 -8 -67 0 -38 -2 -88 -3
-113 -2 -25 -6 326 -9 780 -3 556 -6 149 -8 -1250z m155 584 c-7 -7 -37 7 -37
17 0 6 9 5 21 -1 11 -7 19 -14 16 -16z m0 -216 c-3 -7 -5 -2 -5 12 0 14 2 19
5 13 2 -7 2 -19 0 -25z m-140 -140 c-2 -24 -4 -7 -4 37 0 44 2 63 4 43 2 -21
2 -57 0 -80z m211 -2431 c8 -10 6 -13 -9 -14 -19 -2 -25 8 -12 20 8 9 9 9 21
-6z m245 -134 c-7 -2 -19 -2 -25 0 -7 3 -2 5 12 5 14 0 19 -2 13 -5z m850 0
c-13 -2 -35 -2 -50 0 -16 2 -5 4 22 4 28 0 40 -2 28 -4z m154 1 c-3 -3 -12 -4
-19 -1 -8 3 -5 6 6 6 11 1 17 -2 13 -5z m336 -1 c-13 -2 -35 -2 -50 0 -16 2
-5 4 22 4 28 0 40 -2 28 -4z m245 0 c-21 -2 -57 -2 -80 0 -24 2 -7 4 37 4 44
0 63 -2 43 -4z m90 0 c-10 -2 -26 -2 -35 0 -10 3 -2 5 17 5 19 0 27 -2 18 -5z
m335 0 c-29 -2 -77 -2 -105 0 -29 2 -6 3 52 3 58 0 81 -1 53 -3z m395 0 c-38
-2 -98 -2 -135 0 -38 2 -7 3 67 3 74 0 105 -1 68 -3z m952 -69 c0 -14 -3 -14
-15 -4 -8 7 -15 14 -15 16 0 2 7 4 15 4 8 0 15 -7 15 -16z m-340 -24 c0 -5 -4
-10 -10 -10 -5 0 -10 5 -10 10 0 6 5 10 10 10 6 0 10 -4 10 -10z m190 -44 c8
-2 -61 -3 -155 -3 -165 1 -166 1 -50 7 112 5 168 4 205 -4z m183 -3 c-13 -2
-35 -2 -50 0 -16 2 -5 4 22 4 28 0 40 -2 28 -4z"/>
<path d="M4004 7100 c0 -102 2 -143 3 -92 2 50 2 134 0 185 -1 50 -3 9 -3 -93z"/>
<path d="M5320 6720 c6 -11 13 -20 16 -20 2 0 0 9 -6 20 -6 11 -13 20 -16 20
-2 0 0 -9 6 -20z"/>
<path d="M3911 6394 c-1 -12 -8 -35 -17 -50 l-16 -29 6 27 c7 29 -8 48 -18 22
-10 -25 -7 -102 4 -109 6 -3 10 1 10 9 0 9 5 16 10 16 6 0 10 5 10 10 0 6 15
27 34 46 36 37 39 70 5 61 -10 -3 -20 0 -23 7 -2 6 -5 1 -5 -10z"/>
<path d="M3937 6323 c-10 -9 -9 -23 2 -23 5 0 11 7 15 15 5 15 -5 20 -17 8z"/>
<path d="M6148 5993 c6 -2 18 -2 25 0 6 3 1 5 -13 5 -14 0 -19 -2 -12 -5z"/>
<path d="M5434 5576 c-18 -8 -35 -19 -39 -26 -6 -9 69 23 84 36 9 8 -16 3 -45
-10z"/>
<path d="M5344 5508 l-29 -33 33 29 c30 28 37 36 29 36 -2 0 -16 -15 -33 -32z"/>
<path d="M5298 5448 c-23 -38 -38 -78 -37 -101 0 -14 2 -16 5 -7 25 76 37 101
44 90 5 -8 7 -3 7 13 -1 15 -3 27 -3 27 -1 0 -8 -10 -16 -22z"/>
<path d="M5578 5443 c18 -2 45 -2 60 0 15 2 0 4 -33 4 -33 0 -45 -2 -27 -4z"/>
<path d="M5424 5343 c-11 -24 -17 -56 -16 -88 3 -60 -6 -107 -19 -99 -5 3 -9
-14 -9 -37 0 -23 3 -39 7 -35 4 3 12 -6 19 -21 11 -24 13 -8 13 112 1 104 5
147 16 169 9 16 14 31 11 33 -2 2 -12 -13 -22 -34z"/>
<path d="M5255 4450 l0 -875 34 -63 c38 -70 92 -120 167 -154 l49 -23 775 0
c609 0 780 3 800 13 l25 13 -25 -8 c-14 -4 -335 -8 -715 -8 -470 0 -575 1
-330 5 198 3 349 8 335 12 -21 7 -22 10 -10 18 13 8 13 10 -2 10 -9 0 -21 7
-25 15 -7 12 -13 11 -35 -10 -17 -16 -28 -20 -31 -12 -2 7 -21 11 -50 9 -26
-1 -47 3 -47 8 0 6 3 9 8 8 4 -2 7 2 7 7 0 6 -3 9 -7 7 -5 -1 -8 2 -8 7 0 5 5
11 11 13 5 2 7 11 4 21 -6 14 -21 17 -91 17 -65 0 -82 -3 -78 -13 4 -11 -8
-12 -63 -5 -37 4 -69 4 -71 0 -3 -11 -72 -2 -72 9 0 5 -21 10 -47 11 -27 1 74
5 222 8 l270 5 -350 1 c-192 0 -318 -2 -280 -6 39 -4 58 -7 43 -8 -15 -1 -30
-6 -33 -12 -10 -16 -52 -11 -87 10 -26 16 -29 20 -13 20 16 0 14 3 -10 16 -16
8 -41 25 -54 37 -49 46 -51 59 -52 479 -1 216 -3 382 -6 368 -8 -55 -14 -71
-23 -65 -6 3 -10 -3 -10 -14 0 -33 -20 -35 -46 -4 -23 27 -24 27 -25 6 -3 -42
-4 -46 -16 -50 -7 -3 -14 1 -14 9 -1 7 -5 0 -9 -17 -5 -18 -7 21 -7 100 0 90
2 115 7 80 6 -43 7 -45 8 -15 2 28 8 39 32 53 24 15 30 25 30 53 0 19 -5 34
-12 34 -6 0 -9 2 -6 5 3 3 18 0 34 -6 16 -7 32 -12 36 -11 4 1 10 -10 14 -26
3 -15 7 -31 9 -37 2 -5 3 114 3 265 0 206 -3 262 -10 223 -5 -29 -14 -53 -19
-53 -5 0 -9 -15 -9 -32 0 -24 3 -29 9 -19 15 24 23 -26 17 -105 -2 -38 -5 -84
-5 -101 -1 -21 -6 -33 -15 -33 -7 0 -16 -9 -19 -20 -6 -24 -47 -28 -47 -4 0 8
-5 12 -10 9 -6 -4 -7 -11 -4 -17 4 -6 -1 -8 -15 -3 -16 5 -22 2 -23 -12 -2
-10 -5 151 -8 357 -3 230 -5 37 -5 -500z m105 -180 c0 -5 -4 -10 -10 -10 -5 0
-10 5 -10 10 0 6 5 10 10 10 6 0 10 -4 10 -10z m-93 -287 c-2 -16 -4 -5 -4 22
0 28 2 40 4 28 2 -13 2 -35 0 -50z m0 -345 c-3 -8 -6 -5 -6 6 -1 11 2 17 5 13
3 -3 4 -12 1 -19z m603 -207 c0 -6 -4 -13 -10 -16 -5 -3 -10 1 -10 9 0 9 5 16
10 16 6 0 10 -4 10 -9z m-385 -62 c22 -10 29 -16 15 -13 -28 7 -80 33 -65 33
6 0 28 -9 50 -20z m695 7 c0 -3 -4 -8 -10 -11 -5 -3 -10 -1 -10 4 0 6 5 11 10
11 6 0 10 -2 10 -4z"/>
<path d="M6110 5230 c-18 -12 -2 -12 25 0 13 6 15 9 5 9 -8 0 -22 -4 -30 -9z"/>
<path d="M5960 5123 l-55 -58 58 55 c53 50 62 60 54 60 -1 0 -27 -26 -57 -57z"/>
<path d="M6580 5146 c0 -2 8 -10 18 -17 15 -13 16 -12 3 4 -13 16 -21 21 -21
13z"/>
<path d="M5272 5075 c0 -33 3 -51 5 -40 3 11 10 23 16 27 8 5 8 10 0 20 -6 7
-13 22 -16 33 -2 11 -5 -7 -5 -40z"/>
<path d="M6203 5092 c-6 -4 29 -7 77 -7 48 0 83 3 77 7 -7 4 -41 8 -77 8 -36
0 -70 -4 -77 -8z"/>
<path d="M5875 5009 c-9 -17 -15 -33 -13 -35 3 -2 12 12 21 31 21 43 13 47 -8
4z"/>
<path d="M6016 4925 c-9 -26 -7 -32 5 -12 6 10 9 21 6 23 -2 3 -7 -2 -11 -11z"/>
<path d="M5837 4901 c-4 -18 -6 -61 -5 -95 l1 -61 7 50 c4 28 8 46 8 41 1 -5
9 -3 17 4 15 12 12 48 -5 60 -4 3 -9 12 -12 20 -2 8 -8 0 -11 -19z"/>
<path d="M5271 4854 c1 -27 3 -41 6 -31 3 12 11 16 23 12 16 -5 18 -1 17 29
-1 20 -5 36 -9 36 -5 0 -8 -5 -8 -11 0 -8 -5 -8 -15 1 -13 11 -15 6 -14 -36z"/>
<path d="M7302 4870 c0 -19 2 -27 5 -17 2 9 2 25 0 35 -3 9 -5 1 -5 -18z"/>
<path d="M6732 4810 c0 -14 2 -19 5 -12 2 6 2 18 0 25 -3 6 -5 1 -5 -13z"/>
<path d="M7152 4245 c-1 -341 -6 -595 -12 -615 -12 -45 -73 -104 -122 -120
-42 -13 -52 -26 -14 -16 21 5 23 3 18 -16 -3 -14 -2 -19 6 -14 11 7 17 -18 13
-51 -2 -14 45 -18 53 -5 7 11 -6 27 -27 35 -22 8 -19 42 4 42 8 0 28 10 43 23
16 12 23 22 16 22 -10 0 -9 4 1 17 12 14 12 16 -1 11 -12 -5 -11 4 7 41 l23
46 -3 590 -2 590 -3 -580z m-52 -709 c0 -2 -8 -10 -17 -17 -16 -13 -17 -12 -4
4 13 16 21 21 21 13z"/>
<path d="M5986 4695 c-10 -25 -16 -50 -13 -57 3 -7 6 -2 6 11 l1 25 20 -21
c12 -13 27 -19 39 -16 19 5 19 6 -5 51 -13 25 -26 47 -27 48 -1 2 -11 -17 -21
-41z"/>
<path d="M6711 4694 c0 -11 3 -14 6 -6 3 7 2 16 -1 19 -3 4 -6 -2 -5 -13z"/>
<path d="M6520 4668 c-12 -22 -12 -22 6 -6 10 10 15 20 12 24 -4 3 -12 -5 -18
-18z"/>
<path d="M5865 4640 c7 -26 71 -130 80 -130 3 0 -2 12 -12 28 -17 25 -17 26 0
13 18 -14 19 -14 21 22 2 26 -30 63 -59 69 -11 1 -24 8 -28 13 -5 6 -5 -1 -2
-15z"/>
<path d="M7304 4485 c0 -60 1 -84 3 -52 2 32 2 81 0 110 -2 29 -3 3 -3 -58z"/>
<path d="M6140 4568 c8 -7 14 -23 12 -35 -4 -24 12 -30 37 -14 11 7 9 10 -9
16 -15 5 -19 10 -11 14 7 5 1 12 -16 19 -23 10 -25 10 -13 0z"/>
<path d="M6377 4553 c-4 -3 -37 -10 -75 -13 l-67 -7 55 -1 c30 -1 69 5 85 13
17 7 25 14 19 14 -6 1 -14 -2 -17 -6z"/>
<path d="M6040 4449 c0 -5 -4 -7 -10 -4 -5 3 -10 4 -10 1 0 -9 82 -48 88 -42
3 3 2 6 -3 6 -4 0 -2 7 6 16 10 13 10 17 -2 25 -20 12 -69 11 -69 -2z"/>
<path d="M6514 4434 c-18 -14 -18 -15 4 -4 12 6 22 13 22 15 0 8 -5 6 -26 -11z"/>
<path d="M6221 4385 l-34 -12 33 -6 c18 -4 49 -6 69 -6 31 2 32 3 8 6 -20 3
-27 9 -23 19 6 16 -6 16 -53 -1z"/>
<path d="M5272 4370 c0 -14 2 -19 5 -12 2 6 2 18 0 25 -3 6 -5 1 -5 -13z"/>
<path d="M7304 4125 c0 -60 1 -84 3 -52 2 32 2 81 0 110 -2 29 -3 3 -3 -58z"/>
<path d="M5677 4213 l23 -4 -21 -22 c-12 -13 -33 -22 -50 -22 -35 -1 -37 8 -7
29 12 9 17 16 11 16 -6 0 -21 -12 -32 -26 -29 -37 -27 -89 4 -119 l24 -25 628
2 628 3 -490 5 c-269 3 -440 7 -380 10 97 4 107 6 83 17 -16 7 -28 17 -28 22
0 6 -12 6 -32 0 -42 -12 -43 -12 -29 4 11 14 -3 37 -23 37 -5 0 -19 9 -31 20
-17 16 -28 19 -46 12 -30 -11 -59 -5 -59 13 0 7 -6 16 -12 18 -7 3 61 5 152 5
91 0 154 -3 141 -7 l-24 -6 27 -13 c33 -15 49 -16 41 -2 -3 6 -1 10 5 10 6 0
8 5 5 10 -4 6 24 10 77 9 46 -1 73 -4 60 -7 -13 -4 -22 -11 -21 -17 1 -5 -9
-15 -22 -22 -64 -33 -80 -64 -31 -62 l27 1 -25 7 c-24 7 -23 8 11 13 39 7 125
57 125 73 -1 6 49 12 119 15 66 4 -98 6 -365 7 -267 0 -475 -2 -463 -4z m117
-109 c12 -5 13 -11 6 -24 -8 -15 -6 -19 13 -23 12 -2 -12 -4 -53 -4 -41 0 -63
2 -47 4 15 2 27 8 27 13 0 8 28 40 35 40 2 0 10 -3 19 -6z m-137 -50 c-3 -3
-12 -4 -19 -1 -8 3 -5 6 6 6 11 1 17 -2 13 -5z"/>
<path d="M6727 4213 c18 -2 50 -2 70 0 21 2 7 4 -32 4 -38 0 -55 -2 -38 -4z"/>
<path d="M6961 4180 c1 -8 5 -26 9 -40 l8 -25 1 25 c0 14 -4 32 -9 40 -9 13
-10 13 -9 0z"/>
<path d="M6237 4083 c-16 -15 -5 -23 33 -23 31 0 38 3 34 15 -6 15 -55 21 -67
8z"/>
<path d="M6526 4081 c-4 -5 -2 -12 3 -15 5 -4 12 -2 15 3 4 5 2 12 -3 15 -5 4
-12 2 -15 -3z"/>
<path d="M6475 4070 c3 -5 8 -10 11 -10 2 0 4 5 4 10 0 6 -5 10 -11 10 -5 0
-7 -4 -4 -10z"/>
<path d="M7304 3800 c0 -74 1 -105 3 -67 2 37 2 97 0 135 -2 37 -3 6 -3 -68z"/>
<path d="M5890 3883 c-62 -23 -81 -100 -34 -144 l26 -24 391 -1 c246 0 332 2
232 6 -168 6 -185 12 -27 10 59 -1 92 3 92 9 0 6 -14 11 -31 11 -30 0 -59 19
-59 39 0 21 -18 11 -24 -13 -8 -33 -35 -41 -53 -16 -8 12 -21 19 -29 16 -9 -3
-11 0 -7 11 4 11 2 14 -5 9 -7 -4 -12 -3 -12 2 0 4 -16 7 -35 6 -19 -2 -35 1
-35 6 0 10 22 14 49 10 13 -1 13 1 2 14 -15 17 -36 22 -26 6 3 -5 -3 -10 -14
-10 -12 0 -21 -7 -21 -15 0 -18 -63 -48 -87 -41 -15 5 -18 14 -15 40 3 30 1
34 -25 41 l-28 8 30 8 c16 5 134 8 262 9 220 0 234 -1 253 -20 11 -11 24 -20
28 -20 5 0 14 -10 20 -22 7 -16 11 -18 12 -8 1 8 6 4 11 -10 7 -21 8 -19 4 10
-3 19 -13 42 -22 50 -15 14 -16 13 -4 -2 7 -10 11 -22 9 -29 -2 -6 -10 2 -18
18 -8 15 -19 31 -25 35 -11 9 -762 9 -785 1z m185 -22 c-29 -13 -44 -15 -53
-8 -18 14 8 25 58 26 l35 0 -40 -18z m-177 -11 c-7 -11 -18 -18 -24 -16 -6 2
-17 -1 -23 -7 -18 -18 -13 4 6 25 9 10 24 18 35 18 16 0 16 -3 6 -20z m127
-80 c4 -6 -6 -11 -22 -11 -23 -2 -24 -2 -5 -6 12 -2 22 -8 22 -13 0 -5 46 -11
103 -13 69 -2 51 -3 -58 -4 -88 -1 -149 2 -135 6 14 4 29 17 35 29 10 23 49
31 60 12z"/>
<path d="M7172 3675 c0 -16 2 -22 5 -12 2 9 2 23 0 30 -3 6 -5 -1 -5 -18z"/>
<path d="M7280 3546 c-6 -20 -16 -39 -22 -42 -7 -4 -8 -2 -4 4 4 7 2 12 -4 12
-12 0 -40 -24 -40 -35 0 -3 -12 -21 -27 -40 -32 -41 -40 -69 -14 -55 47 24
145 169 128 187 -3 2 -10 -12 -17 -31z m-39 -73 c-10 -20 -48 -56 -71 -68 -8
-4 5 13 30 39 48 50 56 55 41 29z"/>
<path d="M6368 3493 c45 -2 119 -2 165 0 45 1 8 3 -83 3 -91 0 -128 -2 -82 -3z"/>
<path d="M6778 3493 c12 -2 30 -2 40 0 9 3 -1 5 -23 4 -22 0 -30 -2 -17 -4z"/>
<path d="M8763 3395 c0 -22 2 -30 4 -17 2 12 2 30 0 40 -3 9 -5 -1 -4 -23z"/>
<path d="M7030 3380 c0 -5 -7 -10 -15 -10 -8 0 -15 -4 -15 -9 0 -13 53 3 58
17 2 7 -3 12 -12 12 -9 0 -16 -4 -16 -10z"/>
<path d="M8762 3250 c0 -14 2 -19 5 -12 2 6 2 18 0 25 -3 6 -5 1 -5 -13z"/>
<path d="M8591 3143 c0 -12 -10 -42 -21 -68 -11 -25 -16 -43 -11 -40 15 9 43
91 38 111 -4 16 -5 16 -6 -3z"/>
<path d="M8706 2973 c-6 -14 -5 -15 5 -6 7 7 10 15 7 18 -3 3 -9 -2 -12 -12z"/>
<path d="M8420 2920 c-19 -11 -31 -19 -27 -20 11 0 67 29 67 35 0 7 -1 7 -40
-15z"/>
<path d="M8128 2854 c20 -14 24 -14 44 0 22 16 21 16 -22 16 -43 0 -44 0 -22
-16z"/>
<path d="M8280 2730 l-75 -6 75 -1 c41 -1 86 3 100 7 l25 8 -25 -1 c-14 0 -59
-3 -100 -7z"/>
</g>
</svg>
